SplineFontDB: 3.2
FontName: Roundterm
FullName: Roundterm
FamilyName: Roundterm
Weight: Regular
Copyright: Copyright (c) 2025, W.F.Turnip
UComments: "2025-6-12: Created with FontForge (http://fontforge.org)"
Version: 001.000
ItalicAngle: 0
UnderlinePosition: -100
UnderlineWidth: 50
Ascent: 650
Descent: 200
InvalidEm: 0
LayerCount: 2
Layer: 0 1 "+gMyXYgAA" 1
Layer: 1 1 "+Uk2XYgAA" 0
XUID: [1021 352 -730677569 5783143]
OS2Version: 0
OS2_WeightWidthSlopeOnly: 0
OS2_UseTypoMetrics: 1
CreationTime: 1749711967
ModificationTime: 1749817954
OS2TypoAscent: 0
OS2TypoAOffset: 1
OS2TypoDescent: 0
OS2TypoDOffset: 1
OS2TypoLinegap: 0
OS2WinAscent: 0
OS2WinAOffset: 1
OS2WinDescent: 0
OS2WinDOffset: 1
HheadAscent: 0
HheadAOffset: 1
HheadDescent: 0
HheadDOffset: 1
OS2Vendor: 'PfEd'
MarkAttachClasses: 1
DEI: 91125
Encoding: UnicodeFull
UnicodeInterp: none
NameList: AGL For New Fonts
DisplaySize: -36
AntiAlias: 0
FitToEm: 0
WinInfo: 0 16 9
BeginPrivate: 0
EndPrivate
BeginChars: 1114112 95

StartChar: nine
Encoding: 57 57 0
Width: 500
VWidth: 1000
Flags: W
LayerCount: 2
Fore
SplineSet
250.00390625 0 m 2,0,-1
 250 -0 l 1,1,-1
 249.998046875 -0 l 0,2,3
 248.28982396 0.0988350046036 248.28982396 0.0988350046036 246.63671875 0.220703125 c 0,4,5
 232.785043792 0.378991536114 232.785043792 0.378991536114 219.06640625 2.234375 c 0,6,7
 206.141034716 4.03472070153 206.141034716 4.03472070153 193.505859375 7.3203125 c 0,8,9
 192.548267358 7.50696179139 192.548267358 7.50696179139 191.767578125 7.666015625 c 0,10,11
 162.628097057 15.5107541908 162.628097057 15.5107541908 136.591796875 30.751953125 c 2,12,-1
 136.013671875 31.138671875 l 0,13,14
 123.826273003 38.2608745672 123.826273003 38.2608745672 112.62109375 46.853515625 c 0,15,16
 101.145957674 55.6815514106 101.145957674 55.6815514106 90.90234375 65.900390625 c 128,-1,17
 80.6813754243 76.1432329021 80.6813754243 76.1432329021 71.861328125 87.6044921875 c 2,18,-1
 71.85546875 87.6123046875 l 1,19,-1
 71.841796875 87.6318359375 l 0,20,21
 63.2528609583 98.834413214 63.2528609583 98.834413214 56.138671875 111.006835938 c 2,22,-1
 56.125 111.032226562 l 1,23,-1
 55.8984375 111.372070312 l 1,24,-1
 55.759765625 111.577148438 l 1,25,-1
 55.7578125 111.581054688 l 1,26,-1
 55.751953125 111.592773438 l 1,27,-1
 55.73828125 111.614257812 l 1,28,29
 48.5474287506 123.986840988 48.5474287506 123.986840988 42.984375 137.159179688 c 0,30,-1
 42.859375 137.411132812 l 2,31,-1
 42.85546875 137.421875 l 1,32,33
 40.8307793467 142.797366164 40.8307793467 142.797366164 39.08203125 148.2734375 c 0,34,35
 35.9412609515 156.296395292 35.9412609515 156.296395292 33.41796875 164.55859375 c 2,36,-1
 33.388671875 164.640625 l 1,37,-1
 33.373046875 164.685546875 l 2,38,-1
 33.373046875 164.6875 l 1,39,40
 25.6131532472 192.679027973 25.6131532472 192.679027973 25.21484375 221.716796875 c 2,41,-1
 25.212890625 221.736328125 l 0,42,43
 25.0922996031 223.391849315 25.0922996031 223.391849315 25 224.9765625 c 2,44,-1
 25 224.978515625 l 1,45,-1
 25.001953125 225 l 0,46,47
 25.0943010159 226.596908144 25.0943010159 226.596908144 25.21484375 228.263671875 c 2,48,-1
 25.21484375 228.265625 l 1,49,50
 26.4324349422 237.506640961 26.4324349422 237.506640961 33.4894987315 243.753320481 c 128,-1,51
 40.5465625208 250 40.5465625208 250 50 250 c 0,52,53
 60 250 60 250 67.5 242.5 c 128,-1,54
 75 235 75 235 75 225 c 2,55,-1
 75 224.83203125 l 0,56,57
 75.1887242835 218.386592742 75.1887242835 218.386592742 75.85546875 211.9453125 c 0,58,59
 76.0179698155 208.457343202 76.0179698155 208.457343202 76.318359375 204.98828125 c 0,60,61
 76.4049218943 203.507763678 76.4049218943 203.507763678 76.509765625 202.109375 c 0,62,63
 76.5159368232 202.077518274 76.5159368232 202.077518274 76.5575568983 201.86044102 c 128,-1,64
 76.5991769733 201.643363766 76.5991769733 201.643363766 76.62109375 201.533203125 c 0,65,66
 77.729062971 194.248707996 77.729062971 194.248707996 79.44921875 187.07421875 c 0,67,68
 80.1351993891 183.348431202 80.1351993891 183.348431202 80.978515625 179.66796875 c 0,69,70
 81.3068934567 178.681115999 81.3068934567 178.681115999 81.5546875 177.962890625 c 0,71,72
 83.3532790317 171.937167441 83.3532790317 171.937167441 85.578125 166.05859375 c 0,73,74
 86.8630642758 161.986914759 86.8630642758 161.986914759 88.33984375 157.994140625 c 0,75,76
 91.3823375241 151.084839316 91.3823375241 151.084839316 95.021484375 144.443359375 c 0,77,78
 96.6604928779 140.926167449 96.6604928779 140.926167449 98.45703125 137.48046875 c 0,79,80
 104.189625932 127.554965585 104.189625932 127.554965585 111.1640625 118.466796875 c 128,-1,81
 118.14441857 109.36730018 118.14441857 109.36730018 126.255859375 101.255859375 c 1,82,-1
 126.2578125 101.255859375 l 0,83,84
 134.373034786 93.1406370895 134.373034786 93.1406370895 143.466796875 86.162109375 c 128,-1,85
 152.504813736 79.2330119667 152.504813736 79.2330119667 162.375 73.529296875 c 128,-1,86
 172.370535841 67.741084524 172.370535841 67.741084524 183.029296875 63.3203125 c 0,87,88
 193.483968787 59.0018844179 193.483968787 59.0018844179 204.41015625 56.064453125 c 0,89,-1
 204.70703125 55.962890625 l 0,90,91
 226.867344772 50.0258315077 226.867344772 50.0258315077 249.80859375 50 c 2,92,-1
 250 50 l 1,93,-1
 250.1796875 50 l 0,94,95
 273.134666055 50.025846967 273.134666055 50.025846967 295.294921875 55.962890625 c 0,96,-1
 295.591796875 56.064453125 l 0,97,98
 306.517984338 59.0018844179 306.517984338 59.0018844179 316.97265625 63.3203125 c 0,99,100
 327.631417284 67.741084524 327.631417284 67.741084524 337.626953125 73.529296875 c 128,-1,101
 347.497139389 79.2330119667 347.497139389 79.2330119667 356.53515625 86.162109375 c 128,-1,102
 365.628918339 93.1406370895 365.628918339 93.1406370895 373.744140625 101.255859375 c 1,103,-1
 373.74609375 101.255859375 l 0,104,105
 381.857534555 109.36730018 381.857534555 109.36730018 388.837890625 118.466796875 c 128,-1,106
 395.816790177 127.562692865 395.816790177 127.562692865 401.544921875 137.48046875 c 0,107,108
 403.347871829 140.938464641 403.347871829 140.938464641 404.98046875 144.443359375 c 0,109,110
 408.612144502 151.071204485 408.612144502 151.071204485 411.662109375 157.994140625 c 0,111,112
 413.138888849 161.986914759 413.138888849 161.986914759 414.423828125 166.05859375 c 0,113,114
 416.648674093 171.937167441 416.648674093 171.937167441 418.447265625 177.962890625 c 0,115,116
 418.724618443 178.766791434 418.724618443 178.766791434 419.021484375 179.654296875 c 0,117,118
 419.861929343 183.322228327 419.861929343 183.322228327 420.552734375 187.07421875 c 0,119,120
 422.272890154 194.248707996 422.272890154 194.248707996 423.380859375 201.533203125 c 0,121,122
 423.470621319 201.984375 423.470621319 201.984375 423.4921875 202.095703125 c 0,123,124
 423.550863776 202.917170995 423.550863776 202.917170995 423.591796875 203.583984375 c 0,125,126
 423.97081361 207.779611486 423.97081361 207.779611486 424.146484375 211.9453125 c 0,127,128
 424.813228841 218.386592742 424.813228841 218.386592742 425.001953125 224.83203125 c 2,129,-1
 425.001953125 225 l 1,130,-1
 425.01953125 239.678819444 l 0,131,132
 425.037109375 254.357638889 425.037109375 254.357638889 425.037109375 269.002170139 c 128,-1,133
 425.037109375 283.646701389 425.037109375 283.646701389 425.001953125 283.578125 c 0,134,135
 393.465374137 244.553558499 393.465374137 244.553558499 347.789778761 222.27677925 c 128,-1,136
 302.114183384 200 302.114183384 200 250.001953125 200 c 0,137,138
 156.866455078 200 156.866455078 200 90.9342041016 265.932250977 c 128,-1,139
 25.001953125 331.864501953 25.001953125 331.864501953 25.001953125 425 c 128,-1,140
 25.001953125 518.135498047 25.001953125 518.135498047 90.9342041016 584.067749023 c 128,-1,141
 156.866455078 650 156.866455078 650 250.001953125 650 c 128,-1,142
 343.137451172 650 343.137451172 650 409.069702148 584.067749023 c 128,-1,143
 475.001953125 518.135498047 475.001953125 518.135498047 475.001953125 425 c 2,144,-1
 475.001953125 225 l 1,145,-1
 475 225 l 1,146,-1
 475.002929688 224.98828125 l 1,147,-1
 475.002929688 224.979492188 l 1,148,-1
 475.002929688 224.977539062 l 0,149,150
 474.910630084 223.392825877 474.910630084 223.392825877 474.790039062 221.737304688 c 2,151,-1
 474.788085938 221.717773438 l 1,152,153
 474.389788445 192.682317623 474.389788445 192.682317623 466.631835938 164.696289062 c 2,154,-1
 466.629882812 164.686523438 l 1,155,-1
 466.614257812 164.641601562 l 1,156,-1
 466.584960938 164.559570312 l 1,157,158
 462.736549705 150.696193364 462.736549705 150.696193364 457.147460938 137.422851562 c 2,159,-1
 457.143554688 137.413085938 l 1,160,-1
 457.018554688 137.161132812 l 1,161,162
 451.454169529 123.985641573 451.454169529 123.985641573 444.268554688 111.622070312 c 2,163,-1
 444.250976562 111.594726562 l 1,164,-1
 444.245117188 111.583007812 l 1,165,-1
 444.243164062 111.579101562 l 1,166,-1
 444.240234375 111.575195312 l 1,167,-1
 444.103515625 111.374023438 l 1,168,-1
 443.89453125 111.063476562 l 0,169,170
 436.747393742 98.8346788753 436.747393742 98.8346788753 428.16015625 87.6376953125 c 2,171,-1
 428.146484375 87.6181640625 l 1,172,-1
 428.140625 87.609375 l 0,173,174
 419.313943285 76.1380382789 419.313943285 76.1380382789 409.099609375 65.900390625 c 128,-1,175
 398.852835489 55.6798680807 398.852835489 55.6798680807 387.390625 46.861328125 c 2,176,-1
 387.3828125 46.85546875 l 0,177,178
 376.18118367 38.2655503187 376.18118367 38.2655503187 363.98828125 31.138671875 c 2,179,-1
 363.98828125 31.138671875 l 0,180,-1
 363.41015625 30.751953125 l 1,181,182
 337.367460222 15.5085065359 337.367460222 15.5085065359 308.236328125 7.666015625 c 0,183,184
 307.240636188 7.46518962409 307.240636188 7.46518962409 306.49609375 7.3203125 c 0,185,186
 293.860702285 4.03615189324 293.860702285 4.03615189324 280.935546875 2.234375 c 0,187,188
 267.20499689 0.378855408048 267.20499689 0.378855408048 253.365234375 0.220703125 c 0,189,-1
 253.263671875 0.212890625 l 0,190,191
 251.594416686 0.0920598203999 251.594416686 0.0920598203999 250.00390625 0 c 2,0,-1
250.001953125 250 m 128,-1,193
 322.440673828 250 322.440673828 250 373.721313477 301.280639648 c 128,-1,194
 425.001953125 352.561279297 425.001953125 352.561279297 425.001953125 425 c 128,-1,195
 425.001953125 497.438720703 425.001953125 497.438720703 373.721313477 548.719360352 c 128,-1,196
 322.440673828 600 322.440673828 600 250.001953125 600 c 128,-1,197
 177.563232422 600 177.563232422 600 126.282592773 548.719360352 c 128,-1,198
 75.001953125 497.438720703 75.001953125 497.438720703 75.001953125 425 c 128,-1,199
 75.001953125 352.561279297 75.001953125 352.561279297 126.282592773 301.280639648 c 128,-1,192
 177.563232422 250 177.563232422 250 250.001953125 250 c 128,-1,193
EndSplineSet
EndChar

StartChar: eight
Encoding: 56 56 1
Width: 500
VWidth: 1000
Flags: W
LayerCount: 2
Fore
SplineSet
200 650 m 2,0,-1
 250 650 l 1,1,-1
 262.5 650 l 0,2,3
 275 650 275 650 287.5 650 c 0,4,-1
 300 650 l 1,5,6
 371.476620762 649.924629737 371.476620762 649.924629737 422.46596922 599.749439532 c 128,-1,7
 473.455317677 549.574249327 473.455317677 549.574249327 474.78515625 478.263671875 c 0,8,9
 475 476.630859375 475 476.630859375 475 475 c 0,10,-1
 475 474.969726562 l 0,11,-1
 475 474.9375 l 0,12,13
 474.93296709 427.901300253 474.93296709 427.901300253 451.85687995 388.099846624 c 128,-1,14
 428.780792809 348.298392994 428.780792809 348.298392994 389.826171875 325 c 1,15,16
 428.780792809 301.701607006 428.780792809 301.701607006 451.85687995 261.900153376 c 128,-1,17
 474.93296709 222.098699747 474.93296709 222.098699747 475 175.0625 c 0,18,-1
 475 175.032226562 l 0,19,-1
 475 175 l 0,20,21
 475 173.369140625 475 173.369140625 474.78515625 171.736328125 c 0,22,23
 473.455317677 100.425750673 473.455317677 100.425750673 422.46596922 50.2505604681 c 128,-1,24
 371.476620762 0.0753702631935 371.476620762 0.0753702631935 300 0 c 2,25,-1
 250 0 l 1,26,-1
 237.5 0 l 0,27,28
 225 0 225 0 212.5 0 c 0,29,-1
 200 0 l 1,30,31
 128.523379238 0.0753702631935 128.523379238 0.0753702631935 77.5340307805 50.2505604681 c 128,-1,32
 26.5446823229 100.425750673 26.5446823229 100.425750673 25.21484375 171.736328125 c 0,33,34
 25 173.369140625 25 173.369140625 25 175 c 0,35,-1
 25 175.030273438 l 0,36,-1
 25 175.0625 l 0,37,38
 25.0670329095 222.098699747 25.0670329095 222.098699747 48.1431200502 261.900153376 c 128,-1,39
 71.2192071909 301.701607006 71.2192071909 301.701607006 110.173828125 325 c 1,40,41
 71.2192071909 348.298392994 71.2192071909 348.298392994 48.1431200502 388.099846624 c 128,-1,42
 25.0670329095 427.901300253 25.0670329095 427.901300253 25 474.9375 c 0,43,-1
 25 474.967773438 l 0,44,-1
 25 475 l 0,45,46
 25 476.630859375 25 476.630859375 25.21484375 478.263671875 c 0,47,48
 26.5446823229 549.574249327 26.5446823229 549.574249327 77.5340307805 599.749439532 c 128,-1,49
 128.523379238 649.924629737 128.523379238 649.924629737 200 650 c 2,0,-1
200 600 m 2,50,51
 148 600 148 600 111.5 563.5 c 128,-1,52
 75 527 75 527 75 475 c 128,-1,53
 75 423 75 423 111.5 386.5 c 128,-1,54
 148 350 148 350 200 350 c 2,55,-1
 250 350 l 1,56,-1
 300 350 l 2,57,58
 352 350 352 350 388.5 386.5 c 128,-1,59
 425 423 425 423 425 475 c 128,-1,60
 425 527 425 527 388.5 563.5 c 128,-1,61
 352 600 352 600 300 600 c 2,62,-1
 250 600 l 1,63,-1
 200 600 l 2,50,51
200 300 m 2,64,65
 148 300 148 300 111.5 263.5 c 128,-1,66
 75 227 75 227 75 175 c 128,-1,67
 75 123 75 123 111.5 86.5 c 128,-1,68
 148 50 148 50 200 50 c 2,69,-1
 250 50 l 1,70,-1
 300 50 l 2,71,72
 352 50 352 50 388.5 86.5 c 128,-1,73
 425 123 425 123 425 175 c 128,-1,74
 425 227 425 227 388.5 263.5 c 128,-1,75
 352 300 352 300 300 300 c 2,76,-1
 250 300 l 1,77,-1
 200 300 l 2,64,65
EndSplineSet
EndChar

StartChar: parenleft
Encoding: 40 40 2
Width: 500
VWidth: 1000
Flags: W
LayerCount: 2
Fore
SplineSet
350 550 m 0,0,1
 360 550 360 550 367.5 542.5 c 128,-1,2
 375 535 375 535 375 525 c 128,-1,3
 375 515 375 515 367.5 507.5 c 128,-1,4
 360 500 360 500 350 500 c 0,5,6
 278 500 278 500 226.5 448.5 c 128,-1,7
 175 397 175 397 175 325 c 2,8,-1
 175 125 l 2,9,10
 175 53 175 53 226.5 1.5 c 128,-1,11
 278 -50 278 -50 350 -50 c 0,12,13
 360 -50 360 -50 367.5 -57.5 c 128,-1,14
 375 -65 375 -65 375 -75 c 128,-1,15
 375 -85 375 -85 367.5 -92.5 c 128,-1,16
 360 -100 360 -100 350 -100 c 0,17,18
 348.369140625 -100 348.369140625 -100 346.736328125 -99.78515625 c 0,19,20
 254.729938985 -98.4504556261 254.729938985 -98.4504556261 189.904125969 -32.8105702802 c 128,-1,21
 125.078312952 32.8293150656 125.078312952 32.8293150656 125 125 c 1,22,-1
 125 175 l 0,23,24
 125 225 125 225 125 275 c 0,25,-1
 125 325 l 2,26,27
 125.078312952 417.170684934 125.078312952 417.170684934 189.904125969 482.81057028 c 128,-1,28
 254.729938985 548.450455626 254.729938985 548.450455626 346.736328125 549.78515625 c 0,29,30
 348.369140625 550 348.369140625 550 350 550 c 0,0,1
EndSplineSet
EndChar

StartChar: parenright
Encoding: 41 41 3
Width: 500
VWidth: 1000
Flags: W
LayerCount: 2
Fore
SplineSet
150 550 m 0,0,1
 151.630859375 550 151.630859375 550 153.263671875 549.78515625 c 0,2,3
 245.270061015 548.450455626 245.270061015 548.450455626 310.095874031 482.81057028 c 128,-1,4
 374.921687048 417.170684934 374.921687048 417.170684934 375 325 c 2,5,-1
 375 275 l 0,6,7
 375 225 375 225 375 175 c 0,8,-1
 375 125 l 1,9,10
 374.921687048 32.8293150656 374.921687048 32.8293150656 310.095874031 -32.8105702802 c 128,-1,11
 245.270061015 -98.4504556261 245.270061015 -98.4504556261 153.263671875 -99.78515625 c 0,12,13
 151.630859375 -100 151.630859375 -100 150 -100 c 0,14,15
 140 -100 140 -100 132.5 -92.5 c 128,-1,16
 125 -85 125 -85 125 -75 c 128,-1,17
 125 -65 125 -65 132.5 -57.5 c 128,-1,18
 140 -50 140 -50 150 -50 c 0,19,20
 222 -50 222 -50 273.5 1.5 c 128,-1,21
 325 53 325 53 325 125 c 2,22,-1
 325 325 l 2,23,24
 325 397 325 397 273.5 448.5 c 128,-1,25
 222 500 222 500 150 500 c 0,26,27
 140 500 140 500 132.5 507.5 c 128,-1,28
 125 515 125 515 125 525 c 128,-1,29
 125 535 125 535 132.5 542.5 c 128,-1,30
 140 550 140 550 150 550 c 0,0,1
EndSplineSet
EndChar

StartChar: l
Encoding: 108 108 4
Width: 500
VWidth: 1000
Flags: W
LayerCount: 2
Fore
SplineSet
150 650 m 2,0,-1
 250 650 l 2,1,2
 260 650 260 650 267.5 642.5 c 128,-1,3
 275 635 275 635 275 625 c 2,4,-1
 275 50 l 1,5,-1
 350 50 l 2,6,7
 360 50 360 50 367.5 42.5 c 128,-1,8
 375 35 375 35 375 25 c 128,-1,9
 375 15 375 15 367.5 7.5 c 128,-1,10
 360 0 360 0 350 0 c 2,11,-1
 150 0 l 2,12,13
 140 0 140 0 132.5 7.5 c 128,-1,14
 125 15 125 15 125 25 c 128,-1,15
 125 35 125 35 132.5 42.5 c 128,-1,16
 140 50 140 50 150 50 c 2,17,-1
 225 50 l 1,18,-1
 225 600 l 1,19,-1
 150 600 l 2,20,21
 140 600 140 600 132.5 607.5 c 128,-1,22
 125 615 125 615 125 625 c 128,-1,23
 125 635 125 635 132.5 642.5 c 128,-1,24
 140 650 140 650 150 650 c 2,0,-1
EndSplineSet
EndChar

StartChar: Y
Encoding: 89 89 5
Width: 500
VWidth: 1000
Flags: W
LayerCount: 2
Fore
SplineSet
50 650 m 128,-1,1
 60 650 60 650 67.5 642.5 c 128,-1,2
 75 635 75 635 75 625 c 2,3,-1
 75 425 l 2,4,5
 75 353 75 353 126.5 301.5 c 128,-1,6
 178 250 178 250 250 250 c 128,-1,7
 322 250 322 250 373.5 301.5 c 128,-1,8
 425 353 425 353 425 425 c 2,9,-1
 425 625 l 2,10,11
 425 635 425 635 432.5 642.5 c 128,-1,12
 440 650 440 650 450 650 c 128,-1,13
 460 650 460 650 467.5 642.5 c 128,-1,14
 475 635 475 635 475 625 c 2,15,-1
 475 225 l 0,16,17
 475 223.369140625 475 223.369140625 474.78515625 221.736328125 c 0,18,19
 473.450455626 129.729938985 473.450455626 129.729938985 407.81057028 64.9041259686 c 128,-1,20
 342.170684934 0.078312951927 342.170684934 0.078312951927 250 0 c 2,21,-1
 50 0 l 2,22,23
 40 0 40 0 32.5 7.5 c 128,-1,24
 25 15 25 15 25 25 c 128,-1,25
 25 35 25 35 32.5 42.5 c 128,-1,26
 40 50 40 50 50 50 c 2,27,-1
 250 50 l 2,28,29
 322 50 322 50 373.5 101.5 c 128,-1,30
 425 153 425 153 425 225 c 2,31,-1
 425.017578125 239.678819444 l 0,32,33
 425.03515625 254.357638889 425.03515625 254.357638889 425.03515625 269.002170139 c 128,-1,34
 425.03515625 283.646701389 425.03515625 283.646701389 425 283.578125 c 0,35,36
 393.46254716 244.553400802 393.46254716 244.553400802 347.787300833 222.276700401 c 128,-1,37
 302.112054505 200 302.112054505 200 250 200 c 0,38,39
 157 200 157 200 91 266 c 128,-1,40
 25 332 25 332 25 425 c 2,41,-1
 25 625 l 2,42,43
 25 635 25 635 32.5 642.5 c 128,-1,0
 40 650 40 650 50 650 c 128,-1,1
EndSplineSet
EndChar

StartChar: q
Encoding: 113 113 6
Width: 500
VWidth: 1000
Flags: W
LayerCount: 2
Fore
SplineSet
250 450 m 0,0,1
 302.112054505 450 302.112054505 450 347.787300833 427.723299599 c 128,-1,2
 393.46254716 405.446599198 393.46254716 405.446599198 425 366.421875 c 1,3,-1
 425 425 l 2,4,5
 425 435 425 435 432.5 442.5 c 128,-1,6
 440 450 440 450 450 450 c 128,-1,7
 460 450 460 450 467.5 442.5 c 128,-1,8
 475 435 475 435 475 425 c 2,9,-1
 475 -175 l 2,10,11
 475 -185 475 -185 467.5 -192.5 c 128,-1,12
 460 -200 460 -200 450 -200 c 128,-1,13
 440 -200 440 -200 432.5 -192.5 c 128,-1,14
 425 -185 425 -185 425 -175 c 2,15,-1
 425.017578125 -110.321180556 l 0,16,17
 425.03515625 -45.6423611111 425.03515625 -45.6423611111 425.03515625 19.0021701389 c 128,-1,18
 425.03515625 83.6467013889 425.03515625 83.6467013889 425 83.578125 c 0,19,20
 393.46254716 44.5534008021 393.46254716 44.5534008021 347.787300833 22.2767004011 c 128,-1,21
 302.112054505 0 302.112054505 0 250 0 c 0,22,23
 157 0 157 0 91 66 c 128,-1,24
 25 132 25 132 25 225 c 128,-1,25
 25 318 25 318 91 384 c 128,-1,26
 157 450 157 450 250 450 c 0,0,1
250 400 m 128,-1,28
 178 400 178 400 126.5 348.5 c 128,-1,29
 75 297 75 297 75 225 c 128,-1,30
 75 153 75 153 126.5 101.5 c 128,-1,31
 178 50 178 50 250 50 c 128,-1,32
 322 50 322 50 373.5 101.5 c 128,-1,33
 425 153 425 153 425 225 c 128,-1,34
 425 297 425 297 373.5 348.5 c 128,-1,27
 322 400 322 400 250 400 c 128,-1,28
EndSplineSet
EndChar

StartChar: e
Encoding: 101 101 7
Width: 500
VWidth: 1000
Flags: W
LayerCount: 2
Fore
SplineSet
250 450 m 0,0,1
 342.170684934 449.921687048 342.170684934 449.921687048 407.81057028 385.095874031 c 128,-1,2
 473.450455626 320.270061015 473.450455626 320.270061015 474.78515625 228.263671875 c 0,3,4
 475 226.630859375 475 226.630859375 475 225 c 0,5,6
 475 215 475 215 467.5 207.5 c 128,-1,7
 460 200 460 200 450 200 c 2,8,-1
 76.794921875 200 l 1,9,10
 86.0237142203 136.060655383 86.0237142203 136.060655383 135.214306972 93.0303276913 c 128,-1,11
 184.404899723 50 184.404899723 50 250 50 c 0,12,13
 322.390321214 50 322.390321214 50 373.625 101.13671875 c 2,14,-1
 373.744140625 101.255859375 l 1,15,16
 381.0703125 108.58203125 381.0703125 108.58203125 391.42578125 108.58203125 c 128,-1,17
 401.7734375 108.58203125 401.7734375 108.58203125 409.099609375 101.255859375 c 128,-1,18
 416.42578125 93.9296875 416.42578125 93.9296875 416.42578125 83.57421875 c 128,-1,19
 416.42578125 73.2265625 416.42578125 73.2265625 409.099609375 65.900390625 c 0,20,21
 407.940345177 64.7411264273 407.940345177 64.7411264273 406.640625 63.744140625 c 0,22,23
 341.245624942 0.109793387946 341.245624942 0.109793387946 250 0 c 0,24,25
 157 0 157 0 91 66 c 128,-1,26
 25 132 25 132 25 225 c 128,-1,27
 25 318 25 318 91 384 c 128,-1,28
 157 450 157 450 250 450 c 0,0,1
250 400 m 128,-1,30
 184.404899723 400 184.404899723 400 135.214306972 356.969672309 c 128,-1,31
 86.0237142203 313.939344617 86.0237142203 313.939344617 76.794921875 250 c 1,32,-1
 423.205078125 250 l 1,33,34
 413.97628578 313.939344617 413.97628578 313.939344617 364.785693028 356.969672309 c 128,-1,29
 315.595100277 400 315.595100277 400 250 400 c 128,-1,30
EndSplineSet
EndChar

StartChar: d
Encoding: 100 100 8
Width: 500
VWidth: 1000
Flags: W
LayerCount: 2
Fore
SplineSet
450 650 m 128,-1,1
 460 650 460 650 467.5 642.5 c 128,-1,2
 475 635 475 635 475 625 c 2,3,-1
 475 25 l 2,4,5
 475 15 475 15 467.5 7.5 c 128,-1,6
 460 0 460 0 450 0 c 128,-1,7
 440 0 440 0 432.5 7.5 c 128,-1,8
 425 15 425 15 425 25 c 2,9,-1
 425.017578125 39.6788194444 l 0,10,11
 425.03515625 54.3576388889 425.03515625 54.3576388889 425.03515625 69.0021701389 c 128,-1,12
 425.03515625 83.6467013889 425.03515625 83.6467013889 425 83.578125 c 0,13,14
 393.46254716 44.5534008021 393.46254716 44.5534008021 347.787300833 22.2767004011 c 128,-1,15
 302.112054505 0 302.112054505 0 250 0 c 0,16,17
 157 0 157 0 91 66 c 128,-1,18
 25 132 25 132 25 225 c 128,-1,19
 25 318 25 318 91 384 c 128,-1,20
 157 450 157 450 250 450 c 0,21,22
 302.112054505 450 302.112054505 450 347.787300833 427.723299599 c 128,-1,23
 393.46254716 405.446599198 393.46254716 405.446599198 425 366.421875 c 1,24,-1
 425 625 l 2,25,26
 425 635 425 635 432.5 642.5 c 128,-1,0
 440 650 440 650 450 650 c 128,-1,1
250 400 m 128,-1,28
 178 400 178 400 126.5 348.5 c 128,-1,29
 75 297 75 297 75 225 c 128,-1,30
 75 153 75 153 126.5 101.5 c 128,-1,31
 178 50 178 50 250 50 c 128,-1,32
 322 50 322 50 373.5 101.5 c 128,-1,33
 425 153 425 153 425 225 c 128,-1,34
 425 297 425 297 373.5 348.5 c 128,-1,27
 322 400 322 400 250 400 c 128,-1,28
EndSplineSet
EndChar

StartChar: p
Encoding: 112 112 9
Width: 500
VWidth: 1000
Flags: W
LayerCount: 2
Fore
SplineSet
50 450 m 128,-1,1
 60 450 60 450 67.5 442.5 c 128,-1,2
 75 435 75 435 75 425 c 2,3,-1
 74.982421875 410.321180556 l 0,4,5
 74.96484375 395.642361111 74.96484375 395.642361111 74.96484375 380.997829861 c 128,-1,6
 74.96484375 366.353298611 74.96484375 366.353298611 75 366.421875 c 0,7,8
 106.53745284 405.446599198 106.53745284 405.446599198 152.212699167 427.723299599 c 128,-1,9
 197.887945495 450 197.887945495 450 250 450 c 0,10,11
 343 450 343 450 409 384 c 128,-1,12
 475 318 475 318 475 225 c 128,-1,13
 475 132 475 132 409 66 c 128,-1,14
 343 0 343 0 250 0 c 0,15,16
 197.887945495 0 197.887945495 0 152.212699167 22.2767004011 c 128,-1,17
 106.53745284 44.5534008021 106.53745284 44.5534008021 75 83.578125 c 1,18,-1
 75 -175 l 2,19,20
 75 -185 75 -185 67.5 -192.5 c 128,-1,21
 60 -200 60 -200 50 -200 c 128,-1,22
 40 -200 40 -200 32.5 -192.5 c 128,-1,23
 25 -185 25 -185 25 -175 c 2,24,-1
 25 425 l 2,25,26
 25 435 25 435 32.5 442.5 c 128,-1,0
 40 450 40 450 50 450 c 128,-1,1
250 400 m 128,-1,28
 178 400 178 400 126.5 348.5 c 128,-1,29
 75 297 75 297 75 225 c 128,-1,30
 75 153 75 153 126.5 101.5 c 128,-1,31
 178 50 178 50 250 50 c 128,-1,32
 322 50 322 50 373.5 101.5 c 128,-1,33
 425 153 425 153 425 225 c 128,-1,34
 425 297 425 297 373.5 348.5 c 128,-1,27
 322 400 322 400 250 400 c 128,-1,28
EndSplineSet
EndChar

StartChar: X
Encoding: 88 88 10
Width: 500
VWidth: 1000
Flags: W
LayerCount: 2
Fore
SplineSet
50 650 m 0,0,1
 63.3751024059 649.992473212 63.3751024059 649.992473212 70.791015625 638.861328125 c 1,2,-1
 70.80078125 638.8671875 l 1,3,-1
 70.89453125 638.7265625 l 1,4,-1
 250 370.068359375 l 1,5,-1
 429.19921875 638.8671875 l 1,6,-1
 429.208984375 638.861328125 l 0,7,8
 436.624897594 649.992473212 436.624897594 649.992473212 450 650 c 0,9,10
 460 650 460 650 467.5 642.5 c 128,-1,11
 475 635 475 635 475 625 c 0,12,13
 474.994221301 617.432793588 474.994221301 617.432793588 470.79296875 611.138671875 c 1,14,-1
 470.80078125 611.1328125 l 1,15,-1
 280.044921875 325 l 1,16,-1
 470.80078125 38.8671875 l 1,17,-1
 470.79296875 38.861328125 l 1,18,19
 474.994221301 32.5672064119 474.994221301 32.5672064119 475 25 c 0,20,21
 475 15 475 15 467.5 7.5 c 128,-1,22
 460 0 460 0 450 0 c 0,23,24
 436.624897594 0.00752678807308 436.624897594 0.00752678807308 429.208984375 11.138671875 c 1,25,-1
 429.19921875 11.1328125 l 1,26,-1
 250 279.931640625 l 1,27,-1
 70.80078125 11.1328125 l 1,28,-1
 70.791015625 11.138671875 l 0,29,30
 63.3751024059 0.00752678807308 63.3751024059 0.00752678807308 50 0 c 0,31,32
 40 0 40 0 32.5 7.5 c 128,-1,33
 25 15 25 15 25 25 c 0,34,35
 25.0057786991 32.5672064119 25.0057786991 32.5672064119 29.20703125 38.861328125 c 1,36,-1
 29.19921875 38.8671875 l 1,37,-1
 219.955078125 325 l 1,38,-1
 29.29296875 610.9921875 l 1,39,-1
 29.19921875 611.1328125 l 1,40,-1
 29.20703125 611.138671875 l 1,41,42
 25.0057786991 617.432793588 25.0057786991 617.432793588 25 625 c 0,43,44
 25 635 25 635 32.5 642.5 c 128,-1,45
 40 650 40 650 50 650 c 0,0,1
EndSplineSet
EndChar

StartChar: k
Encoding: 107 107 11
Width: 500
VWidth: 1000
Flags: W
LayerCount: 2
Fore
SplineSet
50 650 m 128,-1,1
 60 650 60 650 67.5 642.5 c 128,-1,2
 75 635 75 635 75 625 c 2,3,-1
 75 85.35546875 l 1,4,-1
 432.322265625 442.677734375 l 1,5,6
 439.64453125 450 439.64453125 450 450 450 c 0,7,8
 460 450 460 450 467.5 442.5 c 128,-1,9
 475 435 475 435 475 425 c 0,10,11
 475 414.64453125 475 414.64453125 467.677734375 407.322265625 c 2,12,-1
 285.35546875 225 l 1,13,-1
 467.677734375 42.677734375 l 1,14,15
 475 35.35546875 475 35.35546875 475 25 c 0,16,17
 475 15 475 15 467.5 7.5 c 128,-1,18
 460 0 460 0 450 0 c 0,19,20
 439.64453125 0 439.64453125 0 432.322265625 7.322265625 c 2,21,-1
 250 189.64453125 l 1,22,-1
 67.677734375 7.322265625 l 1,23,24
 60.35546875 0 60.35546875 0 50 0 c 0,25,26
 40 0 40 0 32.5 7.5 c 128,-1,27
 25 15 25 15 25 25 c 2,28,-1
 25 625 l 2,29,30
 25 635 25 635 32.5 642.5 c 128,-1,0
 40 650 40 650 50 650 c 128,-1,1
EndSplineSet
EndChar

StartChar: braceright
Encoding: 125 125 12
Width: 500
VWidth: 1000
Flags: W
LayerCount: 2
Fore
SplineSet
150 550 m 2,0,-1
 250 550 l 2,1,2
 260 550 260 550 267.5 542.5 c 128,-1,3
 275 535 275 535 275 525 c 2,4,-1
 275 250 l 1,5,-1
 350 250 l 2,6,7
 360 250 360 250 367.5 242.5 c 128,-1,8
 375 235 375 235 375 225 c 128,-1,9
 375 215 375 215 367.5 207.5 c 128,-1,10
 360 200 360 200 350 200 c 2,11,-1
 275 200 l 1,12,-1
 275 131 l 0,13,14
 275 62 275 62 275 -6.5 c 0,15,-1
 275 -75 l 1,16,17
 275 -84.4541455776 275 -84.4541455776 268.752722772 -91.5112224774 c 128,-1,18
 262.505445544 -98.5682993772 262.505445544 -98.5682993772 253.263671875 -99.78515625 c 0,19,20
 251.630859375 -100 251.630859375 -100 250 -100 c 2,21,-1
 150 -100 l 2,22,23
 140 -100 140 -100 132.5 -92.5 c 128,-1,24
 125 -85 125 -85 125 -75 c 128,-1,25
 125 -65 125 -65 132.5 -57.5 c 128,-1,26
 140 -50 140 -50 150 -50 c 2,27,-1
 225 -50 l 1,28,-1
 225 500 l 1,29,-1
 150 500 l 2,30,31
 140 500 140 500 132.5 507.5 c 128,-1,32
 125 515 125 515 125 525 c 128,-1,33
 125 535 125 535 132.5 542.5 c 128,-1,34
 140 550 140 550 150 550 c 2,0,-1
EndSplineSet
EndChar

StartChar: f
Encoding: 102 102 13
Width: 500
VWidth: 1000
Flags: W
LayerCount: 2
Fore
SplineSet
450 650 m 0,0,1
 460 650 460 650 467.5 642.5 c 128,-1,2
 475 635 475 635 475 625 c 128,-1,3
 475 615 475 615 467.5 607.5 c 128,-1,4
 460 600 460 600 450 600 c 0,5,6
 384.404899723 600 384.404899723 600 335.214306972 556.969672309 c 128,-1,7
 286.02371422 513.939344617 286.02371422 513.939344617 276.794921875 450 c 1,8,-1
 450 450 l 2,9,10
 460 450 460 450 467.5 442.5 c 128,-1,11
 475 435 475 435 475 425 c 128,-1,12
 475 415 475 415 467.5 407.5 c 128,-1,13
 460 400 460 400 450 400 c 2,14,-1
 275 400 l 1,15,-1
 275 50 l 1,16,-1
 350 50 l 2,17,18
 360 50 360 50 367.5 42.5 c 128,-1,19
 375 35 375 35 375 25 c 128,-1,20
 375 15 375 15 367.5 7.5 c 128,-1,21
 360 0 360 0 350 0 c 2,22,-1
 150 0 l 2,23,24
 140 0 140 0 132.5 7.5 c 128,-1,25
 125 15 125 15 125 25 c 128,-1,26
 125 35 125 35 132.5 42.5 c 128,-1,27
 140 50 140 50 150 50 c 2,28,-1
 225 50 l 1,29,-1
 225 400 l 1,30,-1
 50 400 l 2,31,32
 40 400 40 400 32.5 407.5 c 128,-1,33
 25 415 25 415 25 425 c 128,-1,34
 25 435 25 435 32.5 442.5 c 128,-1,35
 40 450 40 450 50 450 c 2,36,-1
 94.1131184896 450.051866319 l 0,37,38
 138.226236979 450.103732639 138.226236979 450.103732639 182.32438151 450.103732639 c 128,-1,39
 226.422526042 450.103732639 226.422526042 450.103732639 226.392578125 450 c 1,40,41
 235.829953654 533.75753566 235.829953654 533.75753566 298.688186315 591.154296734 c 128,-1,42
 361.546418975 648.551057808 361.546418975 648.551057808 446.72265625 649.783203125 c 0,43,44
 448.355269452 650 448.355269452 650 450 650 c 0,0,1
EndSplineSet
EndChar

StartChar: r
Encoding: 114 114 14
Width: 500
VWidth: 1000
Flags: W
LayerCount: 2
Fore
SplineSet
50 450 m 128,-1,1
 60 450 60 450 67.5 442.5 c 128,-1,2
 75 435 75 435 75 425 c 2,3,-1
 74.982421875 410.321180556 l 0,4,5
 74.96484375 395.642361111 74.96484375 395.642361111 74.96484375 380.997829861 c 128,-1,6
 74.96484375 366.353298611 74.96484375 366.353298611 75 366.421875 c 0,7,8
 106.53745284 405.446599198 106.53745284 405.446599198 152.212699167 427.723299599 c 128,-1,9
 197.887945495 450 197.887945495 450 250 450 c 0,10,11
 342.170684934 449.921687048 342.170684934 449.921687048 407.81057028 385.095874031 c 128,-1,12
 473.450455626 320.270061015 473.450455626 320.270061015 474.78515625 228.263671875 c 0,13,14
 475 226.630859375 475 226.630859375 475 225 c 0,15,16
 475 215 475 215 467.5 207.5 c 128,-1,17
 460 200 460 200 450 200 c 128,-1,18
 440 200 440 200 432.5 207.5 c 128,-1,19
 425 215 425 215 425 225 c 0,20,21
 425 297 425 297 373.5 348.5 c 128,-1,22
 322 400 322 400 250 400 c 128,-1,23
 178 400 178 400 126.5 348.5 c 128,-1,24
 75 297 75 297 75 225 c 2,25,-1
 75 25 l 2,26,27
 75 15 75 15 67.5 7.5 c 128,-1,28
 60 0 60 0 50 0 c 128,-1,29
 40 0 40 0 32.5 7.5 c 128,-1,30
 25 15 25 15 25 25 c 2,31,-1
 25 425 l 2,32,33
 25 435 25 435 32.5 442.5 c 128,-1,0
 40 450 40 450 50 450 c 128,-1,1
EndSplineSet
EndChar

StartChar: s
Encoding: 115 115 15
Width: 500
VWidth: 1000
Flags: W
LayerCount: 2
Fore
SplineSet
150 450 m 2,0,-1
 450 450 l 2,1,2
 460 450 460 450 467.5 442.5 c 128,-1,3
 475 435 475 435 475 425 c 128,-1,4
 475 415 475 415 467.5 407.5 c 128,-1,5
 460 400 460 400 450 400 c 2,6,-1
 150 400 l 2,7,8
 119 400 119 400 97 378 c 128,-1,9
 75 356 75 356 75 325 c 128,-1,10
 75 294 75 294 97 272 c 128,-1,11
 119 250 119 250 150 250 c 2,12,-1
 350 250 l 2,13,14
 402 250 402 250 438.5 213.5 c 128,-1,15
 475 177 475 177 475 125 c 128,-1,16
 475 73 475 73 438.5 36.5 c 128,-1,17
 402 0 402 0 350 0 c 2,18,-1
 50 0 l 2,19,20
 40 0 40 0 32.5 7.5 c 128,-1,21
 25 15 25 15 25 25 c 128,-1,22
 25 35 25 35 32.5 42.5 c 128,-1,23
 40 50 40 50 50 50 c 2,24,-1
 350 50 l 2,25,26
 381 50 381 50 403 72 c 128,-1,27
 425 94 425 94 425 125 c 128,-1,28
 425 156 425 156 403 178 c 128,-1,29
 381 200 381 200 350 200 c 2,30,-1
 150 200 l 2,31,32
 98 200 98 200 61.5 236.5 c 128,-1,33
 25 273 25 273 25 325 c 128,-1,34
 25 377 25 377 61.5 413.5 c 128,-1,35
 98 450 98 450 150 450 c 2,0,-1
EndSplineSet
EndChar

StartChar: g
Encoding: 103 103 16
Width: 500
VWidth: 1000
Flags: W
LayerCount: 2
Fore
SplineSet
250 450 m 0,0,1
 302.112054505 450 302.112054505 450 347.787300833 427.723299599 c 128,-1,2
 393.46254716 405.446599198 393.46254716 405.446599198 425 366.421875 c 1,3,-1
 425 425 l 2,4,5
 425 435 425 435 432.5 442.5 c 128,-1,6
 440 450 440 450 450 450 c 128,-1,7
 460 450 460 450 467.5 442.5 c 128,-1,8
 475 435 475 435 475 425 c 2,9,-1
 475 25 l 0,10,11
 475 23.369140625 475 23.369140625 474.78515625 21.736328125 c 0,12,13
 473.450455626 -70.2700610148 473.450455626 -70.2700610148 407.81057028 -135.095874031 c 128,-1,14
 342.170684934 -199.921687048 342.170684934 -199.921687048 250 -200 c 2,15,-1
 50 -200 l 2,16,17
 40 -200 40 -200 32.5 -192.5 c 128,-1,18
 25 -185 25 -185 25 -175 c 128,-1,19
 25 -165 25 -165 32.5 -157.5 c 128,-1,20
 40 -150 40 -150 50 -150 c 2,21,-1
 250 -150 l 2,22,23
 322 -150 322 -150 373.5 -98.5 c 128,-1,24
 425 -47 425 -47 425 25 c 2,25,-1
 425.017578125 39.6788194444 l 0,26,27
 425.03515625 54.3576388889 425.03515625 54.3576388889 425.03515625 69.0021701389 c 128,-1,28
 425.03515625 83.6467013889 425.03515625 83.6467013889 425 83.578125 c 0,29,30
 393.46254716 44.5534008021 393.46254716 44.5534008021 347.787300833 22.2767004011 c 128,-1,31
 302.112054505 0 302.112054505 0 250 0 c 0,32,33
 157 0 157 0 91 66 c 128,-1,34
 25 132 25 132 25 225 c 128,-1,35
 25 318 25 318 91 384 c 128,-1,36
 157 450 157 450 250 450 c 0,0,1
250 400 m 128,-1,38
 178 400 178 400 126.5 348.5 c 128,-1,39
 75 297 75 297 75 225 c 128,-1,40
 75 153 75 153 126.5 101.5 c 128,-1,41
 178 50 178 50 250 50 c 128,-1,42
 322 50 322 50 373.5 101.5 c 128,-1,43
 425 153 425 153 425 225 c 128,-1,44
 425 297 425 297 373.5 348.5 c 128,-1,37
 322 400 322 400 250 400 c 128,-1,38
EndSplineSet
EndChar

StartChar: asciitilde
Encoding: 126 126 17
Width: 500
VWidth: 1000
Flags: W
LayerCount: 2
Fore
SplineSet
150 350 m 128,-1,1
 200.782435865 349.929777687 200.782435865 349.929777687 237.121197517 314.406981697 c 128,-1,2
 273.45995917 278.884185706 273.45995917 278.884185706 274.78515625 228.271484375 c 2,3,-1
 274.78515625 228.263671875 l 0,4,5
 275 226.630859375 275 226.630859375 275 225 c 0,6,7
 275 194 275 194 297 172 c 128,-1,8
 319 150 319 150 350 150 c 128,-1,9
 381 150 381 150 403 172 c 128,-1,10
 425 194 425 194 425 225 c 0,11,12
 425 235 425 235 432.5 242.5 c 128,-1,13
 440 250 440 250 450 250 c 128,-1,14
 460 250 460 250 467.5 242.5 c 128,-1,15
 475 235 475 235 475 225 c 0,16,17
 475 223.369140625 475 223.369140625 474.78515625 221.736328125 c 0,18,19
 473.46289063 171.121349576 473.46289063 171.121349576 437.123722281 135.595785891 c 128,-1,20
 400.784553932 100.070222207 400.784553932 100.070222207 350 100 c 128,-1,21
 299.217564135 100.070222313 299.217564135 100.070222313 262.878802483 135.593018303 c 128,-1,22
 226.54004083 171.115814294 226.54004083 171.115814294 225.21484375 221.728515625 c 0,23,24
 225 223.354559075 225 223.354559075 225 225 c 0,25,26
 225 256 225 256 203 278 c 128,-1,27
 181 300 181 300 150 300 c 128,-1,28
 119 300 119 300 97 278 c 128,-1,29
 75 256 75 256 75 225 c 0,30,31
 75 215 75 215 67.5 207.5 c 128,-1,32
 60 200 60 200 50 200 c 128,-1,33
 40 200 40 200 32.5 207.5 c 128,-1,34
 25 215 25 215 25 225 c 0,35,36
 25 226.630859375 25 226.630859375 25.21484375 228.263671875 c 0,37,38
 26.5371093704 278.878650424 26.5371093704 278.878650424 62.876277719 314.404214109 c 128,-1,0
 99.2154460675 349.929777793 99.2154460675 349.929777793 150 350 c 128,-1,1
EndSplineSet
EndChar

StartChar: j
Encoding: 106 106 18
Width: 500
VWidth: 1000
Flags: W
LayerCount: 2
Fore
SplineSet
350 650 m 128,-1,1
 360 650 360 650 367.5 642.5 c 128,-1,2
 375 635 375 635 375 625 c 128,-1,3
 375 615 375 615 367.5 607.5 c 128,-1,4
 360 600 360 600 350 600 c 128,-1,5
 340 600 340 600 332.5 607.5 c 128,-1,6
 325 615 325 615 325 625 c 128,-1,7
 325 635 325 635 332.5 642.5 c 128,-1,0
 340 650 340 650 350 650 c 128,-1,1
250 450 m 2,8,-1
 350 450 l 2,9,10
 360 450 360 450 367.5 442.5 c 128,-1,11
 375 435 375 435 375 425 c 2,12,-1
 375 300 l 0,13,14
 375 175 375 175 375 50 c 0,15,-1
 375 -75 l 1,16,17
 374.929777554 -125.784726933 374.929777554 -125.784726933 339.404493344 -162.123811063 c 128,-1,18
 303.879209135 -198.462895192 303.879209135 -198.462895192 253.263671875 -199.78515625 c 0,19,20
 251.630859375 -200 251.630859375 -200 250 -200 c 2,21,-1
 150 -200 l 2,22,23
 140 -200 140 -200 132.5 -192.5 c 128,-1,24
 125 -185 125 -185 125 -175 c 128,-1,25
 125 -165 125 -165 132.5 -157.5 c 128,-1,26
 140 -150 140 -150 150 -150 c 2,27,-1
 250 -150 l 2,28,29
 281 -150 281 -150 303 -128 c 128,-1,30
 325 -106 325 -106 325 -75 c 2,31,-1
 325 400 l 1,32,-1
 250 400 l 2,33,34
 240 400 240 400 232.5 407.5 c 128,-1,35
 225 415 225 415 225 425 c 128,-1,36
 225 435 225 435 232.5 442.5 c 128,-1,37
 240 450 240 450 250 450 c 2,8,-1
EndSplineSet
EndChar

StartChar: c
Encoding: 99 99 19
Width: 500
VWidth: 1000
Flags: W
LayerCount: 2
Fore
SplineSet
250 450 m 0,0,1
 341.245624942 449.890206612 341.245624942 449.890206612 406.640625 386.255859375 c 0,2,3
 407.940345177 385.258873573 407.940345177 385.258873573 409.099609375 384.099609375 c 0,4,5
 416.42578125 376.7734375 416.42578125 376.7734375 416.42578125 366.41796875 c 128,-1,6
 416.42578125 356.0703125 416.42578125 356.0703125 409.099609375 348.744140625 c 128,-1,7
 401.7734375 341.41796875 401.7734375 341.41796875 391.41796875 341.41796875 c 128,-1,8
 381.0703125 341.41796875 381.0703125 341.41796875 373.744140625 348.744140625 c 2,9,-1
 373.625 348.86328125 l 1,10,11
 322.390321214 400 322.390321214 400 250 400 c 0,12,13
 178 400 178 400 126.5 348.5 c 128,-1,14
 75 297 75 297 75 225 c 128,-1,15
 75 153 75 153 126.5 101.5 c 128,-1,16
 178 50 178 50 250 50 c 0,17,18
 322.390321214 50 322.390321214 50 373.625 101.13671875 c 2,19,-1
 373.744140625 101.255859375 l 1,20,21
 381.0703125 108.58203125 381.0703125 108.58203125 391.42578125 108.58203125 c 128,-1,22
 401.7734375 108.58203125 401.7734375 108.58203125 409.099609375 101.255859375 c 128,-1,23
 416.42578125 93.9296875 416.42578125 93.9296875 416.42578125 83.57421875 c 128,-1,24
 416.42578125 73.2265625 416.42578125 73.2265625 409.099609375 65.900390625 c 0,25,26
 407.940345177 64.7411264273 407.940345177 64.7411264273 406.640625 63.744140625 c 0,27,28
 341.245624942 0.109793387946 341.245624942 0.109793387946 250 0 c 0,29,30
 157 0 157 0 91 66 c 128,-1,31
 25 132 25 132 25 225 c 128,-1,32
 25 318 25 318 91 384 c 128,-1,33
 157 450 157 450 250 450 c 0,0,1
EndSplineSet
EndChar

StartChar: w
Encoding: 119 119 20
Width: 500
VWidth: 1000
Flags: W
LayerCount: 2
Fore
SplineSet
50 450 m 128,-1,1
 60 450 60 450 67.5 442.5 c 128,-1,2
 75 435 75 435 75 425 c 2,3,-1
 75 125 l 2,4,5
 75 94 75 94 97 72 c 128,-1,6
 119 50 119 50 150 50 c 0,7,8
 154.916669653 50 154.916669653 50 159.7890625 50.642578125 c 0,9,10
 187.515285112 54.2923363422 187.515285112 54.2923363422 206.257278564 75.4643105572 c 128,-1,11
 224.999272016 96.6362847722 224.999272016 96.6362847722 225 125 c 2,12,-1
 225 200 l 0,13,14
 225 275 225 275 225 350 c 0,15,-1
 225 425 l 1,16,17
 225 434.454145578 225 434.454145578 231.247277228 441.511222477 c 128,-1,18
 237.494554456 448.568299377 237.494554456 448.568299377 246.736328125 449.78515625 c 0,19,20
 248.369140625 450 248.369140625 450 250 450 c 0,21,22
 260 450 260 450 267.5 442.5 c 128,-1,23
 275 435 275 435 275 425 c 2,24,-1
 275 350 l 0,25,26
 275 275 275 275 275 200 c 0,27,-1
 275 125 l 1,28,29
 275.000727984 96.6362847722 275.000727984 96.6362847722 293.742721436 75.4643105572 c 128,-1,30
 312.484714888 54.2923363422 312.484714888 54.2923363422 340.2109375 50.642578125 c 0,31,32
 345.083330347 50 345.083330347 50 350 50 c 128,-1,33
 354.916669653 50 354.916669653 50 359.7890625 50.642578125 c 0,34,35
 387.515285112 54.2923363422 387.515285112 54.2923363422 406.257278564 75.4643105572 c 128,-1,36
 424.999272016 96.6362847722 424.999272016 96.6362847722 425 125 c 2,37,-1
 425 200 l 0,38,39
 425 275 425 275 425 350 c 0,40,-1
 425 425 l 1,41,42
 425 434.454145578 425 434.454145578 431.247277228 441.511222477 c 128,-1,43
 437.494554456 448.568299377 437.494554456 448.568299377 446.736328125 449.78515625 c 0,44,45
 448.369140625 450 448.369140625 450 450 450 c 0,46,47
 460 450 460 450 467.5 442.5 c 128,-1,48
 475 435 475 435 475 425 c 2,49,-1
 475 125 l 0,50,51
 475 62 475 62 425 25 c 0,52,53
 392 0 392 0 350 0 c 0,54,55
 297.494878566 0.0469608107187 297.494878566 0.0469608107187 260.771484375 37.572265625 c 0,56,57
 254.969376969 43.5012348923 254.969376969 43.5012348923 250 50.146484375 c 1,58,59
 212.54554092 0.0552192849758 212.54554092 0.0552192849758 150 0 c 0,60,61
 141.945563258 0 141.945563258 0 133.95703125 1.033203125 c 0,62,63
 101.324592648 5.25617308946 101.324592648 5.25617308946 75 25 c 0,64,65
 25 62 25 62 25 125 c 2,66,-1
 25 425 l 2,67,68
 25 435 25 435 32.5 442.5 c 128,-1,0
 40 450 40 450 50 450 c 128,-1,1
EndSplineSet
EndChar

StartChar: n
Encoding: 110 110 21
Width: 500
VWidth: 1000
Flags: W
LayerCount: 2
Fore
SplineSet
50 450 m 128,-1,1
 60 450 60 450 67.5 442.5 c 128,-1,2
 75 435 75 435 75 425 c 2,3,-1
 74.982421875 410.321180556 l 0,4,5
 74.96484375 395.642361111 74.96484375 395.642361111 74.96484375 380.997829861 c 128,-1,6
 74.96484375 366.353298611 74.96484375 366.353298611 75 366.421875 c 0,7,8
 106.53745284 405.446599198 106.53745284 405.446599198 152.212699167 427.723299599 c 128,-1,9
 197.887945495 450 197.887945495 450 250 450 c 0,10,11
 343 450 343 450 409 384 c 128,-1,12
 475 318 475 318 475 225 c 2,13,-1
 475 25 l 2,14,15
 475 15 475 15 467.5 7.5 c 128,-1,16
 460 0 460 0 450 0 c 128,-1,17
 440 0 440 0 432.5 7.5 c 128,-1,18
 425 15 425 15 425 25 c 2,19,-1
 425 225 l 2,20,21
 425 297 425 297 373.5 348.5 c 128,-1,22
 322 400 322 400 250 400 c 128,-1,23
 178 400 178 400 126.5 348.5 c 128,-1,24
 75 297 75 297 75 225 c 2,25,-1
 75 25 l 2,26,27
 75 15 75 15 67.5 7.5 c 128,-1,28
 60 0 60 0 50 0 c 128,-1,29
 40 0 40 0 32.5 7.5 c 128,-1,30
 25 15 25 15 25 25 c 2,31,-1
 25 425 l 2,32,33
 25 435 25 435 32.5 442.5 c 128,-1,0
 40 450 40 450 50 450 c 128,-1,1
EndSplineSet
EndChar

StartChar: z
Encoding: 122 122 22
Width: 500
VWidth: 1000
Flags: W
LayerCount: 2
Fore
SplineSet
50 450 m 2,0,-1
 450 450 l 2,1,2
 460 450 460 450 467.5 442.5 c 128,-1,3
 475 435 475 435 475 425 c 0,4,5
 475 414.64453125 475 414.64453125 467.677734375 407.322265625 c 2,6,-1
 110.35546875 50 l 1,7,-1
 450 50 l 2,8,9
 460 50 460 50 467.5 42.5 c 128,-1,10
 475 35 475 35 475 25 c 128,-1,11
 475 15 475 15 467.5 7.5 c 128,-1,12
 460 0 460 0 450 0 c 2,13,-1
 50 0 l 2,14,15
 40 0 40 0 32.5 7.5 c 128,-1,16
 25 15 25 15 25 25 c 0,17,18
 25 35.35546875 25 35.35546875 32.322265625 42.677734375 c 2,19,-1
 389.64453125 400 l 1,20,-1
 50 400 l 2,21,22
 40 400 40 400 32.5 407.5 c 128,-1,23
 25 415 25 415 25 425 c 128,-1,24
 25 435 25 435 32.5 442.5 c 128,-1,25
 40 450 40 450 50 450 c 2,0,-1
EndSplineSet
EndChar

StartChar: m
Encoding: 109 109 23
Width: 500
VWidth: 1000
Flags: W
LayerCount: 2
Fore
SplineSet
50 450 m 128,-1,1
 60 450 60 450 67.5 442.5 c 128,-1,2
 75 435 75 435 75 425 c 1,3,4
 108 450 108 450 150 450 c 0,5,6
 212.54554092 449.944780715 212.54554092 449.944780715 250 399.853515625 c 1,7,8
 287.45445908 449.944780715 287.45445908 449.944780715 350 450 c 0,9,10
 402 450 402 450 438.5 413.5 c 128,-1,11
 475 377 475 377 475 325 c 2,12,-1
 475 25 l 2,13,14
 475 15 475 15 467.5 7.5 c 128,-1,15
 460 0 460 0 450 0 c 128,-1,16
 440 0 440 0 432.5 7.5 c 128,-1,17
 425 15 425 15 425 25 c 2,18,-1
 425 325 l 2,19,20
 425 356 425 356 403 378 c 128,-1,21
 381 400 381 400 350 400 c 128,-1,22
 319 400 319 400 297 378 c 128,-1,23
 275 356 275 356 275 325 c 2,24,-1
 275 25 l 2,25,26
 275 15 275 15 267.5 7.5 c 128,-1,27
 260 0 260 0 250 0 c 128,-1,28
 240 0 240 0 232.5 7.5 c 128,-1,29
 225 15 225 15 225 25 c 2,30,-1
 225 325 l 2,31,32
 225 356 225 356 203 378 c 128,-1,33
 181 400 181 400 150 400 c 128,-1,34
 119 400 119 400 97 378 c 128,-1,35
 75 356 75 356 75 325 c 2,36,-1
 75 25 l 2,37,38
 75 15 75 15 67.5 7.5 c 128,-1,39
 60 0 60 0 50 0 c 128,-1,40
 40 0 40 0 32.5 7.5 c 128,-1,41
 25 15 25 15 25 25 c 2,42,-1
 25 425 l 2,43,44
 25 435 25 435 32.5 442.5 c 128,-1,0
 40 450 40 450 50 450 c 128,-1,1
EndSplineSet
EndChar

StartChar: v
Encoding: 118 118 24
Width: 500
VWidth: 1000
Flags: W
LayerCount: 2
Fore
SplineSet
50 450 m 0,0,1
 65.451171875 450 65.451171875 450 72.361328125 436.1796875 c 2,2,-1
 250 80.90234375 l 1,3,-1
 427.638671875 436.1796875 l 0,4,5
 434.548828125 450 434.548828125 450 450 450 c 0,6,7
 460 450 460 450 467.5 442.5 c 128,-1,8
 475 435 475 435 475 425 c 0,9,10
 475 419.099191254 475 419.099191254 472.361328125 413.8203125 c 2,11,-1
 272.361328125 13.8203125 l 0,12,13
 265.451171875 0 265.451171875 0 250 0 c 128,-1,14
 234.548828125 0 234.548828125 0 227.638671875 13.8203125 c 2,15,-1
 177.635416667 113.825954861 l 0,16,17
 127.632161458 213.831597222 127.632161458 213.831597222 77.6321614583 313.831597222 c 128,-1,18
 27.6321614583 413.831597222 27.6321614583 413.831597222 27.638671875 413.8203125 c 1,19,20
 25 419.099191254 25 419.099191254 25 425 c 0,21,22
 25 435 25 435 32.5 442.5 c 128,-1,23
 40 450 40 450 50 450 c 0,0,1
EndSplineSet
EndChar

StartChar: b
Encoding: 98 98 25
Width: 500
VWidth: 1000
Flags: W
LayerCount: 2
Fore
SplineSet
50 650 m 128,-1,1
 60 650 60 650 67.5 642.5 c 128,-1,2
 75 635 75 635 75 625 c 2,3,-1
 74.982421875 560.321180556 l 0,4,5
 74.96484375 495.642361111 74.96484375 495.642361111 74.96484375 430.997829861 c 128,-1,6
 74.96484375 366.353298611 74.96484375 366.353298611 75 366.421875 c 0,7,8
 106.53745284 405.446599198 106.53745284 405.446599198 152.212699167 427.723299599 c 128,-1,9
 197.887945495 450 197.887945495 450 250 450 c 0,10,11
 343 450 343 450 409 384 c 128,-1,12
 475 318 475 318 475 225 c 128,-1,13
 475 132 475 132 409 66 c 128,-1,14
 343 0 343 0 250 0 c 0,15,16
 197.887945495 0 197.887945495 0 152.212699167 22.2767004011 c 128,-1,17
 106.53745284 44.5534008021 106.53745284 44.5534008021 75 83.578125 c 1,18,-1
 75 25 l 2,19,20
 75 15 75 15 67.5 7.5 c 128,-1,21
 60 0 60 0 50 0 c 128,-1,22
 40 0 40 0 32.5 7.5 c 128,-1,23
 25 15 25 15 25 25 c 2,24,-1
 25 625 l 2,25,26
 25 635 25 635 32.5 642.5 c 128,-1,0
 40 650 40 650 50 650 c 128,-1,1
250 400 m 128,-1,28
 178 400 178 400 126.5 348.5 c 128,-1,29
 75 297 75 297 75 225 c 128,-1,30
 75 153 75 153 126.5 101.5 c 128,-1,31
 178 50 178 50 250 50 c 128,-1,32
 322 50 322 50 373.5 101.5 c 128,-1,33
 425 153 425 153 425 225 c 128,-1,34
 425 297 425 297 373.5 348.5 c 128,-1,27
 322 400 322 400 250 400 c 128,-1,28
EndSplineSet
EndChar

StartChar: t
Encoding: 116 116 26
Width: 500
VWidth: 1000
Flags: W
LayerCount: 2
Fore
SplineSet
250 650 m 128,-1,1
 260 650 260 650 267.5 642.5 c 128,-1,2
 275 635 275 635 275 625 c 2,3,-1
 275 450 l 1,4,-1
 450 450 l 2,5,6
 460 450 460 450 467.5 442.5 c 128,-1,7
 475 435 475 435 475 425 c 128,-1,8
 475 415 475 415 467.5 407.5 c 128,-1,9
 460 400 460 400 450 400 c 2,10,-1
 275 400 l 1,11,-1
 275 125 l 2,12,13
 275 94 275 94 297 72 c 128,-1,14
 319 50 319 50 350 50 c 2,15,-1
 450 50 l 2,16,17
 460 50 460 50 467.5 42.5 c 128,-1,18
 475 35 475 35 475 25 c 128,-1,19
 475 15 475 15 467.5 7.5 c 128,-1,20
 460 0 460 0 450 0 c 2,21,-1
 350 0 l 0,22,23
 348.369140625 0 348.369140625 0 346.736328125 0.21484375 c 0,24,25
 296.121349576 1.53710937042 296.121349576 1.53710937042 260.595785891 37.876277719 c 128,-1,26
 225.070222207 74.2154460675 225.070222207 74.2154460675 225 125 c 2,27,-1
 225 400 l 1,28,-1
 50 400 l 2,29,30
 40 400 40 400 32.5 407.5 c 128,-1,31
 25 415 25 415 25 425 c 128,-1,32
 25 435 25 435 32.5 442.5 c 128,-1,33
 40 450 40 450 50 450 c 2,34,-1
 225 450 l 1,35,-1
 225 625 l 2,36,37
 225 635 225 635 232.5 642.5 c 128,-1,0
 240 650 240 650 250 650 c 128,-1,1
EndSplineSet
EndChar

StartChar: grave
Encoding: 96 96 27
Width: 500
VWidth: 1000
Flags: W
LayerCount: 2
Fore
SplineSet
150 650 m 0,0,1
 160.35546875 650 160.35546875 650 167.677734375 642.677734375 c 2,2,-1
 267.677734375 542.677734375 l 1,3,4
 275 535.35546875 275 535.35546875 275 525 c 0,5,6
 275 515 275 515 267.5 507.5 c 128,-1,7
 260 500 260 500 250 500 c 0,8,9
 239.64453125 500 239.64453125 500 232.322265625 507.322265625 c 2,10,-1
 132.322265625 607.322265625 l 1,11,12
 125 614.64453125 125 614.64453125 125 625 c 0,13,14
 125 635 125 635 132.5 642.5 c 128,-1,15
 140 650 140 650 150 650 c 0,0,1
EndSplineSet
EndChar

StartChar: H
Encoding: 72 72 28
Width: 500
VWidth: 1000
Flags: W
LayerCount: 2
Fore
SplineSet
50 650 m 128,-1,1
 60 650 60 650 67.5 642.5 c 128,-1,2
 75 635 75 635 75 625 c 2,3,-1
 75 350 l 1,4,-1
 425 350 l 1,5,-1
 425 625 l 2,6,7
 425 635 425 635 432.5 642.5 c 128,-1,8
 440 650 440 650 450 650 c 128,-1,9
 460 650 460 650 467.5 642.5 c 128,-1,10
 475 635 475 635 475 625 c 2,11,-1
 475 25 l 2,12,13
 475 15 475 15 467.5 7.5 c 128,-1,14
 460 0 460 0 450 0 c 128,-1,15
 440 0 440 0 432.5 7.5 c 128,-1,16
 425 15 425 15 425 25 c 2,17,-1
 425 300 l 1,18,-1
 75 300 l 1,19,-1
 75 25 l 2,20,21
 75 15 75 15 67.5 7.5 c 128,-1,22
 60 0 60 0 50 0 c 128,-1,23
 40 0 40 0 32.5 7.5 c 128,-1,24
 25 15 25 15 25 25 c 2,25,-1
 25 625 l 2,26,27
 25 635 25 635 32.5 642.5 c 128,-1,0
 40 650 40 650 50 650 c 128,-1,1
EndSplineSet
EndChar

StartChar: braceleft
Encoding: 123 123 29
Width: 500
VWidth: 1000
Flags: W
LayerCount: 2
Fore
SplineSet
350 550 m 2,0,1
 360 550 360 550 367.5 542.5 c 128,-1,2
 375 535 375 535 375 525 c 128,-1,3
 375 515 375 515 367.5 507.5 c 128,-1,4
 360 500 360 500 350 500 c 2,5,-1
 275 500 l 1,6,-1
 275 -50 l 1,7,-1
 350 -50 l 2,8,9
 360 -50 360 -50 367.5 -57.5 c 128,-1,10
 375 -65 375 -65 375 -75 c 128,-1,11
 375 -85 375 -85 367.5 -92.5 c 128,-1,12
 360 -100 360 -100 350 -100 c 2,13,-1
 250 -100 l 2,14,15
 248.369140625 -100 248.369140625 -100 246.736328125 -99.78515625 c 0,16,17
 237.494554456 -98.5682993772 237.494554456 -98.5682993772 231.247277228 -91.5112224774 c 128,-1,18
 225 -84.4541455776 225 -84.4541455776 225 -75 c 1,19,-1
 225 -6.5 l 0,20,21
 225 62 225 62 225 131 c 0,22,-1
 225 200 l 1,23,-1
 150 200 l 2,24,25
 140 200 140 200 132.5 207.5 c 128,-1,26
 125 215 125 215 125 225 c 128,-1,27
 125 235 125 235 132.5 242.5 c 128,-1,28
 140 250 140 250 150 250 c 2,29,-1
 225 250 l 1,30,-1
 225 525 l 2,31,32
 225 535 225 535 232.5 542.5 c 128,-1,33
 240 550 240 550 250 550 c 2,34,-1
 350 550 l 2,0,1
EndSplineSet
EndChar

StartChar: o
Encoding: 111 111 30
Width: 500
VWidth: 1000
Flags: W
LayerCount: 2
Fore
SplineSet
250 450 m 128,-1,1
 343 450 343 450 409 384 c 128,-1,2
 475 318 475 318 475 225 c 128,-1,3
 475 132 475 132 409 66 c 128,-1,4
 343 0 343 0 250 0 c 128,-1,5
 157 0 157 0 91 66 c 128,-1,6
 25 132 25 132 25 225 c 128,-1,7
 25 318 25 318 91 384 c 128,-1,0
 157 450 157 450 250 450 c 128,-1,1
250 400 m 128,-1,9
 178 400 178 400 126.5 348.5 c 128,-1,10
 75 297 75 297 75 225 c 128,-1,11
 75 153 75 153 126.5 101.5 c 128,-1,12
 178 50 178 50 250 50 c 128,-1,13
 322 50 322 50 373.5 101.5 c 128,-1,14
 425 153 425 153 425 225 c 128,-1,15
 425 297 425 297 373.5 348.5 c 128,-1,8
 322 400 322 400 250 400 c 128,-1,9
EndSplineSet
EndChar

StartChar: bar
Encoding: 124 124 31
Width: 500
VWidth: 1000
Flags: W
LayerCount: 2
Fore
SplineSet
250 650 m 128,-1,1
 260 650 260 650 267.5 642.5 c 128,-1,2
 275 635 275 635 275 625 c 2,3,-1
 275 -175 l 2,4,5
 275 -185 275 -185 267.5 -192.5 c 128,-1,6
 260 -200 260 -200 250 -200 c 128,-1,7
 240 -200 240 -200 232.5 -192.5 c 128,-1,8
 225 -185 225 -185 225 -175 c 2,9,-1
 225 625 l 2,10,11
 225 635 225 635 232.5 642.5 c 128,-1,0
 240 650 240 650 250 650 c 128,-1,1
EndSplineSet
EndChar

StartChar: I
Encoding: 73 73 32
Width: 500
VWidth: 1000
Flags: W
LayerCount: 2
Fore
SplineSet
150 650 m 2,0,-1
 350 650 l 2,1,2
 360 650 360 650 367.5 642.5 c 128,-1,3
 375 635 375 635 375 625 c 128,-1,4
 375 615 375 615 367.5 607.5 c 128,-1,5
 360 600 360 600 350 600 c 2,6,-1
 275 600 l 1,7,-1
 275 50 l 1,8,-1
 350 50 l 2,9,10
 360 50 360 50 367.5 42.5 c 128,-1,11
 375 35 375 35 375 25 c 128,-1,12
 375 15 375 15 367.5 7.5 c 128,-1,13
 360 0 360 0 350 0 c 2,14,-1
 150 0 l 2,15,16
 140 0 140 0 132.5 7.5 c 128,-1,17
 125 15 125 15 125 25 c 128,-1,18
 125 35 125 35 132.5 42.5 c 128,-1,19
 140 50 140 50 150 50 c 2,20,-1
 225 50 l 1,21,-1
 225 600 l 1,22,-1
 150 600 l 2,23,24
 140 600 140 600 132.5 607.5 c 128,-1,25
 125 615 125 615 125 625 c 128,-1,26
 125 635 125 635 132.5 642.5 c 128,-1,27
 140 650 140 650 150 650 c 2,0,-1
EndSplineSet
EndChar

StartChar: a
Encoding: 97 97 33
Width: 500
VWidth: 1000
Flags: W
LayerCount: 2
Fore
SplineSet
250 450 m 0,0,1
 302.112054505 450 302.112054505 450 347.787300833 427.723299599 c 128,-1,2
 393.46254716 405.446599198 393.46254716 405.446599198 425 366.421875 c 1,3,-1
 425 425 l 2,4,5
 425 435 425 435 432.5 442.5 c 128,-1,6
 440 450 440 450 450 450 c 128,-1,7
 460 450 460 450 467.5 442.5 c 128,-1,8
 475 435 475 435 475 425 c 2,9,-1
 475 25 l 2,10,11
 475 15 475 15 467.5 7.5 c 128,-1,12
 460 0 460 0 450 0 c 128,-1,13
 440 0 440 0 432.5 7.5 c 128,-1,14
 425 15 425 15 425 25 c 2,15,-1
 425.017578125 39.6788194444 l 0,16,17
 425.03515625 54.3576388889 425.03515625 54.3576388889 425.03515625 69.0021701389 c 128,-1,18
 425.03515625 83.6467013889 425.03515625 83.6467013889 425 83.578125 c 0,19,20
 393.46254716 44.5534008021 393.46254716 44.5534008021 347.787300833 22.2767004011 c 128,-1,21
 302.112054505 0 302.112054505 0 250 0 c 0,22,23
 157 0 157 0 91 66 c 128,-1,24
 25 132 25 132 25 225 c 128,-1,25
 25 318 25 318 91 384 c 128,-1,26
 157 450 157 450 250 450 c 0,0,1
250 400 m 128,-1,28
 178 400 178 400 126.5 348.5 c 128,-1,29
 75 297 75 297 75 225 c 128,-1,30
 75 153 75 153 126.5 101.5 c 128,-1,31
 178 50 178 50 250 50 c 128,-1,32
 322 50 322 50 373.5 101.5 c 128,-1,33
 425 153 425 153 425 225 c 128,-1,34
 425 297 425 297 373.5 348.5 c 128,-1,27
 322 400 322 400 250 400 c 128,-1,28
EndSplineSet
EndChar

StartChar: u
Encoding: 117 117 34
Width: 500
VWidth: 1000
Flags: W
LayerCount: 2
Fore
SplineSet
50 450 m 128,-1,1
 60 450 60 450 67.5 442.5 c 128,-1,2
 75 435 75 435 75 425 c 2,3,-1
 75 225 l 2,4,5
 75 153 75 153 126.5 101.5 c 128,-1,6
 178 50 178 50 250 50 c 128,-1,7
 322 50 322 50 373.5 101.5 c 128,-1,8
 425 153 425 153 425 225 c 2,9,-1
 425 425 l 2,10,11
 425 435 425 435 432.5 442.5 c 128,-1,12
 440 450 440 450 450 450 c 128,-1,13
 460 450 460 450 467.5 442.5 c 128,-1,14
 475 435 475 435 475 425 c 2,15,-1
 475 25 l 2,16,17
 475 15 475 15 467.5 7.5 c 128,-1,18
 460 0 460 0 450 0 c 128,-1,19
 440 0 440 0 432.5 7.5 c 128,-1,20
 425 15 425 15 425 25 c 2,21,-1
 425.017578125 39.6788194444 l 0,22,23
 425.03515625 54.3576388889 425.03515625 54.3576388889 425.03515625 69.0021701389 c 128,-1,24
 425.03515625 83.6467013889 425.03515625 83.6467013889 425 83.578125 c 0,25,26
 393.46254716 44.5534008021 393.46254716 44.5534008021 347.787300833 22.2767004011 c 128,-1,27
 302.112054505 0 302.112054505 0 250 0 c 0,28,29
 157 0 157 0 91 66 c 128,-1,30
 25 132 25 132 25 225 c 2,31,-1
 25 425 l 2,32,33
 25 435 25 435 32.5 442.5 c 128,-1,0
 40 450 40 450 50 450 c 128,-1,1
EndSplineSet
EndChar

StartChar: underscore
Encoding: 95 95 35
Width: 500
VWidth: 1000
Flags: W
LayerCount: 2
Fore
SplineSet
50 -50 m 2,0,-1
 150 -50 l 0,1,2
 250 -50 250 -50 350 -50 c 0,3,-1
 450 -50 l 1,4,5
 459.452630211 -50 459.452630211 -50 466.50898663 -56.2444456417 c 128,-1,6
 473.565343049 -62.4888912833 473.565343049 -62.4888912833 474.78515625 -71.728515625 c 2,7,-1
 474.78515625 -71.736328125 l 0,8,9
 475 -73.369140625 475 -73.369140625 475 -75 c 128,-1,10
 475 -76.630859375 475 -76.630859375 474.78515625 -78.263671875 c 2,11,-1
 474.78515625 -78.271484375 l 1,12,13
 473.565343049 -87.5111087167 473.565343049 -87.5111087167 466.50898663 -93.7555543583 c 128,-1,14
 459.452630211 -100 459.452630211 -100 450 -100 c 2,15,-1
 350 -100 l 0,16,17
 250 -100 250 -100 150 -100 c 0,18,-1
 50 -100 l 1,19,20
 40.5473697888 -100 40.5473697888 -100 33.4910133698 -93.7555543583 c 128,-1,21
 26.4346569508 -87.5111087167 26.4346569508 -87.5111087167 25.21484375 -78.271484375 c 2,22,-1
 25.21484375 -78.263671875 l 0,23,24
 25 -76.630859375 25 -76.630859375 25 -75 c 128,-1,25
 25 -73.369140625 25 -73.369140625 25.21484375 -71.736328125 c 2,26,-1
 25.21484375 -71.728515625 l 1,27,28
 26.4346569508 -62.4888912833 26.4346569508 -62.4888912833 33.4910133698 -56.2444456417 c 128,-1,29
 40.5473697888 -50 40.5473697888 -50 50 -50 c 2,0,-1
EndSplineSet
EndChar

StartChar: K
Encoding: 75 75 36
Width: 500
VWidth: 1000
Flags: W
LayerCount: 2
Fore
SplineSet
50 650 m 128,-1,1
 60 650 60 650 67.5 642.5 c 128,-1,2
 75 635 75 635 75 625 c 2,3,-1
 75 375 l 1,4,-1
 165 442.5 l 0,5,6
 255 510 255 510 345 577.5 c 0,7,-1
 435 645 l 1,8,9
 442 650 442 650 450 650 c 0,10,11
 460 650 460 650 467.5 642.5 c 128,-1,12
 475 635 475 635 475 625 c 0,13,14
 475 612 475 612 465 605 c 2,15,-1
 91.666015625 325 l 1,16,-1
 465 45 l 0,17,18
 475 38 475 38 475 25 c 0,19,20
 475 15 475 15 467.5 7.5 c 128,-1,21
 460 0 460 0 450 0 c 0,22,23
 442 0 442 0 435 5 c 2,24,-1
 75 275 l 1,25,-1
 75 25 l 2,26,27
 75 15 75 15 67.5 7.5 c 128,-1,28
 60 0 60 0 50 0 c 128,-1,29
 40 0 40 0 32.5 7.5 c 128,-1,30
 25 15 25 15 25 25 c 2,31,-1
 25 625 l 2,32,33
 25 635 25 635 32.5 642.5 c 128,-1,0
 40 650 40 650 50 650 c 128,-1,1
EndSplineSet
EndChar

StartChar: x
Encoding: 120 120 37
Width: 500
VWidth: 1000
Flags: W
LayerCount: 2
Fore
SplineSet
50 450 m 0,0,1
 60.35546875 450 60.35546875 450 67.677734375 442.677734375 c 2,2,-1
 250 260.35546875 l 1,3,-1
 432.322265625 442.677734375 l 1,4,5
 439.64453125 450 439.64453125 450 450 450 c 0,6,7
 460 450 460 450 467.5 442.5 c 128,-1,8
 475 435 475 435 475 425 c 0,9,10
 475 414.64453125 475 414.64453125 467.677734375 407.322265625 c 2,11,-1
 285.35546875 225 l 1,12,-1
 467.677734375 42.677734375 l 1,13,14
 475 35.35546875 475 35.35546875 475 25 c 0,15,16
 475 15 475 15 467.5 7.5 c 128,-1,17
 460 0 460 0 450 0 c 0,18,19
 439.64453125 0 439.64453125 0 432.322265625 7.322265625 c 2,20,-1
 250 189.64453125 l 1,21,-1
 67.677734375 7.322265625 l 1,22,23
 60.35546875 0 60.35546875 0 50 0 c 0,24,25
 40 0 40 0 32.5 7.5 c 128,-1,26
 25 15 25 15 25 25 c 0,27,28
 25 35.35546875 25 35.35546875 32.322265625 42.677734375 c 2,29,-1
 214.64453125 225 l 1,30,-1
 32.322265625 407.322265625 l 1,31,32
 25 414.64453125 25 414.64453125 25 425 c 0,33,34
 25 435 25 435 32.5 442.5 c 128,-1,35
 40 450 40 450 50 450 c 0,0,1
EndSplineSet
EndChar

StartChar: P
Encoding: 80 80 38
Width: 500
VWidth: 1000
Flags: W
LayerCount: 2
Fore
SplineSet
50 650 m 2,0,-1
 300 650 l 2,1,2
 372 650 372 650 423.5 598.5 c 128,-1,3
 475 547 475 547 475 475 c 128,-1,4
 475 403 475 403 423.5 351.5 c 128,-1,5
 372 300 372 300 300 300 c 2,6,-1
 75 300 l 1,7,-1
 75 25 l 2,8,9
 75 15 75 15 67.5 7.5 c 128,-1,10
 60 0 60 0 50 0 c 128,-1,11
 40 0 40 0 32.5 7.5 c 128,-1,12
 25 15 25 15 25 25 c 2,13,-1
 25 625 l 2,14,15
 25 635 25 635 32.5 642.5 c 128,-1,16
 40 650 40 650 50 650 c 2,0,-1
75 600 m 1,17,-1
 75 350 l 1,18,-1
 300 350 l 2,19,20
 352 350 352 350 388.5 386.5 c 128,-1,21
 425 423 425 423 425 475 c 128,-1,22
 425 527 425 527 388.5 563.5 c 128,-1,23
 352 600 352 600 300 600 c 2,24,-1
 75 600 l 1,17,-1
EndSplineSet
EndChar

StartChar: D
Encoding: 68 68 39
Width: 500
VWidth: 1000
Flags: W
LayerCount: 2
Fore
SplineSet
50 650 m 2,0,-1
 300 650 l 2,1,2
 372 650 372 650 423.5 598.5 c 128,-1,3
 475 547 475 547 475 475 c 2,4,-1
 475 175 l 2,5,6
 475 103 475 103 423.5 51.5 c 128,-1,7
 372 0 372 0 300 0 c 2,8,-1
 50 0 l 2,9,10
 40 0 40 0 32.5 7.5 c 128,-1,11
 25 15 25 15 25 25 c 2,12,-1
 25 625 l 2,13,14
 25 635 25 635 32.5 642.5 c 128,-1,15
 40 650 40 650 50 650 c 2,0,-1
75 600 m 1,16,-1
 75 50 l 1,17,-1
 300 50 l 2,18,19
 352 50 352 50 388.5 86.5 c 128,-1,20
 425 123 425 123 425 175 c 2,21,-1
 425 475 l 2,22,23
 425 527 425 527 388.5 563.5 c 128,-1,24
 352 600 352 600 300 600 c 2,25,-1
 75 600 l 1,16,-1
EndSplineSet
EndChar

StartChar: E
Encoding: 69 69 40
Width: 500
VWidth: 1000
Flags: W
LayerCount: 2
Fore
SplineSet
50 650 m 2,0,-1
 450 650 l 2,1,2
 460 650 460 650 467.5 642.5 c 128,-1,3
 475 635 475 635 475 625 c 128,-1,4
 475 615 475 615 467.5 607.5 c 128,-1,5
 460 600 460 600 450 600 c 2,6,-1
 75 600 l 1,7,-1
 75 350 l 1,8,-1
 350 350 l 2,9,10
 360 350 360 350 367.5 342.5 c 128,-1,11
 375 335 375 335 375 325 c 0,12,13
 374.999272016 315.545667464 374.999272016 315.545667464 368.752261576 308.488671245 c 128,-1,14
 362.505251136 301.431675025 362.505251136 301.431675025 353.263671875 300.21484375 c 0,15,16
 351.630859375 300 351.630859375 300 350 300 c 2,17,-1
 75 300 l 1,18,-1
 75 50 l 1,19,-1
 450 50 l 2,20,21
 460 50 460 50 467.5 42.5 c 128,-1,22
 475 35 475 35 475 25 c 128,-1,23
 475 15 475 15 467.5 7.5 c 128,-1,24
 460 0 460 0 450 0 c 2,25,-1
 50 0 l 2,26,27
 40 0 40 0 32.5 7.5 c 128,-1,28
 25 15 25 15 25 25 c 2,29,-1
 25 625 l 2,30,31
 25 635 25 635 32.5 642.5 c 128,-1,32
 40 650 40 650 50 650 c 2,0,-1
EndSplineSet
EndChar

StartChar: Q
Encoding: 81 81 41
Width: 500
VWidth: 1000
Flags: W
LayerCount: 2
Fore
SplineSet
250 650 m 128,-1,1
 265.291400151 649.943987545 265.291400151 649.943987545 280.439453125 647.818359375 c 0,2,3
 284.466783999 647.115198018 284.466783999 647.115198018 288.439453125 646.271484375 c 0,4,5
 299.521067186 644.446536028 299.521067186 644.446536028 310.353515625 641.53125 c 0,6,7
 314.974225377 640.119651784 314.974225377 640.119651784 319.568359375 638.49609375 c 0,8,9
 329.559782521 635.320809781 329.559782521 635.320809781 339.228515625 631.22265625 c 0,10,11
 343.826099262 629.153449274 343.826099262 629.153449274 348.30859375 626.888671875 c 0,12,13
 357.685158086 622.363619516 357.685158086 622.363619516 366.607421875 616.990234375 c 0,14,15
 370.814539691 614.404396108 370.814539691 614.404396108 374.876953125 611.65625 c 0,16,17
 383.723011322 605.735556575 383.723011322 605.735556575 391.96484375 599.009765625 c 0,18,19
 395.566104761 596.10116651 395.566104761 596.10116651 399.05859375 593.033203125 c 0,20,21
 407.385104207 585.596637551 407.385104207 585.596637551 414.943359375 577.361328125 c 0,22,23
 417.736786421 574.431777625 417.736786421 574.431777625 420.447265625 571.375 c 0,24,25
 473.501371422 509.647761111 473.501371422 509.647761111 474.78515625 428.263671875 c 0,26,27
 475 426.630859375 475 426.630859375 475 425 c 2,28,-1
 475 225 l 0,29,30
 475 223.369140625 475 223.369140625 474.78515625 221.736328125 c 0,31,32
 473.684292495 151.983572729 473.684292495 151.983572729 433.318359375 95.08984375 c 1,33,-1
 470.80078125 38.8671875 l 1,34,-1
 470.79296875 38.861328125 l 1,35,36
 474.994221301 32.5672064119 474.994221301 32.5672064119 475 25 c 0,37,38
 475 15 475 15 467.5 7.5 c 128,-1,39
 460 0 460 0 450 0 c 0,40,41
 436.624897594 0.00752678807308 436.624897594 0.00752678807308 429.208984375 11.138671875 c 1,42,-1
 429.19921875 11.1328125 l 1,43,-1
 421.608398438 22.541937934 l 0,44,45
 414.017578125 33.9510633681 414.017578125 33.9510633681 406.416992188 45.3519422743 c 128,-1,46
 398.81640625 56.7528211806 398.81640625 56.7528211806 398.796875 56.736328125 c 0,47,48
 395.441260603 53.7981655408 395.441260603 53.7981655408 391.96484375 50.990234375 c 0,49,50
 383.723011322 44.264443425 383.723011322 44.264443425 374.876953125 38.34375 c 0,51,52
 370.814539691 35.5956038923 370.814539691 35.5956038923 366.607421875 33.009765625 c 0,53,54
 357.685158086 27.6363804843 357.685158086 27.6363804843 348.30859375 23.111328125 c 0,55,56
 343.826099262 20.8465507261 343.826099262 20.8465507261 339.228515625 18.77734375 c 0,57,58
 329.559782521 14.679190219 329.559782521 14.679190219 319.568359375 11.50390625 c 0,59,60
 314.974225377 9.88034821578 314.974225377 9.88034821578 310.353515625 8.46875 c 0,61,62
 299.521067186 5.55346397236 299.521067186 5.55346397236 288.439453125 3.728515625 c 0,63,64
 284.466783999 2.88480198178 284.466783999 2.88480198178 280.439453125 2.181640625 c 0,65,66
 265.291400151 0.0560124547646 265.291400151 0.0560124547646 250 0 c 128,-1,67
 234.708599849 0.0560124547646 234.708599849 0.0560124547646 219.560546875 2.181640625 c 0,68,69
 215.533216001 2.88480198178 215.533216001 2.88480198178 211.560546875 3.728515625 c 0,70,71
 200.478932814 5.55346397236 200.478932814 5.55346397236 189.646484375 8.46875 c 0,72,73
 185.025774623 9.88034821578 185.025774623 9.88034821578 180.431640625 11.50390625 c 0,74,75
 170.440217479 14.679190219 170.440217479 14.679190219 160.771484375 18.77734375 c 0,76,77
 156.173900738 20.8465507261 156.173900738 20.8465507261 151.69140625 23.111328125 c 0,78,79
 142.314841914 27.6363804843 142.314841914 27.6363804843 133.392578125 33.009765625 c 0,80,81
 129.185460309 35.5956038923 129.185460309 35.5956038923 125.123046875 38.34375 c 0,82,83
 116.276988678 44.264443425 116.276988678 44.264443425 108.03515625 50.990234375 c 0,84,85
 104.433895239 53.89883349 104.433895239 53.89883349 100.94140625 56.966796875 c 0,86,87
 92.6148957928 64.4033624492 92.6148957928 64.4033624492 85.056640625 72.638671875 c 0,88,89
 82.2632135792 75.5682223745 82.2632135792 75.5682223745 79.552734375 78.625 c 0,90,91
 26.4986285775 140.352238889 26.4986285775 140.352238889 25.21484375 221.736328125 c 0,92,93
 25 223.369140625 25 223.369140625 25 225 c 2,94,-1
 25 425 l 0,95,96
 25 426.630859375 25 426.630859375 25.21484375 428.263671875 c 0,97,98
 26.4986285775 509.647761111 26.4986285775 509.647761111 79.552734375 571.375 c 0,99,100
 82.2632135792 574.431777625 82.2632135792 574.431777625 85.056640625 577.361328125 c 0,101,102
 92.6148957928 585.596637551 92.6148957928 585.596637551 100.94140625 593.033203125 c 0,103,104
 104.433895239 596.10116651 104.433895239 596.10116651 108.03515625 599.009765625 c 0,105,106
 116.276988678 605.735556575 116.276988678 605.735556575 125.123046875 611.65625 c 0,107,108
 129.185460309 614.404396108 129.185460309 614.404396108 133.392578125 616.990234375 c 0,109,110
 142.314841914 622.363619516 142.314841914 622.363619516 151.69140625 626.888671875 c 0,111,112
 156.173900738 629.153449274 156.173900738 629.153449274 160.771484375 631.22265625 c 0,113,114
 170.440217479 635.320809781 170.440217479 635.320809781 180.431640625 638.49609375 c 0,115,116
 185.025774623 640.119651784 185.025774623 640.119651784 189.646484375 641.53125 c 0,117,118
 200.478932814 644.446536028 200.478932814 644.446536028 211.560546875 646.271484375 c 0,119,120
 215.533216001 647.115198018 215.533216001 647.115198018 219.560546875 647.818359375 c 0,121,0
 234.708599849 649.943987545 234.708599849 649.943987545 250 650 c 128,-1,1
250 600 m 0,122,123
 183.817829922 600 183.817829922 600 134.416502731 556.268814541 c 128,-1,124
 85.0151755388 512.537629082 85.0151755388 512.537629082 76.498046875 447.841796875 c 0,125,126
 75 436.466372032 75 436.466372032 75 425 c 2,127,-1
 75 225 l 2,128,129
 75 153 75 153 126.5 101.5 c 128,-1,130
 178 50 178 50 250 50 c 0,131,132
 320.202735556 50 320.202735556 50 370.943359375 98.517578125 c 1,133,-1
 229.19921875 311.1328125 l 1,134,-1
 229.20703125 311.138671875 l 1,135,136
 225.005778699 317.432793588 225.005778699 317.432793588 225 325 c 0,137,138
 225 335 225 335 232.5 342.5 c 128,-1,139
 240 350 240 350 250 350 c 0,140,141
 263.375102406 349.992473212 263.375102406 349.992473212 270.791015625 338.861328125 c 1,142,-1
 270.80078125 338.8671875 l 1,143,-1
 403.15625 140.333984375 l 1,144,145
 425 179.850207667 425 179.850207667 425 225 c 2,146,-1
 425 425 l 2,147,148
 425 497 425 497 373.5 548.5 c 128,-1,149
 322 600 322 600 250 600 c 0,122,123
EndSplineSet
EndChar

StartChar: y
Encoding: 121 121 42
Width: 500
VWidth: 1000
Flags: W
LayerCount: 2
Fore
SplineSet
50 450 m 128,-1,1
 60 450 60 450 67.5 442.5 c 128,-1,2
 75 435 75 435 75 425 c 2,3,-1
 75 225 l 2,4,5
 75 153 75 153 126.5 101.5 c 128,-1,6
 178 50 178 50 250 50 c 128,-1,7
 322 50 322 50 373.5 101.5 c 128,-1,8
 425 153 425 153 425 225 c 2,9,-1
 425 425 l 2,10,11
 425 435 425 435 432.5 442.5 c 128,-1,12
 440 450 440 450 450 450 c 128,-1,13
 460 450 460 450 467.5 442.5 c 128,-1,14
 475 435 475 435 475 425 c 2,15,-1
 475 25 l 0,16,17
 475 23.369140625 475 23.369140625 474.78515625 21.736328125 c 0,18,19
 473.450455626 -70.2700610148 473.450455626 -70.2700610148 407.81057028 -135.095874031 c 128,-1,20
 342.170684934 -199.921687048 342.170684934 -199.921687048 250 -200 c 2,21,-1
 50 -200 l 2,22,23
 40 -200 40 -200 32.5 -192.5 c 128,-1,24
 25 -185 25 -185 25 -175 c 128,-1,25
 25 -165 25 -165 32.5 -157.5 c 128,-1,26
 40 -150 40 -150 50 -150 c 2,27,-1
 250 -150 l 2,28,29
 322 -150 322 -150 373.5 -98.5 c 128,-1,30
 425 -47 425 -47 425 25 c 2,31,-1
 425.017578125 39.6788194444 l 0,32,33
 425.03515625 54.3576388889 425.03515625 54.3576388889 425.03515625 69.0021701389 c 128,-1,34
 425.03515625 83.6467013889 425.03515625 83.6467013889 425 83.578125 c 0,35,36
 393.46254716 44.5534008021 393.46254716 44.5534008021 347.787300833 22.2767004011 c 128,-1,37
 302.112054505 0 302.112054505 0 250 0 c 0,38,39
 157 0 157 0 91 66 c 128,-1,40
 25 132 25 132 25 225 c 2,41,-1
 25 425 l 2,42,43
 25 435 25 435 32.5 442.5 c 128,-1,0
 40 450 40 450 50 450 c 128,-1,1
EndSplineSet
EndChar

StartChar: L
Encoding: 76 76 43
Width: 500
VWidth: 1000
Flags: W
LayerCount: 2
Fore
SplineSet
50 650 m 128,-1,1
 60 650 60 650 67.5 642.5 c 128,-1,2
 75 635 75 635 75 625 c 2,3,-1
 75 50 l 1,4,-1
 450 50 l 2,5,6
 460 50 460 50 467.5 42.5 c 128,-1,7
 475 35 475 35 475 25 c 128,-1,8
 475 15 475 15 467.5 7.5 c 128,-1,9
 460 0 460 0 450 0 c 2,10,-1
 50 0 l 2,11,12
 40 0 40 0 32.5 7.5 c 128,-1,13
 25 15 25 15 25 25 c 2,14,-1
 25 625 l 2,15,16
 25 635 25 635 32.5 642.5 c 128,-1,0
 40 650 40 650 50 650 c 128,-1,1
EndSplineSet
EndChar

StartChar: J
Encoding: 74 74 44
Width: 500
VWidth: 1000
Flags: W
LayerCount: 2
Fore
SplineSet
250 650 m 2,0,-1
 350 650 l 2,1,2
 360 650 360 650 367.5 642.5 c 128,-1,3
 375 635 375 635 375 625 c 2,4,-1
 375 500 l 0,5,6
 375 375 375 375 375 250 c 0,7,-1
 375 125 l 1,8,9
 374.929777554 74.2152730668 374.929777554 74.2152730668 339.404493344 37.8761889372 c 128,-1,10
 303.879209135 1.53710480769 303.879209135 1.53710480769 253.263671875 0.21484375 c 0,11,12
 251.630859375 0 251.630859375 0 250 0 c 2,13,-1
 150 0 l 2,14,15
 140 0 140 0 132.5 7.5 c 128,-1,16
 125 15 125 15 125 25 c 128,-1,17
 125 35 125 35 132.5 42.5 c 128,-1,18
 140 50 140 50 150 50 c 2,19,-1
 250 50 l 2,20,21
 281 50 281 50 303 72 c 128,-1,22
 325 94 325 94 325 125 c 2,23,-1
 325 600 l 1,24,-1
 250 600 l 2,25,26
 240 600 240 600 232.5 607.5 c 128,-1,27
 225 615 225 615 225 625 c 128,-1,28
 225 635 225 635 232.5 642.5 c 128,-1,29
 240 650 240 650 250 650 c 2,0,-1
EndSplineSet
EndChar

StartChar: asciicircum
Encoding: 94 94 45
Width: 500
VWidth: 1000
Flags: W
LayerCount: 2
Fore
SplineSet
250 650 m 128,-1,1
 260.35546875 650 260.35546875 650 267.677734375 642.677734375 c 2,2,-1
 367.677734375 542.677734375 l 1,3,4
 375 535.35546875 375 535.35546875 375 525 c 0,5,6
 375 515 375 515 367.5 507.5 c 128,-1,7
 360 500 360 500 350 500 c 0,8,9
 339.64453125 500 339.64453125 500 332.322265625 507.322265625 c 2,10,-1
 250 589.64453125 l 1,11,-1
 167.677734375 507.322265625 l 1,12,13
 160.35546875 500 160.35546875 500 150 500 c 0,14,15
 140 500 140 500 132.5 507.5 c 128,-1,16
 125 515 125 515 125 525 c 0,17,18
 125 535.35546875 125 535.35546875 132.322265625 542.677734375 c 2,19,-1
 232.322265625 642.677734375 l 1,20,0
 239.64453125 650 239.64453125 650 250 650 c 128,-1,1
EndSplineSet
EndChar

StartChar: G
Encoding: 71 71 46
Width: 500
VWidth: 1000
Flags: W
LayerCount: 2
Fore
SplineSet
250 650 m 128,-1,1
 265.291400151 649.943987545 265.291400151 649.943987545 280.439453125 647.818359375 c 0,2,3
 284.466783999 647.115198018 284.466783999 647.115198018 288.439453125 646.271484375 c 0,4,5
 299.521067186 644.446536028 299.521067186 644.446536028 310.353515625 641.53125 c 0,6,7
 314.974225377 640.119651784 314.974225377 640.119651784 319.568359375 638.49609375 c 0,8,9
 329.559782521 635.320809781 329.559782521 635.320809781 339.228515625 631.22265625 c 0,10,11
 343.826099262 629.153449274 343.826099262 629.153449274 348.30859375 626.888671875 c 0,12,13
 357.685158086 622.363619516 357.685158086 622.363619516 366.607421875 616.990234375 c 0,14,15
 370.814539691 614.404396108 370.814539691 614.404396108 374.876953125 611.65625 c 0,16,17
 383.723011322 605.735556575 383.723011322 605.735556575 391.96484375 599.009765625 c 0,18,19
 395.566104761 596.10116651 395.566104761 596.10116651 399.05859375 593.033203125 c 0,20,21
 402.304491919 590.131677899 402.304491919 590.131677899 405.388671875 587.154296875 c 0,22,23
 407.392411751 585.805345358 407.392411751 585.805345358 409.099609375 584.099609375 c 0,24,25
 416.42578125 576.7734375 416.42578125 576.7734375 416.42578125 566.41796875 c 128,-1,26
 416.42578125 556.0703125 416.42578125 556.0703125 409.099609375 548.744140625 c 128,-1,27
 401.7734375 541.41796875 401.7734375 541.41796875 391.41796875 541.41796875 c 128,-1,28
 381.0703125 541.41796875 381.0703125 541.41796875 373.744140625 548.744140625 c 2,29,-1
 373.625 548.86328125 l 1,30,31
 322.390321214 600 322.390321214 600 250 600 c 0,32,33
 183.817829922 600 183.817829922 600 134.416502731 556.268814541 c 128,-1,34
 85.0151755388 512.537629082 85.0151755388 512.537629082 76.498046875 447.841796875 c 0,35,36
 75 436.466372032 75 436.466372032 75 425 c 2,37,-1
 75 225 l 2,38,39
 75 153 75 153 126.5 101.5 c 128,-1,40
 178 50 178 50 250 50 c 128,-1,41
 322 50 322 50 373.5 101.5 c 128,-1,42
 425 153 425 153 425 225 c 2,43,-1
 425 300 l 1,44,-1
 250 300 l 2,45,46
 240 300 240 300 232.5 307.5 c 128,-1,47
 225 315 225 315 225 325 c 128,-1,48
 225 335 225 335 232.5 342.5 c 128,-1,49
 240 350 240 350 250 350 c 2,50,-1
 450 350 l 2,51,52
 460 350 460 350 467.5 342.5 c 128,-1,53
 475 335 475 335 475 325 c 2,54,-1
 475 25 l 2,55,56
 475 15 475 15 467.5 7.5 c 128,-1,57
 460 0 460 0 450 0 c 128,-1,58
 440 0 440 0 432.5 7.5 c 128,-1,59
 425 15 425 15 425 25 c 2,60,-1
 425.006510417 39.7810329861 l 0,61,62
 425.013020833 54.5620659722 425.013020833 54.5620659722 425.013020833 69.3355034722 c 128,-1,63
 425.013020833 84.1089409722 425.013020833 84.1089409722 425 84.09375 c 0,64,65
 422.782337219 81.3411881133 422.782337219 81.3411881133 420.447265625 78.625 c 0,66,67
 417.736786421 75.5682223745 417.736786421 75.5682223745 414.943359375 72.638671875 c 0,68,69
 407.385104207 64.4033624492 407.385104207 64.4033624492 399.05859375 56.966796875 c 0,70,71
 395.566104761 53.89883349 395.566104761 53.89883349 391.96484375 50.990234375 c 0,72,73
 383.723011322 44.264443425 383.723011322 44.264443425 374.876953125 38.34375 c 0,74,75
 370.814539691 35.5956038923 370.814539691 35.5956038923 366.607421875 33.009765625 c 0,76,77
 357.685158086 27.6363804843 357.685158086 27.6363804843 348.30859375 23.111328125 c 0,78,79
 343.826099262 20.8465507261 343.826099262 20.8465507261 339.228515625 18.77734375 c 0,80,81
 329.559782521 14.679190219 329.559782521 14.679190219 319.568359375 11.50390625 c 0,82,83
 314.974225377 9.88034821578 314.974225377 9.88034821578 310.353515625 8.46875 c 0,84,85
 299.521067186 5.55346397236 299.521067186 5.55346397236 288.439453125 3.728515625 c 0,86,87
 284.466783999 2.88480198178 284.466783999 2.88480198178 280.439453125 2.181640625 c 0,88,89
 265.291400151 0.0560124547646 265.291400151 0.0560124547646 250 0 c 128,-1,90
 234.708599849 0.0560124547646 234.708599849 0.0560124547646 219.560546875 2.181640625 c 0,91,92
 215.533216001 2.88480198178 215.533216001 2.88480198178 211.560546875 3.728515625 c 0,93,94
 200.478932814 5.55346397236 200.478932814 5.55346397236 189.646484375 8.46875 c 0,95,96
 185.025774623 9.88034821578 185.025774623 9.88034821578 180.431640625 11.50390625 c 0,97,98
 170.440217479 14.679190219 170.440217479 14.679190219 160.771484375 18.77734375 c 0,99,100
 156.173900738 20.8465507261 156.173900738 20.8465507261 151.69140625 23.111328125 c 0,101,102
 142.314841914 27.6363804843 142.314841914 27.6363804843 133.392578125 33.009765625 c 0,103,104
 129.185460309 35.5956038923 129.185460309 35.5956038923 125.123046875 38.34375 c 0,105,106
 116.276988678 44.264443425 116.276988678 44.264443425 108.03515625 50.990234375 c 0,107,108
 104.433895239 53.89883349 104.433895239 53.89883349 100.94140625 56.966796875 c 0,109,110
 92.6148957928 64.4033624492 92.6148957928 64.4033624492 85.056640625 72.638671875 c 0,111,112
 82.2632135792 75.5682223745 82.2632135792 75.5682223745 79.552734375 78.625 c 0,113,114
 26.4986285775 140.352238889 26.4986285775 140.352238889 25.21484375 221.736328125 c 0,115,116
 25 223.369140625 25 223.369140625 25 225 c 2,117,-1
 25 425 l 0,118,119
 25 426.630859375 25 426.630859375 25.21484375 428.263671875 c 0,120,121
 26.4986285775 509.647761111 26.4986285775 509.647761111 79.552734375 571.375 c 0,122,123
 82.2632135792 574.431777625 82.2632135792 574.431777625 85.056640625 577.361328125 c 0,124,125
 92.6148957928 585.596637551 92.6148957928 585.596637551 100.94140625 593.033203125 c 0,126,127
 104.433895239 596.10116651 104.433895239 596.10116651 108.03515625 599.009765625 c 0,128,129
 116.276988678 605.735556575 116.276988678 605.735556575 125.123046875 611.65625 c 0,130,131
 129.185460309 614.404396108 129.185460309 614.404396108 133.392578125 616.990234375 c 0,132,133
 142.314841914 622.363619516 142.314841914 622.363619516 151.69140625 626.888671875 c 0,134,135
 156.173900738 629.153449274 156.173900738 629.153449274 160.771484375 631.22265625 c 0,136,137
 170.440217479 635.320809781 170.440217479 635.320809781 180.431640625 638.49609375 c 0,138,139
 185.025774623 640.119651784 185.025774623 640.119651784 189.646484375 641.53125 c 0,140,141
 200.478932814 644.446536028 200.478932814 644.446536028 211.560546875 646.271484375 c 0,142,143
 215.533216001 647.115198018 215.533216001 647.115198018 219.560546875 647.818359375 c 0,144,0
 234.708599849 649.943987545 234.708599849 649.943987545 250 650 c 128,-1,1
EndSplineSet
EndChar

StartChar: S
Encoding: 83 83 47
Width: 500
VWidth: 1000
Flags: W
LayerCount: 2
Fore
SplineSet
200 650 m 2,0,-1
 450 650 l 2,1,2
 460 650 460 650 467.5 642.5 c 128,-1,3
 475 635 475 635 475 625 c 128,-1,4
 475 615 475 615 467.5 607.5 c 128,-1,5
 460 600 460 600 450 600 c 2,6,-1
 200 600 l 2,7,8
 148 600 148 600 111.5 563.5 c 128,-1,9
 75 527 75 527 75 475 c 128,-1,10
 75 423 75 423 111.5 386.5 c 128,-1,11
 148 350 148 350 200 350 c 2,12,-1
 300 350 l 2,13,14
 372 350 372 350 423.5 298.5 c 128,-1,15
 475 247 475 247 475 175 c 128,-1,16
 475 103 475 103 423.5 51.5 c 128,-1,17
 372 0 372 0 300 0 c 2,18,-1
 50 0 l 2,19,20
 40 0 40 0 32.5 7.5 c 128,-1,21
 25 15 25 15 25 25 c 128,-1,22
 25 35 25 35 32.5 42.5 c 128,-1,23
 40 50 40 50 50 50 c 2,24,-1
 300 50 l 2,25,26
 352 50 352 50 388.5 86.5 c 128,-1,27
 425 123 425 123 425 175 c 128,-1,28
 425 227 425 227 388.5 263.5 c 128,-1,29
 352 300 352 300 300 300 c 2,30,-1
 200 300 l 2,31,32
 128 300 128 300 76.5 351.5 c 128,-1,33
 25 403 25 403 25 475 c 128,-1,34
 25 547 25 547 76.5 598.5 c 128,-1,35
 128 650 128 650 200 650 c 2,0,-1
EndSplineSet
EndChar

StartChar: R
Encoding: 82 82 48
Width: 500
VWidth: 1000
Flags: W
LayerCount: 2
Fore
SplineSet
50 650 m 2,0,-1
 300 650 l 2,1,2
 372 650 372 650 423.5 598.5 c 128,-1,3
 475 547 475 547 475 475 c 128,-1,4
 475 403 475 403 423.5 351.5 c 128,-1,5
 372 300 372 300 300 300 c 2,6,-1
 296.712890625 300 l 1,7,-1
 470.80078125 38.8671875 l 1,8,-1
 470.79296875 38.861328125 l 1,9,10
 474.994221301 32.5672064119 474.994221301 32.5672064119 475 25 c 0,11,12
 475 15 475 15 467.5 7.5 c 128,-1,13
 460 0 460 0 450 0 c 0,14,15
 436.624871229 0.00903216349198 436.624871229 0.00903216349198 429.209960938 11.138671875 c 1,16,-1
 429.200195312 11.1328125 l 1,17,-1
 236.62109375 300 l 1,18,-1
 75 300 l 1,19,-1
 75 25 l 2,20,21
 75 15 75 15 67.5 7.5 c 128,-1,22
 60 0 60 0 50 0 c 128,-1,23
 40 0 40 0 32.5 7.5 c 128,-1,24
 25 15 25 15 25 25 c 2,25,-1
 25 625 l 2,26,27
 25 635 25 635 32.5 642.5 c 128,-1,28
 40 650 40 650 50 650 c 2,0,-1
75 600 m 1,29,-1
 75 350 l 1,30,-1
 300 350 l 2,31,32
 352 350 352 350 388.5 386.5 c 128,-1,33
 425 423 425 423 425 475 c 128,-1,34
 425 527 425 527 388.5 563.5 c 128,-1,35
 352 600 352 600 300 600 c 2,36,-1
 75 600 l 1,29,-1
EndSplineSet
EndChar

StartChar: F
Encoding: 70 70 49
Width: 500
VWidth: 1000
Flags: W
LayerCount: 2
Fore
SplineSet
50 650 m 2,0,-1
 450 650 l 2,1,2
 460 650 460 650 467.5 642.5 c 128,-1,3
 475 635 475 635 475 625 c 128,-1,4
 475 615 475 615 467.5 607.5 c 128,-1,5
 460 600 460 600 450 600 c 2,6,-1
 75 600 l 1,7,-1
 75 350 l 1,8,-1
 350 350 l 2,9,10
 360 350 360 350 367.5 342.5 c 128,-1,11
 375 335 375 335 375 325 c 128,-1,12
 375 315 375 315 367.5 307.5 c 128,-1,13
 360 300 360 300 350 300 c 2,14,-1
 75 300 l 1,15,-1
 75 25 l 2,16,17
 75 15 75 15 67.5 7.5 c 128,-1,18
 60 0 60 0 50 0 c 128,-1,19
 40 0 40 0 32.5 7.5 c 128,-1,20
 25 15 25 15 25 25 c 2,21,-1
 25 625 l 2,22,23
 25 635 25 635 32.5 642.5 c 128,-1,24
 40 650 40 650 50 650 c 2,0,-1
EndSplineSet
EndChar

StartChar: bracketright
Encoding: 93 93 50
Width: 500
VWidth: 1000
Flags: W
LayerCount: 2
Fore
SplineSet
150 550 m 2,0,-1
 250 550 l 1,1,-1
 350 550 l 2,2,3
 360 550 360 550 367.5 542.5 c 128,-1,4
 375 535 375 535 375 525 c 2,5,-1
 375 375 l 0,6,7
 375 225 375 225 375 75 c 0,8,-1
 375 -75 l 1,9,10
 375 -84.4541455776 375 -84.4541455776 368.752722772 -91.5112224774 c 128,-1,11
 362.505445544 -98.5682993772 362.505445544 -98.5682993772 353.263671875 -99.78515625 c 0,12,13
 351.630859375 -100 351.630859375 -100 350 -100 c 2,14,-1
 250 -100 l 1,15,-1
 150 -100 l 2,16,17
 140 -100 140 -100 132.5 -92.5 c 128,-1,18
 125 -85 125 -85 125 -75 c 128,-1,19
 125 -65 125 -65 132.5 -57.5 c 128,-1,20
 140 -50 140 -50 150 -50 c 2,21,-1
 250 -50 l 1,22,-1
 325 -50 l 1,23,-1
 325 500 l 1,24,-1
 250 500 l 1,25,-1
 150 500 l 2,26,27
 140 500 140 500 132.5 507.5 c 128,-1,28
 125 515 125 515 125 525 c 128,-1,29
 125 535 125 535 132.5 542.5 c 128,-1,30
 140 550 140 550 150 550 c 2,0,-1
EndSplineSet
EndChar

StartChar: B
Encoding: 66 66 51
Width: 500
VWidth: 1000
Flags: W
LayerCount: 2
Fore
SplineSet
50 650 m 2,0,-1
 300 650 l 2,1,2
 372 650 372 650 423.5 598.5 c 128,-1,3
 475 547 475 547 475 475 c 0,4,5
 474.949545962 427.945122923 474.949545962 427.945122923 451.871887885 388.125713796 c 128,-1,6
 428.794229808 348.306304669 428.794229808 348.306304669 389.826171875 325 c 1,7,8
 428.794229808 301.693695331 428.794229808 301.693695331 451.871887885 261.874286204 c 128,-1,9
 474.949545962 222.054877077 474.949545962 222.054877077 475 175 c 0,10,11
 475 103 475 103 423.5 51.5 c 128,-1,12
 372 0 372 0 300 0 c 2,13,-1
 50 0 l 2,14,15
 40 0 40 0 32.5 7.5 c 128,-1,16
 25 15 25 15 25 25 c 2,17,-1
 25 625 l 2,18,19
 25 635 25 635 32.5 642.5 c 128,-1,20
 40 650 40 650 50 650 c 2,0,-1
75 600 m 1,21,-1
 75 350 l 1,22,-1
 300 350 l 2,23,24
 352 350 352 350 388.5 386.5 c 128,-1,25
 425 423 425 423 425 475 c 128,-1,26
 425 527 425 527 388.5 563.5 c 128,-1,27
 352 600 352 600 300 600 c 2,28,-1
 75 600 l 1,21,-1
75 300 m 1,29,-1
 75 50 l 1,30,-1
 300 50 l 2,31,32
 352 50 352 50 388.5 86.5 c 128,-1,33
 425 123 425 123 425 175 c 128,-1,34
 425 227 425 227 388.5 263.5 c 128,-1,35
 352 300 352 300 300 300 c 2,36,-1
 75 300 l 1,29,-1
EndSplineSet
EndChar

StartChar: V
Encoding: 86 86 52
Width: 500
VWidth: 1000
Flags: W
LayerCount: 2
Fore
SplineSet
50 650 m 0,0,1
 68.0145242819 649.995217383 68.0145242819 649.995217383 73.7109375 632.904296875 c 1,2,-1
 73.716796875 632.90625 l 1,3,-1
 73.73828125 632.83984375 l 1,4,-1
 250 104.056640625 l 1,5,-1
 426.283203125 632.90625 l 1,6,-1
 426.287109375 632.904296875 l 0,7,8
 431.984053859 649.996811337 431.984053859 649.996811337 450 650 c 0,9,10
 460 650 460 650 467.5 642.5 c 128,-1,11
 475 635 475 635 475 625 c 0,12,13
 474.997129373 620.942368774 474.997129373 620.942368774 473.712890625 617.095703125 c 2,14,-1
 473.716796875 617.09375 l 1,15,-1
 273.716796875 17.09375 l 1,16,-1
 273.712890625 17.095703125 l 0,17,18
 268.015946141 0.00318866303384 268.015946141 0.00318866303384 250 0 c 128,-1,19
 231.984053859 0.00318866303384 231.984053859 0.00318866303384 226.287109375 17.095703125 c 1,20,-1
 226.283203125 17.09375 l 1,21,-1
 26.3046875 617.029296875 l 1,22,-1
 26.283203125 617.09375 l 1,23,-1
 26.287109375 617.095703125 l 1,24,25
 25.002870627 620.942368774 25.002870627 620.942368774 25 625 c 0,26,27
 25 635 25 635 32.5 642.5 c 128,-1,28
 40 650 40 650 50 650 c 0,0,1
EndSplineSet
EndChar

StartChar: M
Encoding: 77 77 53
Width: 500
VWidth: 1000
Flags: W
LayerCount: 2
Fore
SplineSet
50 650 m 0,0,1
 66.926953125 650 66.926953125 650 73.212890625 634.28515625 c 2,2,-1
 250 192.31640625 l 1,3,-1
 426.787109375 634.28515625 l 0,4,5
 433.073046875 650 433.073046875 650 450 650 c 0,6,7
 460 650 460 650 467.5 642.5 c 128,-1,8
 475 635 475 635 475 625 c 2,9,-1
 475 25 l 2,10,11
 475 15 475 15 467.5 7.5 c 128,-1,12
 460 0 460 0 450 0 c 128,-1,13
 440 0 440 0 432.5 7.5 c 128,-1,14
 425 15 425 15 425 25 c 2,15,-1
 425 495.18359375 l 1,16,-1
 273.212890625 115.71484375 l 0,17,18
 266.926953125 100 266.926953125 100 250 100 c 128,-1,19
 233.073046875 100 233.073046875 100 226.787109375 115.71484375 c 2,20,-1
 75 495.18359375 l 1,21,-1
 75 25 l 2,22,23
 75 15 75 15 67.5 7.5 c 128,-1,24
 60 0 60 0 50 0 c 128,-1,25
 40 0 40 0 32.5 7.5 c 128,-1,26
 25 15 25 15 25 25 c 2,27,-1
 25 625 l 2,28,29
 25 635 25 635 32.5 642.5 c 128,-1,30
 40 650 40 650 50 650 c 0,0,1
EndSplineSet
EndChar

StartChar: Z
Encoding: 90 90 54
Width: 500
VWidth: 1000
Flags: W
LayerCount: 2
Fore
SplineSet
50 650 m 2,0,-1
 450 650 l 2,1,2
 460 650 460 650 467.5 642.5 c 128,-1,3
 475 635 475 635 475 625 c 0,4,5
 474.994222419 617.434258305 474.994222419 617.434258305 470.791992188 611.138671875 c 1,6,-1
 470.799804688 611.1328125 l 1,7,-1
 96.712890625 50 l 1,8,-1
 450 50 l 2,9,10
 460 50 460 50 467.5 42.5 c 128,-1,11
 475 35 475 35 475 25 c 128,-1,12
 475 15 475 15 467.5 7.5 c 128,-1,13
 460 0 460 0 450 0 c 2,14,-1
 50 0 l 2,15,16
 40 0 40 0 32.5 7.5 c 128,-1,17
 25 15 25 15 25 25 c 0,18,19
 25.0057775805 32.5657416955 25.0057775805 32.5657416955 29.2080078125 38.861328125 c 1,20,-1
 29.2001953125 38.8671875 l 1,21,-1
 403.287109375 600 l 1,22,-1
 50 600 l 2,23,24
 40 600 40 600 32.5 607.5 c 128,-1,25
 25 615 25 615 25 625 c 128,-1,26
 25 635 25 635 32.5 642.5 c 128,-1,27
 40 650 40 650 50 650 c 2,0,-1
EndSplineSet
EndChar

StartChar: N
Encoding: 78 78 55
Width: 500
VWidth: 1000
Flags: W
LayerCount: 2
Fore
SplineSet
50 650 m 0,0,1
 63.3751024059 649.992473212 63.3751024059 649.992473212 70.791015625 638.861328125 c 1,2,-1
 70.80078125 638.8671875 l 1,3,-1
 70.89453125 638.7265625 l 1,4,-1
 425 107.568359375 l 1,5,-1
 425 625 l 2,6,7
 425 635 425 635 432.5 642.5 c 128,-1,8
 440 650 440 650 450 650 c 128,-1,9
 460 650 460 650 467.5 642.5 c 128,-1,10
 475 635 475 635 475 625 c 2,11,-1
 475 25 l 2,12,13
 475 15 475 15 467.5 7.5 c 128,-1,14
 460 0 460 0 450 0 c 0,15,16
 436.624897594 0.00752678807308 436.624897594 0.00752678807308 429.208984375 11.138671875 c 1,17,-1
 429.19921875 11.1328125 l 1,18,-1
 75 542.431640625 l 1,19,-1
 75 25 l 2,20,21
 75 15 75 15 67.5 7.5 c 128,-1,22
 60 0 60 0 50 0 c 128,-1,23
 40 0 40 0 32.5 7.5 c 128,-1,24
 25 15 25 15 25 25 c 2,25,-1
 25 625 l 2,26,27
 25 635 25 635 32.5 642.5 c 128,-1,28
 40 650 40 650 50 650 c 0,0,1
EndSplineSet
EndChar

StartChar: W
Encoding: 87 87 56
Width: 500
VWidth: 1000
Flags: W
LayerCount: 2
Fore
SplineSet
50 650 m 128,-1,1
 60 650 60 650 67.5 642.5 c 128,-1,2
 75 635 75 635 75 625 c 2,3,-1
 75 125 l 2,4,5
 75 94 75 94 97 72 c 128,-1,6
 119 50 119 50 150 50 c 0,7,8
 154.916669653 50 154.916669653 50 159.7890625 50.642578125 c 0,9,10
 187.515285112 54.2923363422 187.515285112 54.2923363422 206.257278564 75.4643105572 c 128,-1,11
 224.999272016 96.6362847722 224.999272016 96.6362847722 225 125 c 2,12,-1
 225 625 l 2,13,14
 225 635 225 635 232.5 642.5 c 128,-1,15
 240 650 240 650 250 650 c 128,-1,16
 260 650 260 650 267.5 642.5 c 128,-1,17
 275 635 275 635 275 625 c 2,18,-1
 275 500 l 0,19,20
 275 375 275 375 275 250 c 0,21,-1
 275 125 l 1,22,23
 275.000727984 96.6362847722 275.000727984 96.6362847722 293.742721436 75.4643105572 c 128,-1,24
 312.484714888 54.2923363422 312.484714888 54.2923363422 340.2109375 50.642578125 c 0,25,26
 345.083330347 50 345.083330347 50 350 50 c 128,-1,27
 354.916669653 50 354.916669653 50 359.7890625 50.642578125 c 0,28,29
 387.515285112 54.2923363422 387.515285112 54.2923363422 406.257278564 75.4643105572 c 128,-1,30
 424.999272016 96.6362847722 424.999272016 96.6362847722 425 125 c 2,31,-1
 425 625 l 2,32,33
 425 635 425 635 432.5 642.5 c 128,-1,34
 440 650 440 650 450 650 c 128,-1,35
 460 650 460 650 467.5 642.5 c 128,-1,36
 475 635 475 635 475 625 c 2,37,-1
 475 125 l 0,38,39
 475 62 475 62 425 25 c 0,40,41
 392 0 392 0 350 0 c 0,42,43
 297.494878566 0.0469608107187 297.494878566 0.0469608107187 260.771484375 37.572265625 c 0,44,45
 254.969376969 43.5012348923 254.969376969 43.5012348923 250 50.146484375 c 1,46,47
 212.54554092 0.0552192849758 212.54554092 0.0552192849758 150 0 c 0,48,49
 141.945563258 0 141.945563258 0 133.95703125 1.033203125 c 0,50,51
 101.324592648 5.25617308946 101.324592648 5.25617308946 75 25 c 0,52,53
 25 62 25 62 25 125 c 2,54,-1
 25 625 l 2,55,56
 25 635 25 635 32.5 642.5 c 128,-1,0
 40 650 40 650 50 650 c 128,-1,1
EndSplineSet
EndChar

StartChar: C
Encoding: 67 67 57
Width: 500
VWidth: 1000
Flags: W
LayerCount: 2
Fore
SplineSet
250 650 m 128,-1,1
 265.189138887 649.936789737 265.189138887 649.936789737 280.23046875 647.833984375 c 0,2,3
 285.587322355 646.915456665 285.587322355 646.915456665 290.884765625 645.7421875 c 0,4,5
 300.503037785 644.093886014 300.503037785 644.093886014 309.921875 641.625 c 0,6,7
 316.114698582 639.75178905 316.114698582 639.75178905 322.150390625 637.541015625 c 0,8,9
 330.416051465 634.841184047 330.416051465 634.841184047 338.451171875 631.509765625 c 0,10,11
 344.784913315 628.68170377 344.784913315 628.68170377 350.916015625 625.478515625 c 0,12,13
 358.294789728 621.828689118 358.294789728 621.828689118 365.3828125 617.65234375 c 0,14,15
 371.469170093 613.943993242 371.469170093 613.943993242 377.33203125 609.83984375 c 0,16,17
 383.946608243 605.299341395 383.946608243 605.299341395 390.2109375 600.30859375 c 0,18,19
 396.077182343 595.620835594 396.077182343 595.620835594 401.619140625 590.55078125 c 128,-1,20
 407.097300585 585.579078992 407.097300585 585.579078992 412.259765625 580.234375 c 0,21,22
 416.42578125 573.948862048 416.42578125 573.948862048 416.42578125 566.41796875 c 0,23,24
 416.42578125 556.0703125 416.42578125 556.0703125 409.099609375 548.744140625 c 128,-1,25
 401.7734375 541.41796875 401.7734375 541.41796875 391.41796875 541.41796875 c 128,-1,26
 381.0703125 541.41796875 381.0703125 541.41796875 373.744140625 548.744140625 c 2,27,-1
 373.625 548.86328125 l 0,28,29
 368.979676274 553.237238703 368.979676274 553.237238703 364.048828125 557.24609375 c 0,30,31
 360.36311896 560.664280041 360.36311896 560.664280041 356.478515625 563.873046875 c 0,32,33
 351.148449119 567.732447746 351.148449119 567.732447746 345.53125 571.1875 c 0,34,35
 341.563898595 573.995816985 341.563898595 573.995816985 337.451171875 576.578125 c 0,36,37
 331.65042022 579.714663745 331.65042022 579.714663745 325.64453125 582.400390625 c 0,38,39
 321.343035193 584.669068635 321.343035193 584.669068635 316.927734375 586.693359375 c 0,40,41
 309.99694804 589.379261791 309.99694804 589.379261791 302.873046875 591.46484375 c 0,42,43
 299.102190575 592.840236566 299.102190575 592.840236566 295.271484375 594.041015625 c 0,44,45
 286.862776638 596.150988024 286.862776638 596.150988024 278.283203125 597.419921875 c 0,46,47
 275.563940651 598.005154451 275.563940651 598.005154451 272.830078125 598.501953125 c 0,48,49
 261.460251683 599.998564957 261.460251683 599.998564957 250 600 c 128,-1,50
 238.533627968 600 238.533627968 600 227.158203125 598.501953125 c 128,-1,51
 215.791301152 597.005924039 215.791301152 597.005924039 204.70703125 594.037109375 c 0,52,53
 182.452840502 588.074285001 182.452840502 588.074285001 162.5 576.5546875 c 0,54,55
 152.569956702 570.820991818 152.569956702 570.820991818 143.466796875 563.8359375 c 128,-1,56
 134.36463796 556.850966085 134.36463796 556.850966085 126.2578125 548.744140625 c 128,-1,57
 118.144233247 540.630561372 118.144233247 540.630561372 111.1640625 531.533203125 c 128,-1,58
 104.179008182 522.430043298 104.179008182 522.430043298 98.4453125 512.5 c 0,59,60
 86.9257149992 492.547159498 86.9257149992 492.547159498 80.962890625 470.29296875 c 0,61,62
 77.9940759611 459.208698848 77.9940759611 459.208698848 76.498046875 447.841796875 c 128,-1,63
 75 436.466372032 75 436.466372032 75 425 c 2,64,-1
 75 225 l 2,65,66
 75 153 75 153 126.5 101.5 c 128,-1,67
 178 50 178 50 250 50 c 0,68,69
 261.460251683 50.0014350428 261.460251683 50.0014350428 272.830078125 51.498046875 c 0,70,71
 275.563940651 51.9948455491 275.563940651 51.9948455491 278.283203125 52.580078125 c 0,72,73
 286.862776638 53.8490119762 286.862776638 53.8490119762 295.271484375 55.958984375 c 0,74,75
 299.102190575 57.1597634337 299.102190575 57.1597634337 302.873046875 58.53515625 c 0,76,77
 309.99694804 60.6207382086 309.99694804 60.6207382086 316.927734375 63.306640625 c 0,78,79
 321.343035193 65.3309313653 321.343035193 65.3309313653 325.64453125 67.599609375 c 0,80,81
 331.65042022 70.2853362551 331.65042022 70.2853362551 337.451171875 73.421875 c 0,82,83
 341.563898595 76.004183015 341.563898595 76.004183015 345.53125 78.8125 c 0,84,85
 351.148449119 82.2675522539 351.148449119 82.2675522539 356.478515625 86.126953125 c 0,86,87
 360.36311896 89.335719959 360.36311896 89.335719959 364.048828125 92.75390625 c 0,88,89
 368.979676274 96.7627612969 368.979676274 96.7627612969 373.625 101.13671875 c 2,90,-1
 373.744140625 101.255859375 l 1,91,92
 381.0703125 108.58203125 381.0703125 108.58203125 391.42578125 108.58203125 c 128,-1,93
 401.7734375 108.58203125 401.7734375 108.58203125 409.099609375 101.255859375 c 128,-1,94
 416.407226562 93.9482421875 416.407226562 93.9482421875 416.407226562 83.552734375 c 0,95,96
 416.407226562 76.0231434029 416.407226562 76.0231434029 412.259765625 69.765625 c 0,97,98
 407.097300585 64.4209210078 407.097300585 64.4209210078 401.619140625 59.44921875 c 128,-1,99
 396.077182343 54.3791644057 396.077182343 54.3791644057 390.2109375 49.69140625 c 0,100,101
 383.946608243 44.7006586047 383.946608243 44.7006586047 377.33203125 40.16015625 c 0,102,103
 371.469170093 36.0560067584 371.469170093 36.0560067584 365.3828125 32.34765625 c 0,104,105
 358.294789728 28.1713108822 358.294789728 28.1713108822 350.916015625 24.521484375 c 0,106,107
 344.784913315 21.3182962295 344.784913315 21.3182962295 338.451171875 18.490234375 c 0,108,109
 330.416051465 15.1588159533 330.416051465 15.1588159533 322.150390625 12.458984375 c 0,110,111
 316.114698582 10.2482109499 316.114698582 10.2482109499 309.921875 8.375 c 0,112,113
 300.503037785 5.90611398569 300.503037785 5.90611398569 290.884765625 4.2578125 c 0,114,115
 285.587322355 3.08454333507 285.587322355 3.08454333507 280.23046875 2.166015625 c 0,116,117
 265.189138887 0.0632102630318 265.189138887 0.0632102630318 250 0 c 128,-1,118
 234.708599849 0.0560124547646 234.708599849 0.0560124547646 219.560546875 2.181640625 c 0,119,120
 215.672663276 2.86216597752 215.672663276 2.86216597752 211.74609375 3.693359375 c 2,121,-1
 211.560546875 3.728515625 l 1,122,-1
 211.501953125 3.740234375 l 1,123,124
 200.453580289 5.56160406138 200.453580289 5.56160406138 189.646484375 8.46875 c 0,125,126
 185.458779825 9.75956233984 185.458779825 9.75956233984 181.396484375 11.185546875 c 0,127,128
 180.893402309 11.3551639935 180.893402309 11.3551639935 180.111328125 11.623046875 c 0,129,130
 170.277503203 14.7569354748 170.277503203 14.7569354748 160.771484375 18.77734375 c 0,131,132
 157.302455095 20.361509341 157.302455095 20.361509341 153.876953125 22.068359375 c 0,133,134
 152.473684928 22.7474056554 152.473684928 22.7474056554 150.966796875 23.50390625 c 0,135,136
 141.972221163 27.8643360376 141.972221163 27.8643360376 133.392578125 33.009765625 c 0,137,138
 130.745977088 34.6655500065 130.745977088 34.6655500065 128.19140625 36.36328125 c 0,139,140
 126.141480787 37.7015897308 126.141480787 37.7015897308 124.1328125 39.076171875 c 0,141,142
 115.822956903 44.6714163901 115.822956903 44.6714163901 108.03515625 50.990234375 c 0,143,144
 106.294017718 52.4291545611 106.294017718 52.4291545611 104.69140625 53.806640625 c 0,145,146
 102.194053591 55.9339071842 102.194053591 55.9339071842 99.767578125 58.125 c 0,147,148
 92.0815348775 65.0402574535 92.0815348775 65.0402574535 85.056640625 72.638671875 c 0,149,150
 84.3970352067 73.3485977067 84.3970352067 73.3485977067 83.654296875 74.1640625 c 0,151,152
 80.9832339671 77.106060124 80.9832339671 77.106060124 78.4765625 80.068359375 c 0,153,154
 69.8070367209 90.356294098 69.8070367209 90.356294098 62.42578125 101.6015625 c 0,155,156
 61.3016447279 103.252503077 61.3016447279 103.252503077 60.173828125 104.974609375 c 0,157,158
 52.9393055547 116.461439916 52.9393055547 116.461439916 47.138671875 128.734375 c 0,159,160
 46.2668614909 130.465970797 46.2668614909 130.465970797 45.4609375 132.13671875 c 0,161,162
 39.7595175339 144.758001312 39.7595175339 144.758001312 35.65234375 157.96875 c 0,163,164
 35.1120955981 159.524239763 35.1120955981 159.524239763 34.62109375 161.005859375 c 0,165,166
 30.5425626777 174.786170168 30.5425626777 174.786170168 28.25 188.96875 c 0,167,168
 28.0309495192 190.045748197 28.0309495192 190.045748197 27.833984375 191.060546875 c 0,169,170
 25.472493212 206.311905582 25.472493212 206.311905582 25.21484375 221.736328125 c 0,171,172
 25 223.369140625 25 223.369140625 25 225 c 2,173,-1
 25 425 l 0,174,175
 25 426.630859375 25 426.630859375 25.21484375 428.263671875 c 0,176,177
 25.472493212 443.688094418 25.472493212 443.688094418 27.833984375 458.939453125 c 0,178,179
 28.0309495192 459.954251803 28.0309495192 459.954251803 28.25 461.03125 c 0,180,181
 30.5425626777 475.213829832 30.5425626777 475.213829832 34.62109375 488.994140625 c 0,182,183
 35.1120955981 490.475760237 35.1120955981 490.475760237 35.65234375 492.03125 c 0,184,185
 39.7595175339 505.241998688 39.7595175339 505.241998688 45.4609375 517.86328125 c 0,186,187
 46.2668614909 519.534029203 46.2668614909 519.534029203 47.138671875 521.265625 c 0,188,189
 52.9393055547 533.538560084 52.9393055547 533.538560084 60.173828125 545.025390625 c 0,190,191
 61.3016447279 546.747496923 61.3016447279 546.747496923 62.42578125 548.3984375 c 0,192,193
 69.8070367209 559.643705902 69.8070367209 559.643705902 78.4765625 569.931640625 c 0,194,195
 80.9832339671 572.893939876 80.9832339671 572.893939876 83.654296875 575.8359375 c 0,196,197
 84.3970352067 576.651402293 84.3970352067 576.651402293 85.056640625 577.361328125 c 0,198,199
 92.0815348775 584.959742546 92.0815348775 584.959742546 99.767578125 591.875 c 0,200,201
 102.194053591 594.066092816 102.194053591 594.066092816 104.69140625 596.193359375 c 0,202,203
 106.294017718 597.570845439 106.294017718 597.570845439 108.03515625 599.009765625 c 0,204,205
 115.822956903 605.32858361 115.822956903 605.32858361 124.1328125 610.923828125 c 0,206,207
 126.141480787 612.298410269 126.141480787 612.298410269 128.19140625 613.63671875 c 0,208,209
 130.745977088 615.334449994 130.745977088 615.334449994 133.392578125 616.990234375 c 0,210,211
 141.972221163 622.135663962 141.972221163 622.135663962 150.966796875 626.49609375 c 0,212,213
 152.473684928 627.252594345 152.473684928 627.252594345 153.876953125 627.931640625 c 0,214,215
 157.302455095 629.638490659 157.302455095 629.638490659 160.771484375 631.22265625 c 0,216,217
 170.277503203 635.243064525 170.277503203 635.243064525 180.111328125 638.376953125 c 0,218,219
 180.893402309 638.644836006 180.893402309 638.644836006 181.396484375 638.814453125 c 0,220,221
 185.458779825 640.24043766 185.458779825 640.24043766 189.646484375 641.53125 c 0,222,223
 200.453580289 644.438395939 200.453580289 644.438395939 211.501953125 646.259765625 c 2,224,-1
 211.560546875 646.271484375 l 1,225,-1
 211.74609375 646.306640625 l 1,226,227
 215.672663276 647.137834022 215.672663276 647.137834022 219.560546875 647.818359375 c 0,228,0
 234.708599849 649.943987545 234.708599849 649.943987545 250 650 c 128,-1,1
EndSplineSet
EndChar

StartChar: U
Encoding: 85 85 58
Width: 500
VWidth: 1000
Flags: W
LayerCount: 2
Fore
SplineSet
50 650 m 128,-1,1
 60 650 60 650 67.5 642.5 c 128,-1,2
 75 635 75 635 75 625 c 2,3,-1
 75 225 l 2,4,5
 75 153 75 153 126.5 101.5 c 128,-1,6
 178 50 178 50 250 50 c 0,7,8
 261.466372032 50 261.466372032 50 272.841796875 51.498046875 c 0,9,10
 337.537629082 60.0151755388 337.537629082 60.0151755388 381.268814541 109.416502731 c 128,-1,11
 425 158.817829922 425 158.817829922 425 225 c 2,12,-1
 425 625 l 2,13,14
 425 635 425 635 432.5 642.5 c 128,-1,15
 440 650 440 650 450 650 c 128,-1,16
 460 650 460 650 467.5 642.5 c 128,-1,17
 475 635 475 635 475 625 c 2,18,-1
 475 525 l 0,19,20
 475 425 475 425 475 325 c 0,21,-1
 475 225 l 1,22,23
 474.741654797 138.263152482 474.741654797 138.263152482 416.326171875 74.142578125 c 0,24,25
 411.954089943 69.0932749744 411.954089943 69.0932749744 407.302734375 64.32421875 c 0,26,27
 401.505211936 58.8657582407 401.505211936 58.8657582407 395.328125 53.82421875 c 0,28,29
 390.442793747 49.4596588487 390.442793747 49.4596588487 385.328125 45.3984375 c 0,30,31
 378.724025036 40.6320638009 378.724025036 40.6320638009 371.80078125 36.359375 c 0,32,33
 366.539732672 32.7495403329 366.539732672 32.7495403329 361.080078125 29.443359375 c 0,34,35
 353.758604481 25.4900289316 353.758604481 25.4900289316 346.162109375 22.087890625 c 0,36,37
 340.642149832 19.2623898614 340.642149832 19.2623898614 334.962890625 16.740234375 c 0,38,39
 326.875673754 13.6417406519 326.875673754 13.6417406519 318.568359375 11.173828125 c 0,40,41
 313.04336675 9.19266638607 313.04336675 9.19266638607 307.443359375 7.5078125 c 0,42,43
 297.989952397 5.20011268042 297.989952397 5.20011268042 288.376953125 3.716796875 c 0,44,45
 283.689402976 2.70671497882 283.689402976 2.70671497882 278.98046875 1.900390625 c 0,46,47
 264.554086046 0.0129229256522 264.554086046 0.0129229256522 250 0 c 128,-1,48
 235.445913954 0.0129229256522 235.445913954 0.0129229256522 221.01953125 1.900390625 c 0,49,50
 216.310597024 2.70671497882 216.310597024 2.70671497882 211.623046875 3.716796875 c 0,51,52
 202.010047603 5.20011268042 202.010047603 5.20011268042 192.556640625 7.5078125 c 0,53,54
 186.95663325 9.19266638607 186.95663325 9.19266638607 181.431640625 11.173828125 c 0,55,56
 173.124326246 13.6417406519 173.124326246 13.6417406519 165.037109375 16.740234375 c 0,57,58
 159.357850168 19.2623898614 159.357850168 19.2623898614 153.837890625 22.087890625 c 0,59,60
 146.241395519 25.4900289316 146.241395519 25.4900289316 138.919921875 29.443359375 c 0,61,62
 133.460267328 32.7495403329 133.460267328 32.7495403329 128.19921875 36.359375 c 0,63,64
 121.275974964 40.6320638009 121.275974964 40.6320638009 114.671875 45.3984375 c 0,65,66
 109.557206253 49.4596588487 109.557206253 49.4596588487 104.671875 53.82421875 c 0,67,68
 98.4947880641 58.8657582407 98.4947880641 58.8657582407 92.697265625 64.32421875 c 0,69,70
 88.0459100569 69.0932749744 88.0459100569 69.0932749744 83.673828125 74.142578125 c 0,71,72
 25.2583452026 138.263152482 25.2583452026 138.263152482 25 225 c 2,73,-1
 25 625 l 2,74,75
 25 635 25 635 32.5 642.5 c 128,-1,0
 40 650 40 650 50 650 c 128,-1,1
EndSplineSet
EndChar

StartChar: A
Encoding: 65 65 59
Width: 500
VWidth: 1000
Flags: W
LayerCount: 2
Fore
SplineSet
250 650 m 128,-1,1
 268.015946047 649.996811619 268.015946047 649.996811619 273.712890625 632.904296875 c 1,2,-1
 273.716796875 632.90625 l 1,3,-1
 473.716796875 32.90625 l 1,4,-1
 473.712890625 32.904296875 l 1,5,6
 474.997128355 29.0576342748 474.997128355 29.0576342748 475 25 c 0,7,8
 475 15 475 15 467.5 7.5 c 128,-1,9
 460 0 460 0 450 0 c 0,10,11
 431.984053953 0.00318838085959 431.984053953 0.00318838085959 426.287109375 17.095703125 c 1,12,-1
 426.283203125 17.09375 l 1,13,-1
 363.90625 204.224609375 l 1,14,15
 357.594168322 200 357.594168322 200 350 200 c 2,16,-1
 300 200 l 0,17,18
 250 200 250 200 200 200 c 0,19,-1
 150 200 l 1,20,21
 142.405831678 200 142.405831678 200 136.09375 204.224609375 c 1,22,-1
 73.73828125 17.16015625 l 1,23,-1
 73.716796875 17.09375 l 1,24,-1
 73.7099609375 17.095703125 l 0,25,26
 68.0146686077 0.00478307866388 68.0146686077 0.00478307866388 50 0 c 0,27,28
 40 0 40 0 32.5 7.5 c 128,-1,29
 25 15 25 15 25 25 c 0,30,31
 25.0028716449 29.0576342748 25.0028716449 29.0576342748 26.287109375 32.904296875 c 2,32,-1
 26.283203125 32.90625 l 1,33,-1
 26.3046875 32.970703125 l 1,34,-1
 226.283203125 632.90625 l 1,35,-1
 226.287109375 632.904296875 l 0,36,0
 231.984053953 649.996811619 231.984053953 649.996811619 250 650 c 128,-1,1
250 545.943359375 m 1,37,-1
 151.3515625 250 l 1,38,-1
 348.6484375 250 l 1,39,-1
 250 545.943359375 l 1,37,-1
EndSplineSet
EndChar

StartChar: i
Encoding: 105 105 60
Width: 500
VWidth: 1000
Flags: W
LayerCount: 2
Fore
SplineSet
250 650 m 128,-1,1
 260 650 260 650 267.5 642.5 c 128,-1,2
 275 635 275 635 275 625 c 128,-1,3
 275 615 275 615 267.5 607.5 c 128,-1,4
 260 600 260 600 250 600 c 128,-1,5
 240 600 240 600 232.5 607.5 c 128,-1,6
 225 615 225 615 225 625 c 128,-1,7
 225 635 225 635 232.5 642.5 c 128,-1,0
 240 650 240 650 250 650 c 128,-1,1
150 450 m 2,8,-1
 250 450 l 2,9,10
 260 450 260 450 267.5 442.5 c 128,-1,11
 275 435 275 435 275 425 c 2,12,-1
 275 50 l 1,13,-1
 350 50 l 2,14,15
 360 50 360 50 367.5 42.5 c 128,-1,16
 375 35 375 35 375 25 c 128,-1,17
 375 15 375 15 367.5 7.5 c 128,-1,18
 360 0 360 0 350 0 c 2,19,-1
 150 0 l 2,20,21
 140 0 140 0 132.5 7.5 c 128,-1,22
 125 15 125 15 125 25 c 128,-1,23
 125 35 125 35 132.5 42.5 c 128,-1,24
 140 50 140 50 150 50 c 2,25,-1
 225 50 l 1,26,-1
 225 400 l 1,27,-1
 150 400 l 2,28,29
 140 400 140 400 132.5 407.5 c 128,-1,30
 125 415 125 415 125 425 c 128,-1,31
 125 435 125 435 132.5 442.5 c 128,-1,32
 140 450 140 450 150 450 c 2,8,-1
EndSplineSet
EndChar

StartChar: backslash
Encoding: 92 92 61
Width: 500
VWidth: 1000
Flags: W
LayerCount: 2
Fore
SplineSet
50 650 m 0,0,1
 63.3751024059 649.992473212 63.3751024059 649.992473212 70.791015625 638.861328125 c 1,2,-1
 70.80078125 638.8671875 l 1,3,-1
 70.89453125 638.7265625 l 1,4,-1
 470.80078125 38.8671875 l 1,5,-1
 470.79296875 38.861328125 l 1,6,7
 474.994221301 32.5672064119 474.994221301 32.5672064119 475 25 c 0,8,9
 475 15 475 15 467.5 7.5 c 128,-1,10
 460 0 460 0 450 0 c 0,11,12
 436.624897594 0.00752678807308 436.624897594 0.00752678807308 429.208984375 11.138671875 c 1,13,-1
 429.19921875 11.1328125 l 1,14,-1
 29.29296875 610.9921875 l 1,15,-1
 29.19921875 611.1328125 l 1,16,-1
 29.20703125 611.138671875 l 1,17,18
 25.0057786991 617.432793588 25.0057786991 617.432793588 25 625 c 0,19,20
 25 635 25 635 32.5 642.5 c 128,-1,21
 40 650 40 650 50 650 c 0,0,1
EndSplineSet
EndChar

StartChar: O
Encoding: 79 79 62
Width: 500
VWidth: 1000
Flags: W
LayerCount: 2
Fore
SplineSet
250 650 m 128,-1,1
 265.291400151 649.943987545 265.291400151 649.943987545 280.439453125 647.818359375 c 0,2,3
 284.466783999 647.115198018 284.466783999 647.115198018 288.439453125 646.271484375 c 0,4,5
 299.521067186 644.446536028 299.521067186 644.446536028 310.353515625 641.53125 c 0,6,7
 314.974225377 640.119651784 314.974225377 640.119651784 319.568359375 638.49609375 c 0,8,9
 329.559782521 635.320809781 329.559782521 635.320809781 339.228515625 631.22265625 c 0,10,11
 343.826099262 629.153449274 343.826099262 629.153449274 348.30859375 626.888671875 c 0,12,13
 357.685158086 622.363619516 357.685158086 622.363619516 366.607421875 616.990234375 c 0,14,15
 370.814539691 614.404396108 370.814539691 614.404396108 374.876953125 611.65625 c 0,16,17
 383.723011322 605.735556575 383.723011322 605.735556575 391.96484375 599.009765625 c 0,18,19
 395.566104761 596.10116651 395.566104761 596.10116651 399.05859375 593.033203125 c 0,20,21
 407.385104207 585.596637551 407.385104207 585.596637551 414.943359375 577.361328125 c 0,22,23
 417.736786421 574.431777625 417.736786421 574.431777625 420.447265625 571.375 c 0,24,25
 473.501371422 509.647761111 473.501371422 509.647761111 474.78515625 428.263671875 c 0,26,27
 475 426.630859375 475 426.630859375 475 425 c 2,28,-1
 475 225 l 0,29,30
 475 223.369140625 475 223.369140625 474.78515625 221.736328125 c 0,31,32
 473.501371422 140.352238889 473.501371422 140.352238889 420.447265625 78.625 c 0,33,34
 417.736786421 75.5682223745 417.736786421 75.5682223745 414.943359375 72.638671875 c 0,35,36
 407.385104207 64.4033624492 407.385104207 64.4033624492 399.05859375 56.966796875 c 0,37,38
 395.566104761 53.89883349 395.566104761 53.89883349 391.96484375 50.990234375 c 0,39,40
 383.723011322 44.264443425 383.723011322 44.264443425 374.876953125 38.34375 c 0,41,42
 370.814539691 35.5956038923 370.814539691 35.5956038923 366.607421875 33.009765625 c 0,43,44
 357.685158086 27.6363804843 357.685158086 27.6363804843 348.30859375 23.111328125 c 0,45,46
 343.826099262 20.8465507261 343.826099262 20.8465507261 339.228515625 18.77734375 c 0,47,48
 329.559782521 14.679190219 329.559782521 14.679190219 319.568359375 11.50390625 c 0,49,50
 314.974225377 9.88034821578 314.974225377 9.88034821578 310.353515625 8.46875 c 0,51,52
 299.521067186 5.55346397236 299.521067186 5.55346397236 288.439453125 3.728515625 c 0,53,54
 284.466783999 2.88480198178 284.466783999 2.88480198178 280.439453125 2.181640625 c 0,55,56
 265.291400151 0.0560124547646 265.291400151 0.0560124547646 250 0 c 128,-1,57
 234.708599849 0.0560124547646 234.708599849 0.0560124547646 219.560546875 2.181640625 c 0,58,59
 215.533216001 2.88480198178 215.533216001 2.88480198178 211.560546875 3.728515625 c 0,60,61
 200.478932814 5.55346397236 200.478932814 5.55346397236 189.646484375 8.46875 c 0,62,63
 185.025774623 9.88034821578 185.025774623 9.88034821578 180.431640625 11.50390625 c 0,64,65
 170.440217479 14.679190219 170.440217479 14.679190219 160.771484375 18.77734375 c 0,66,67
 156.173900738 20.8465507261 156.173900738 20.8465507261 151.69140625 23.111328125 c 0,68,69
 142.314841914 27.6363804843 142.314841914 27.6363804843 133.392578125 33.009765625 c 0,70,71
 129.185460309 35.5956038923 129.185460309 35.5956038923 125.123046875 38.34375 c 0,72,73
 116.276988678 44.264443425 116.276988678 44.264443425 108.03515625 50.990234375 c 0,74,75
 104.433895239 53.89883349 104.433895239 53.89883349 100.94140625 56.966796875 c 0,76,77
 92.6148957928 64.4033624492 92.6148957928 64.4033624492 85.056640625 72.638671875 c 0,78,79
 82.2632135792 75.5682223745 82.2632135792 75.5682223745 79.552734375 78.625 c 0,80,81
 26.4986285775 140.352238889 26.4986285775 140.352238889 25.21484375 221.736328125 c 0,82,83
 25 223.369140625 25 223.369140625 25 225 c 2,84,-1
 25 425 l 0,85,86
 25 426.630859375 25 426.630859375 25.21484375 428.263671875 c 0,87,88
 26.4986285775 509.647761111 26.4986285775 509.647761111 79.552734375 571.375 c 0,89,90
 82.2632135792 574.431777625 82.2632135792 574.431777625 85.056640625 577.361328125 c 0,91,92
 92.6148957928 585.596637551 92.6148957928 585.596637551 100.94140625 593.033203125 c 0,93,94
 104.433895239 596.10116651 104.433895239 596.10116651 108.03515625 599.009765625 c 0,95,96
 116.276988678 605.735556575 116.276988678 605.735556575 125.123046875 611.65625 c 0,97,98
 129.185460309 614.404396108 129.185460309 614.404396108 133.392578125 616.990234375 c 0,99,100
 142.314841914 622.363619516 142.314841914 622.363619516 151.69140625 626.888671875 c 0,101,102
 156.173900738 629.153449274 156.173900738 629.153449274 160.771484375 631.22265625 c 0,103,104
 170.440217479 635.320809781 170.440217479 635.320809781 180.431640625 638.49609375 c 0,105,106
 185.025774623 640.119651784 185.025774623 640.119651784 189.646484375 641.53125 c 0,107,108
 200.478932814 644.446536028 200.478932814 644.446536028 211.560546875 646.271484375 c 0,109,110
 215.533216001 647.115198018 215.533216001 647.115198018 219.560546875 647.818359375 c 0,111,0
 234.708599849 649.943987545 234.708599849 649.943987545 250 650 c 128,-1,1
250 600 m 0,112,113
 183.817829922 600 183.817829922 600 134.416502731 556.268814541 c 128,-1,114
 85.0151755388 512.537629082 85.0151755388 512.537629082 76.498046875 447.841796875 c 0,115,116
 75 436.466372032 75 436.466372032 75 425 c 2,117,-1
 75 225 l 2,118,119
 75 153 75 153 126.5 101.5 c 128,-1,120
 178 50 178 50 250 50 c 128,-1,121
 322 50 322 50 373.5 101.5 c 128,-1,122
 425 153 425 153 425 225 c 2,123,-1
 425 425 l 2,124,125
 425 497 425 497 373.5 548.5 c 128,-1,126
 322 600 322 600 250 600 c 0,112,113
EndSplineSet
EndChar

StartChar: bracketleft
Encoding: 91 91 63
Width: 500
VWidth: 1000
Flags: W
LayerCount: 2
Fore
SplineSet
350 550 m 2,0,1
 360 550 360 550 367.5 542.5 c 128,-1,2
 375 535 375 535 375 525 c 128,-1,3
 375 515 375 515 367.5 507.5 c 128,-1,4
 360 500 360 500 350 500 c 2,5,-1
 250 500 l 1,6,-1
 175 500 l 1,7,-1
 175 -50 l 1,8,-1
 250 -50 l 1,9,-1
 350 -50 l 2,10,11
 360 -50 360 -50 367.5 -57.5 c 128,-1,12
 375 -65 375 -65 375 -75 c 128,-1,13
 375 -85 375 -85 367.5 -92.5 c 128,-1,14
 360 -100 360 -100 350 -100 c 2,15,-1
 250 -100 l 1,16,-1
 150 -100 l 2,17,18
 148.369140625 -100 148.369140625 -100 146.736328125 -99.78515625 c 0,19,20
 137.494554456 -98.5682993772 137.494554456 -98.5682993772 131.247277228 -91.5112224774 c 128,-1,21
 125 -84.4541455776 125 -84.4541455776 125 -75 c 1,22,-1
 125 75 l 0,23,24
 125 225 125 225 125 375 c 0,25,-1
 125 525 l 2,26,27
 125 535 125 535 132.5 542.5 c 128,-1,28
 140 550 140 550 150 550 c 2,29,-1
 250 550 l 1,30,-1
 350 550 l 2,0,1
EndSplineSet
EndChar

StartChar: h
Encoding: 104 104 64
Width: 500
VWidth: 1000
Flags: W
LayerCount: 2
Fore
SplineSet
50 650 m 128,-1,1
 60 650 60 650 67.5 642.5 c 128,-1,2
 75 635 75 635 75 625 c 2,3,-1
 74.982421875 560.321180556 l 0,4,5
 74.96484375 495.642361111 74.96484375 495.642361111 74.96484375 430.997829861 c 128,-1,6
 74.96484375 366.353298611 74.96484375 366.353298611 75 366.421875 c 0,7,8
 106.53745284 405.446599198 106.53745284 405.446599198 152.212699167 427.723299599 c 128,-1,9
 197.887945495 450 197.887945495 450 250 450 c 0,10,11
 343 450 343 450 409 384 c 128,-1,12
 475 318 475 318 475 225 c 2,13,-1
 475 25 l 2,14,15
 475 15 475 15 467.5 7.5 c 128,-1,16
 460 0 460 0 450 0 c 128,-1,17
 440 0 440 0 432.5 7.5 c 128,-1,18
 425 15 425 15 425 25 c 2,19,-1
 425 225 l 2,20,21
 425 297 425 297 373.5 348.5 c 128,-1,22
 322 400 322 400 250 400 c 128,-1,23
 178 400 178 400 126.5 348.5 c 128,-1,24
 75 297 75 297 75 225 c 2,25,-1
 75 25 l 2,26,27
 75 15 75 15 67.5 7.5 c 128,-1,28
 60 0 60 0 50 0 c 128,-1,29
 40 0 40 0 32.5 7.5 c 128,-1,30
 25 15 25 15 25 25 c 2,31,-1
 25 625 l 2,32,33
 25 635 25 635 32.5 642.5 c 128,-1,0
 40 650 40 650 50 650 c 128,-1,1
EndSplineSet
EndChar

StartChar: at
Encoding: 64 64 65
Width: 500
VWidth: 1000
Flags: W
LayerCount: 2
Fore
SplineSet
249.9140625 450 m 1,0,-1
 250.083984375 450 l 1,1,-1
 250.97265625 449.935546875 l 0,2,3
 252.17446363 449.908265704 252.17446363 449.908265704 253.376953125 449.763671875 c 0,4,5
 266.995060552 449.606893917 266.995060552 449.606893917 280.5 447.80859375 c 0,6,7
 284.557726111 447.099891405 284.557726111 447.099891405 288.56640625 446.248046875 c 0,8,9
 299.602787025 444.426707304 299.602787025 444.426707304 310.416015625 441.515625 c 0,10,11
 315.078506815 440.088301562 315.078506815 440.088301562 319.630859375 438.4765625 c 0,12,13
 329.623375232 435.297526288 329.623375232 435.297526288 339.287109375 431.197265625 c 0,14,15
 343.868635463 429.132932304 343.868635463 429.132932304 348.34375 426.87109375 c 0,16,17
 357.724609375 422.341796875 357.724609375 422.341796875 366.640625 416.970703125 c 0,18,19
 370.864749676 414.373159791 370.864749676 414.373159791 374.9375 411.615234375 c 0,20,21
 383.758900263 405.706106608 383.758900263 405.706106608 391.97265625 399.001953125 c 0,22,23
 395.620254813 396.054576294 395.620254813 396.054576294 399.095703125 393 c 0,24,25
 407.421620209 385.561366183 407.421620209 385.561366183 414.974609375 377.330078125 c 0,26,27
 417.778348385 374.387828867 417.778348385 374.387828867 420.462890625 371.359375 c 0,28,29
 473.502840431 309.635353658 473.502840431 309.635353658 474.78515625 228.263671875 c 0,30,31
 475 226.630859375 475 226.630859375 475 225 c 128,-1,32
 475 223.369140625 475 223.369140625 474.78515625 221.736328125 c 0,33,34
 473.46289063 171.121349576 473.46289063 171.121349576 437.123722281 135.595785891 c 128,-1,35
 400.784553932 100.070222207 400.784553932 100.070222207 350 100 c 2,36,-1
 250 100 l 2,37,38
 198 100 198 100 161.5 136.5 c 128,-1,39
 125 173 125 173 125 225 c 128,-1,40
 125 277 125 277 161.5 313.5 c 128,-1,41
 198 350 198 350 250 350 c 128,-1,42
 302 350 302 350 338.5 313.5 c 128,-1,43
 375 277 375 277 375 225 c 0,44,45
 375 183 375 183 350 150 c 1,46,47
 381 150 381 150 403 172 c 128,-1,48
 425 194 425 194 425 225 c 0,49,50
 425 297 425 297 373.5 348.5 c 128,-1,51
 322 400 322 400 250 400 c 0,52,53
 226.960076334 400 226.960076334 400 204.70703125 394.037109375 c 128,-1,54
 182.452840502 388.074285001 182.452840502 388.074285001 162.5 376.5546875 c 128,-1,55
 142.548767248 365.035095373 142.548767248 365.035095373 126.2578125 348.744140625 c 0,56,57
 118.144233247 340.630561372 118.144233247 340.630561372 111.1640625 331.533203125 c 128,-1,58
 104.179008182 322.430043298 104.179008182 322.430043298 98.4453125 312.5 c 0,59,60
 86.9257149992 292.547159498 86.9257149992 292.547159498 80.962890625 270.29296875 c 0,61,62
 77.9940759611 259.208698848 77.9940759611 259.208698848 76.498046875 247.841796875 c 128,-1,63
 75 236.466372032 75 236.466372032 75 225 c 0,64,65
 75 158.817829922 75 158.817829922 118.731185459 109.416502731 c 128,-1,66
 162.462370918 60.0151755388 162.462370918 60.0151755388 227.158203125 51.498046875 c 0,67,68
 238.533627968 50 238.533627968 50 250 50 c 2,69,-1
 450 50 l 2,70,71
 460 50 460 50 467.5 42.5 c 128,-1,72
 475 35 475 35 475 25 c 128,-1,73
 475 15 475 15 467.5 7.5 c 128,-1,74
 460 0 460 0 450 0 c 2,75,-1
 250 0 l 0,76,77
 248.369140625 0 248.369140625 0 246.736328125 0.21484375 c 0,78,79
 165.365912987 1.49568245396 165.365912987 1.49568245396 103.640625 54.53515625 c 0,80,81
 100.620864076 57.213275957 100.620864076 57.213275957 97.671875 60.0234375 c 0,82,83
 89.4385422514 67.5784228191 89.4385422514 67.5784228191 81.998046875 75.90625 c 0,84,85
 78.9252517742 79.4032307623 78.9252517742 79.4032307623 76.005859375 83.017578125 c 0,86,87
 69.2915299849 91.2460662544 69.2915299849 91.2460662544 63.38671875 100.0625 c 0,88,89
 60.615806725 104.153799127 60.615806725 104.153799127 58.0234375 108.369140625 c 0,90,91
 52.6643231861 117.266653953 52.6643231861 117.266653953 48.146484375 126.623046875 c 0,92,93
 45.8759749676 131.114067426 45.8759749676 131.114067426 43.80078125 135.720703125 c 0,94,95
 39.7005205871 145.384437268 39.7005205871 145.384437268 36.521484375 155.376953125 c 0,96,97
 34.9112086556 159.929078716 34.9112086556 159.929078716 33.486328125 164.583984375 c 0,98,99
 30.5777661599 175.38742685 30.5777661599 175.38742685 28.755859375 186.419921875 c 0,100,101
 27.8970779609 190.460199201 27.8970779609 190.460199201 27.19140625 194.498046875 c 0,102,103
 25.3932212894 207.994006727 25.3932212894 207.994006727 25.236328125 221.625 c 0,104,105
 25.0952147513 222.811234298 25.0952147513 222.811234298 25.06640625 224.00390625 c 2,106,-1
 25 224.9140625 l 1,107,-1
 25 225.083984375 l 1,108,-1
 25.064453125 225.97265625 l 0,109,110
 25.0876032059 227.125819653 25.0876032059 227.125819653 25.21484375 228.263671875 c 2,111,-1
 25.306640625 229.333984375 l 0,112,113
 25.4850406109 242.467963979 25.4850406109 242.467963979 27.19140625 255.5 c 0,114,115
 27.4941366444 257.126433884 27.4941366444 257.126433884 27.814453125 258.720703125 c 0,116,117
 28.0690510416 260.081069508 28.0690510416 260.081069508 28.328125 261.375 c 0,118,119
 28.5183423913 262.387228261 28.5183423913 262.387228261 28.751953125 263.56640625 c 0,120,121
 30.5732926957 274.602787025 30.5732926957 274.602787025 33.484375 285.416015625 c 0,122,123
 34.0053520698 287.033309659 34.0053520698 287.033309659 34.525390625 288.5703125 c 0,124,125
 35.1382580757 290.483064247 35.1382580757 290.483064247 35.751953125 292.291015625 c 0,126,127
 36.120596206 293.429936272 36.120596206 293.429936272 36.5234375 294.630859375 c 0,128,129
 39.7024737121 304.623375232 39.7024737121 304.623375232 43.802734375 314.287109375 c 0,130,131
 44.5321439254 315.843083436 44.5321439254 315.843083436 45.259765625 317.3359375 c 0,132,133
 46.1739649904 319.298517105 46.1739649904 319.298517105 47.12109375 321.232421875 c 0,134,135
 47.5941769026 322.237200252 47.5941769026 322.237200252 48.12890625 323.34375 c 0,136,137
 52.658203125 332.724609375 52.658203125 332.724609375 58.029296875 341.640625 c 0,138,139
 58.9592873408 343.10641845 58.9592873408 343.10641845 59.9140625 344.560546875 c 0,140,141
 61.00691738 346.289584031 61.00691738 346.289584031 62.171875 348.05859375 c 0,142,143
 62.8063975548 349.051960371 62.8063975548 349.051960371 63.384765625 349.9375 c 0,144,145
 69.2938933924 358.758900263 69.2938933924 358.758900263 75.998046875 366.97265625 c 0,146,147
 77.1270455666 368.334555301 77.1270455666 368.334555301 78.333984375 369.744140625 c 0,148,149
 78.9088438561 370.523706165 78.9088438561 370.523706165 79.537109375 371.359375 c 0,150,151
 80.4275604179 372.341083448 80.4275604179 372.341083448 81.423828125 373.412109375 c 2,152,-1
 82 374.095703125 l 1,153,-1
 82.763671875 374.869140625 l 0,154,155
 83.8837325671 376.106873063 83.8837325671 376.106873063 85.025390625 377.330078125 c 0,156,157
 88.117518306 380.504720449 88.117518306 380.504720449 91.361328125 383.58203125 c 128,-1,158
 94.4471460343 386.836298513 94.4471460343 386.836298513 97.669921875 389.974609375 c 0,159,160
 98.9035901465 391.126904945 98.9035901465 391.126904945 100.15625 392.26171875 c 2,161,-1
 100.908203125 393.001953125 l 1,162,-1
 101.572265625 393.5625 l 0,163,164
 102.570351304 394.491411424 102.570351304 394.491411424 103.640625 395.462890625 c 0,165,166
 104.460255295 396.079466037 104.460255295 396.079466037 105.2578125 396.66796875 c 0,167,168
 106.625981917 397.840062932 106.625981917 397.840062932 108.017578125 398.994140625 c 0,169,170
 116.239468148 405.704546425 116.239468148 405.704546425 125.0625 411.615234375 c 0,171,172
 125.992524025 412.222151462 125.992524025 412.222151462 126.9375 412.826171875 c 0,173,174
 128.664141788 413.963758166 128.664141788 413.963758166 130.44921875 415.091796875 c 0,175,176
 131.932659908 416.064838761 131.932659908 416.064838761 133.37109375 416.9765625 c 0,177,178
 142.272703295 422.338144031 142.272703295 422.338144031 151.625 426.85546875 c 0,179,180
 152.74370096 427.396277225 152.74370096 427.396277225 153.759765625 427.875 c 0,181,182
 155.737602764 428.843706002 155.737602764 428.843706002 157.666015625 429.7421875 c 0,183,184
 159.267469537 430.521231328 159.267469537 430.521231328 160.720703125 431.201171875 c 0,185,186
 170.380011383 435.298071354 170.380011383 435.298071354 180.376953125 438.478515625 c 0,187,188
 181.508869907 438.858236748 181.508869907 438.858236748 182.689453125 439.240234375 c 0,189,190
 184.591559625 439.885779596 184.591559625 439.885779596 186.4453125 440.478515625 c 0,191,192
 187.994979393 441.002387908 187.994979393 441.002387908 189.583984375 441.513671875 c 0,193,194
 200.38742685 444.42223384 200.38742685 444.42223384 211.419921875 446.244140625 c 0,195,196
 212.40091104 446.439540906 212.40091104 446.439540906 213.599609375 446.666015625 c 128,-1,197
 214.891954787 446.925054023 214.891954787 446.925054023 216.28125 447.185546875 c 128,-1,198
 217.867373736 447.504519417 217.867373736 447.504519417 219.498046875 447.80859375 c 0,199,200
 232.527511605 449.516796631 232.527511605 449.516796631 245.67578125 449.6953125 c 2,201,-1
 246.736328125 449.78515625 l 0,202,203
 247.857149097 449.910338852 247.857149097 449.910338852 249.00390625 449.93359375 c 2,204,-1
 249.9140625 450 l 1,0,-1
250 300 m 128,-1,206
 219 300 219 300 197 278 c 128,-1,207
 175 256 175 256 175 225 c 128,-1,208
 175 194 175 194 197 172 c 128,-1,209
 219 150 219 150 250 150 c 128,-1,210
 281 150 281 150 303 172 c 128,-1,211
 325 194 325 194 325 225 c 128,-1,212
 325 256 325 256 303 278 c 128,-1,205
 281 300 281 300 250 300 c 128,-1,206
EndSplineSet
EndChar

StartChar: T
Encoding: 84 84 66
Width: 500
VWidth: 1000
Flags: W
LayerCount: 2
Fore
SplineSet
50 650 m 2,0,-1
 450 650 l 2,1,2
 460 650 460 650 467.5 642.5 c 128,-1,3
 475 635 475 635 475 625 c 128,-1,4
 475 615 475 615 467.5 607.5 c 128,-1,5
 460 600 460 600 450 600 c 2,6,-1
 275 600 l 1,7,-1
 275 25 l 2,8,9
 275 15 275 15 267.5 7.5 c 128,-1,10
 260 0 260 0 250 0 c 128,-1,11
 240 0 240 0 232.5 7.5 c 128,-1,12
 225 15 225 15 225 25 c 2,13,-1
 225 600 l 1,14,-1
 50 600 l 2,15,16
 40 600 40 600 32.5 607.5 c 128,-1,17
 25 615 25 615 25 625 c 128,-1,18
 25 635 25 635 32.5 642.5 c 128,-1,19
 40 650 40 650 50 650 c 2,0,-1
EndSplineSet
EndChar

StartChar: greater
Encoding: 62 62 67
Width: 500
VWidth: 1000
Flags: W
LayerCount: 2
Fore
SplineSet
50 450 m 0,0,1
 55.900808746 450 55.900808746 450 61.1796875 447.361328125 c 2,2,-1
 461.1796875 247.361328125 l 0,3,4
 475 240.451171875 475 240.451171875 475 225 c 128,-1,5
 475 209.548828125 475 209.548828125 461.1796875 202.638671875 c 2,6,-1
 361.174045139 152.635416667 l 0,7,8
 261.168402778 102.632161458 261.168402778 102.632161458 161.168402778 52.6321614583 c 128,-1,9
 61.1684027778 2.63216145833 61.1684027778 2.63216145833 61.1796875 2.638671875 c 1,10,11
 55.900808746 0 55.900808746 0 50 0 c 0,12,13
 40 0 40 0 32.5 7.5 c 128,-1,14
 25 15 25 15 25 25 c 0,15,16
 25 40.451171875 25 40.451171875 38.8203125 47.361328125 c 2,17,-1
 394.09765625 225 l 1,18,-1
 38.8203125 402.638671875 l 0,19,20
 25 409.548828125 25 409.548828125 25 425 c 0,21,22
 25 435 25 435 32.5 442.5 c 128,-1,23
 40 450 40 450 50 450 c 0,0,1
EndSplineSet
EndChar

StartChar: asterisk
Encoding: 42 42 68
Width: 500
VWidth: 1000
Flags: W
LayerCount: 2
Fore
SplineSet
250 450 m 128,-1,1
 260 450 260 450 267.5 442.5 c 128,-1,2
 275 435 275 435 275 425 c 2,3,-1
 275 265.451171875 l 1,4,-1
 315.960720486 285.931966146 l 0,5,6
 356.921440972 306.412760417 356.921440972 306.412760417 397.876519097 326.890299479 c 128,-1,7
 438.831597222 347.367838542 438.831597222 347.367838542 438.8203125 347.361328125 c 1,8,9
 444.099191254 350 444.099191254 350 450 350 c 0,10,11
 460 350 460 350 467.5 342.5 c 128,-1,12
 475 335 475 335 475 325 c 0,13,14
 475 309.548828125 475 309.548828125 461.1796875 302.638671875 c 2,15,-1
 305.90234375 225 l 1,16,-1
 461.1796875 147.361328125 l 0,17,18
 475 140.451171875 475 140.451171875 475 125 c 0,19,20
 475 115 475 115 467.5 107.5 c 128,-1,21
 460 100 460 100 450 100 c 0,22,23
 444.099191254 100 444.099191254 100 438.8203125 102.638671875 c 2,24,-1
 275 184.548828125 l 1,25,-1
 275 25 l 2,26,27
 275 15 275 15 267.5 7.5 c 128,-1,28
 260 0 260 0 250 0 c 128,-1,29
 240 0 240 0 232.5 7.5 c 128,-1,30
 225 15 225 15 225 25 c 2,31,-1
 225 184.548828125 l 1,32,-1
 184.039279514 164.068033854 l 0,33,34
 143.078559028 143.587239583 143.078559028 143.587239583 102.123480903 123.109700521 c 128,-1,35
 61.1684027778 102.632161458 61.1684027778 102.632161458 61.1796875 102.638671875 c 1,36,37
 55.900808746 100 55.900808746 100 50 100 c 0,38,39
 40 100 40 100 32.5 107.5 c 128,-1,40
 25 115 25 115 25 125 c 0,41,42
 25 140.451171875 25 140.451171875 38.8203125 147.361328125 c 2,43,-1
 194.09765625 225 l 1,44,-1
 38.8203125 302.638671875 l 0,45,46
 25 309.548828125 25 309.548828125 25 325 c 0,47,48
 25 335 25 335 32.5 342.5 c 128,-1,49
 40 350 40 350 50 350 c 0,50,51
 55.900808746 350 55.900808746 350 61.1796875 347.361328125 c 2,52,-1
 225 265.451171875 l 1,53,-1
 225 425 l 2,54,55
 225 435 225 435 232.5 442.5 c 128,-1,0
 240 450 240 450 250 450 c 128,-1,1
EndSplineSet
EndChar

StartChar: three
Encoding: 51 51 69
Width: 500
VWidth: 1000
Flags: W
LayerCount: 2
Fore
SplineSet
300 650 m 2,0,1
 372 650 372 650 423.5 598.5 c 128,-1,2
 475 547 475 547 475 475 c 0,3,4
 474.949545962 427.945122923 474.949545962 427.945122923 451.871887885 388.125713796 c 128,-1,5
 428.794229808 348.306304669 428.794229808 348.306304669 389.826171875 325 c 1,6,7
 428.794229808 301.693695331 428.794229808 301.693695331 451.871887885 261.874286204 c 128,-1,8
 474.949545962 222.054877077 474.949545962 222.054877077 475 175 c 0,9,10
 475 103 475 103 423.5 51.5 c 128,-1,11
 372 0 372 0 300 0 c 2,12,-1
 250 0 l 1,13,-1
 50 0 l 2,14,15
 40 0 40 0 32.5 7.5 c 128,-1,16
 25 15 25 15 25 25 c 128,-1,17
 25 35 25 35 32.5 42.5 c 128,-1,18
 40 50 40 50 50 50 c 2,19,-1
 250 50 l 1,20,-1
 300 50 l 2,21,22
 352 50 352 50 388.5 86.5 c 128,-1,23
 425 123 425 123 425 175 c 128,-1,24
 425 227 425 227 388.5 263.5 c 128,-1,25
 352 300 352 300 300 300 c 2,26,-1
 250 300 l 1,27,-1
 150 300 l 2,28,29
 140 300 140 300 132.5 307.5 c 128,-1,30
 125 315 125 315 125 325 c 128,-1,31
 125 335 125 335 132.5 342.5 c 128,-1,32
 140 350 140 350 150 350 c 2,33,-1
 250 350 l 1,34,-1
 300 350 l 2,35,36
 352 350 352 350 388.5 386.5 c 128,-1,37
 425 423 425 423 425 475 c 128,-1,38
 425 527 425 527 388.5 563.5 c 128,-1,39
 352 600 352 600 300 600 c 2,40,-1
 250 600 l 1,41,-1
 50 600 l 2,42,43
 40 600 40 600 32.5 607.5 c 128,-1,44
 25 615 25 615 25 625 c 128,-1,45
 25 635 25 635 32.5 642.5 c 128,-1,46
 40 650 40 650 50 650 c 2,47,-1
 250 650 l 1,48,-1
 300 650 l 2,0,1
EndSplineSet
EndChar

StartChar: quotesingle
Encoding: 39 39 70
Width: 500
VWidth: 1000
Flags: W
LayerCount: 2
Fore
SplineSet
250 650 m 128,-1,1
 260 650 260 650 267.5 642.5 c 128,-1,2
 275 635 275 635 275 625 c 2,3,-1
 275 525 l 2,4,5
 275 515 275 515 267.5 507.5 c 128,-1,6
 260 500 260 500 250 500 c 128,-1,7
 240 500 240 500 232.5 507.5 c 128,-1,8
 225 515 225 515 225 525 c 2,9,-1
 225 625 l 2,10,11
 225 635 225 635 232.5 642.5 c 128,-1,0
 240 650 240 650 250 650 c 128,-1,1
EndSplineSet
EndChar

StartChar: ampersand
Encoding: 38 38 71
Width: 500
VWidth: 1000
Flags: W
LayerCount: 2
Fore
SplineSet
200 650 m 2,0,-1
 250 650 l 1,1,-1
 450 650 l 2,2,3
 460 650 460 650 467.5 642.5 c 128,-1,4
 475 635 475 635 475 625 c 128,-1,5
 475 615 475 615 467.5 607.5 c 128,-1,6
 460 600 460 600 450 600 c 2,7,-1
 250 600 l 1,8,-1
 200 600 l 2,9,10
 148 600 148 600 111.5 563.5 c 128,-1,11
 75 527 75 527 75 475 c 128,-1,12
 75 423 75 423 111.5 386.5 c 128,-1,13
 148 350 148 350 200 350 c 2,14,-1
 250 350 l 1,15,-1
 425 350 l 1,16,-1
 425 525 l 2,17,18
 425 535 425 535 432.5 542.5 c 128,-1,19
 440 550 440 550 450 550 c 128,-1,20
 460 550 460 550 467.5 542.5 c 128,-1,21
 475 535 475 535 475 525 c 2,22,-1
 475 175 l 1,23,-1
 475 25 l 2,24,25
 475 15 475 15 467.5 7.5 c 128,-1,26
 460 0 460 0 450 0 c 128,-1,27
 440 0 440 0 432.5 7.5 c 128,-1,28
 425 15 425 15 425 25 c 2,29,-1
 424.99609375 31.9365234375 l 0,30,31
 424.9921875 38.873046875 424.9921875 38.873046875 424.9921875 45.8017578125 c 128,-1,32
 424.9921875 52.73046875 424.9921875 52.73046875 425 52.71484375 c 0,33,34
 373.582499837 0.0777874237825 373.582499837 0.0777874237825 300 0 c 2,35,-1
 250 0 l 1,36,-1
 237.5 0 l 0,37,38
 225 0 225 0 212.5 0 c 0,39,-1
 200 0 l 1,40,41
 128.523379238 0.0753702631935 128.523379238 0.0753702631935 77.5340307805 50.2505604681 c 128,-1,42
 26.5446823229 100.425750673 26.5446823229 100.425750673 25.21484375 171.736328125 c 0,43,44
 25 173.369140625 25 173.369140625 25 175 c 0,45,-1
 25 175.030273438 l 0,46,-1
 25 175.0625 l 0,47,48
 25.0670329095 222.098699747 25.0670329095 222.098699747 48.1431200502 261.900153376 c 128,-1,49
 71.2192071909 301.701607006 71.2192071909 301.701607006 110.173828125 325 c 1,50,51
 71.2192071909 348.298392994 71.2192071909 348.298392994 48.1431200502 388.099846624 c 128,-1,52
 25.0670329095 427.901300253 25.0670329095 427.901300253 25 474.9375 c 0,53,-1
 25 474.967773438 l 0,54,-1
 25 475 l 0,55,56
 25 476.630859375 25 476.630859375 25.21484375 478.263671875 c 0,57,58
 26.5446823229 549.574249327 26.5446823229 549.574249327 77.5340307805 599.749439532 c 128,-1,59
 128.523379238 649.924629737 128.523379238 649.924629737 200 650 c 2,0,-1
200 300 m 2,60,61
 148 300 148 300 111.5 263.5 c 128,-1,62
 75 227 75 227 75 175 c 128,-1,63
 75 123 75 123 111.5 86.5 c 128,-1,64
 148 50 148 50 200 50 c 2,65,-1
 250 50 l 1,66,-1
 300 50 l 2,67,68
 352 50 352 50 388.5 86.5 c 128,-1,69
 425 123 425 123 425 175 c 2,70,-1
 425 300 l 1,71,-1
 250 300 l 1,72,-1
 200 300 l 2,60,61
EndSplineSet
EndChar

StartChar: two
Encoding: 50 50 72
Width: 500
VWidth: 1000
Flags: W
LayerCount: 2
Fore
SplineSet
250 650 m 2,0,-1
 250.00390625 650 l 0,1,2
 251.601834441 649.907510835 251.601834441 649.907510835 253.263671875 649.787109375 c 0,3,4
 281.212107808 649.475197701 281.212107808 649.475197701 308.234375 642.333984375 c 1,5,-1
 308.236328125 642.333984375 l 1,6,7
 337.372193012 634.490219334 337.372193012 634.490219334 363.41015625 619.248046875 c 2,8,-1
 363.98828125 618.861328125 l 0,9,10
 376.184539716 611.73334128 376.184539716 611.73334128 387.3828125 603.14453125 c 2,11,-1
 387.389648438 603.138671875 l 0,12,13
 398.856140268 594.318293544 398.856140268 594.318293544 409.099609375 584.099609375 c 128,-1,14
 419.313940594 573.863421527 419.313940594 573.863421527 428.140625 562.390625 c 2,15,-1
 428.146484375 562.3828125 l 1,16,-1
 428.16015625 562.36328125 l 0,17,18
 436.76479735 551.141621176 436.76479735 551.141621176 443.893554688 538.936523438 c 2,19,-1
 444.103515625 538.626953125 l 1,20,-1
 444.2421875 538.421875 l 1,21,-1
 444.244140625 538.41796875 l 1,22,-1
 444.25 538.40625 l 1,23,-1
 444.25 538.40625 l 0,24,-1
 444.85546875 537.5 l 1,25,26
 451.68932906 525.547021507 451.68932906 525.547021507 457.017578125 512.83984375 c 2,27,-1
 457.142578125 512.587890625 l 1,28,-1
 457.146484375 512.578125 l 1,29,30
 462.735573142 499.304783199 462.735573142 499.304783199 466.583984375 485.44140625 c 2,31,-1
 466.61328125 485.359375 l 1,32,-1
 466.62890625 485.314453125 l 1,33,-1
 466.62890625 485.311523438 l 1,34,35
 467.012939453 484.197509766 467.012939453 484.197509766 467.333984375 483.234375 c 0,36,37
 474.9555114 454.788486436 474.9555114 454.788486436 475 425.342773438 c 2,38,-1
 475.001953125 425.0234375 l 1,39,-1
 475.001953125 425.021484375 l 1,40,-1
 475 425 l 0,41,42
 474.907652109 423.403091856 474.907652109 423.403091856 474.787109375 421.736328125 c 2,43,-1
 474.787109375 421.734375 l 0,44,45
 474.473751588 393.786597722 474.473751588 393.786597722 467.333984375 366.765625 c 1,46,-1
 467.333984375 366.763671875 l 1,47,48
 451.730046249 308.530827499 451.730046249 308.530827499 409.099609375 265.900390625 c 0,49,50
 398.863421527 255.686059406 398.863421527 255.686059406 387.390625 246.859375 c 2,51,-1
 387.3828125 246.853515625 l 0,52,53
 376.005335717 238.112104569 376.005335717 238.112104569 363.626953125 230.896484375 c 2,54,-1
 363.421875 230.7578125 l 1,55,-1
 363.41796875 230.755859375 l 1,56,57
 350.910766812 223.472679615 350.910766812 223.472679615 337.587890625 217.857421875 c 128,-1,58
 324.290931058 212.252758618 324.290931058 212.252758618 310.359375 208.38671875 c 2,59,-1
 310.314453125 208.37109375 l 1,60,-1
 310.313476562 208.37109375 l 1,61,62
 296.374930528 204.506470712 296.374930528 204.506470712 282.05078125 202.45703125 c 128,-1,63
 267.725511489 200.408033473 267.725511489 200.408033473 253.262695312 200.2109375 c 0,64,65
 251.656266704 199.999488031 251.656266704 199.999488031 250.0234375 199.998046875 c 2,66,-1
 250.021484375 199.998046875 l 1,67,-1
 249.953125 200.001953125 l 1,68,-1
 249.83203125 200.001953125 l 0,69,70
 242.921350529 199.815685299 242.921350529 199.815685299 236.0546875 199.0859375 c 0,71,72
 231.587431071 198.905864281 231.587431071 198.905864281 227.094726562 198.493164062 c 0,73,74
 219.798517702 197.357709872 219.798517702 197.357709872 212.625 195.61328125 c 0,75,76
 208.630735825 194.91013809 208.630735825 194.91013809 204.66796875 194.0234375 c 0,77,78
 197.560181722 191.941388176 197.560181722 191.941388176 190.650390625 189.265625 c 0,79,80
 186.787040702 188.051597896 186.787040702 188.051597896 182.994140625 186.663085938 c 0,81,82
 176.065178472 183.610117434 176.065178472 183.610117434 169.431640625 179.97265625 c 0,83,84
 165.920300378 178.336574188 165.920300378 178.336574188 162.48046875 176.54296875 c 0,85,86
 152.560086274 170.814790249 152.560086274 170.814790249 143.466796875 163.837890625 c 128,-1,87
 134.36936913 156.859121676 134.36936913 156.859121676 126.254882812 148.74609375 c 1,88,-1
 126.254882812 148.744140625 l 1,89,90
 85.1082587875 107.595975239 85.1082587875 107.595975239 76.794921875 50 c 1,91,-1
 170.09640842 49.9943576389 l 0,92,93
 263.397894965 49.9887152778 263.397894965 49.9887152778 356.699164497 49.9887152778 c 128,-1,94
 450.000434028 49.9887152778 450.000434028 49.9887152778 450 50 c 1,95,96
 459.452438175 50 459.452438175 50 466.508877428 43.7552856949 c 128,-1,97
 473.56531668 37.5105713899 473.56531668 37.5105713899 474.78515625 28.271484375 c 2,98,-1
 474.78515625 28.263671875 l 0,99,100
 475 26.630859375 475 26.630859375 475 25 c 128,-1,101
 475 23.369140625 475 23.369140625 474.78515625 21.736328125 c 2,102,-1
 474.78515625 21.728515625 l 1,103,104
 473.56531668 12.4894286101 473.56531668 12.4894286101 466.508877428 6.24471430506 c 128,-1,105
 459.452438175 0 459.452438175 0 450 0 c 2,106,-1
 350 0 l 0,107,108
 250 0 250 0 150 0 c 0,109,-1
 50 0 l 1,110,111
 40.5475618245 0 40.5475618245 0 33.4911225722 6.24471430506 c 128,-1,112
 26.43468332 12.4894286101 26.43468332 12.4894286101 25.21484375 21.728515625 c 2,113,-1
 25.21484375 21.736328125 l 0,114,115
 25 23.369140625 25 23.369140625 25 25 c 128,-1,116
 25.097370156 26.6626691797 25.097370156 26.6626691797 25.21484375 28.271484375 c 0,117,118
 25.5267201245 56.2110084281 25.5267201245 56.2110084281 32.666015625 83.234375 c 1,119,-1
 32.666015625 83.236328125 l 1,120,121
 48.2699537512 141.469172501 48.2699537512 141.469172501 90.900390625 184.099609375 c 0,122,123
 101.136578473 194.313940594 101.136578473 194.313940594 112.609375 203.140625 c 2,124,-1
 112.6171875 203.146484375 l 0,125,126
 123.994664283 211.887895431 123.994664283 211.887895431 136.373046875 219.103515625 c 2,127,-1
 136.578125 219.2421875 l 1,128,-1
 136.58203125 219.244140625 l 1,129,130
 149.089233188 226.527320385 149.089233188 226.527320385 162.412109375 232.142578125 c 128,-1,131
 175.709068942 237.747241382 175.709068942 237.747241382 189.640625 241.61328125 c 2,132,-1
 189.685546875 241.62890625 l 1,133,-1
 189.686523438 241.62890625 l 1,134,135
 203.625069472 245.493529288 203.625069472 245.493529288 217.94921875 247.54296875 c 128,-1,136
 232.274488511 249.591966527 232.274488511 249.591966527 246.737304688 249.7890625 c 0,137,138
 248.343733296 250.000511969 248.343733296 250.000511969 249.9765625 250.001953125 c 2,139,-1
 249.978515625 250.001953125 l 1,140,-1
 250.046875 249.998046875 l 1,141,-1
 250.16796875 249.998046875 l 0,142,143
 257.078649471 250.184314701 257.078649471 250.184314701 263.9453125 250.9140625 c 0,144,145
 268.412568929 251.094135719 268.412568929 251.094135719 272.905273438 251.506835938 c 0,146,147
 280.201482298 252.642290128 280.201482298 252.642290128 287.375 254.38671875 c 0,148,149
 291.369264175 255.08986191 291.369264175 255.08986191 295.33203125 255.9765625 c 0,150,151
 302.439818278 258.058611824 302.439818278 258.058611824 309.349609375 260.734375 c 0,152,153
 313.212959298 261.948402104 313.212959298 261.948402104 317.005859375 263.336914062 c 0,154,155
 323.934821528 266.389882566 323.934821528 266.389882566 330.568359375 270.02734375 c 0,156,157
 334.079699622 271.663425812 334.079699622 271.663425812 337.51953125 273.45703125 c 0,158,159
 347.443860543 279.187488702 347.443860543 279.187488702 356.534179688 286.162109375 c 128,-1,160
 365.634278351 293.144043976 365.634278351 293.144043976 373.744140625 301.25390625 c 1,161,-1
 373.744140625 301.255859375 l 1,162,163
 425 352.51171875 425 352.51171875 425 425 c 0,164,165
 424.821098871 431.9901288 424.821098871 431.9901288 424.084960938 438.9453125 c 0,166,167
 423.903748387 443.430685551 423.903748387 443.430685551 423.495117188 447.884765625 c 0,168,169
 422.270034983 456.025634469 422.270034983 456.025634469 420.28515625 464.015625 c 0,170,171
 419.711379704 467.189050664 419.711379704 467.189050664 419.0234375 470.33203125 c 0,172,173
 416.941388176 477.439818278 416.941388176 477.439818278 414.265625 484.349609375 c 0,174,175
 413.051597896 488.212959298 413.051597896 488.212959298 411.663085938 492.005859375 c 0,176,177
 408.610117434 498.934821528 408.610117434 498.934821528 404.97265625 505.568359375 c 0,178,179
 403.331944814 509.088377627 403.331944814 509.088377627 401.546875 512.51171875 c 0,180,181
 395.811185097 522.44550144 395.811185097 522.44550144 388.837890625 531.533203125 c 128,-1,182
 381.859362911 540.626965214 381.859362911 540.626965214 373.744140625 548.7421875 c 1,183,-1
 373.744140625 548.744140625 l 0,184,185
 365.653572149 556.828874907 365.653572149 556.828874907 356.586914062 563.787109375 c 0,186,187
 353.642172339 565.849745158 353.642172339 565.849745158 350.6171875 567.7890625 c 0,188,189
 344.303747026 572.428795823 344.303747026 572.428795823 337.626953125 576.470703125 c 0,190,191
 333.734717376 578.52251597 333.734717376 578.52251597 329.775390625 580.36328125 c 0,192,193
 323.601339419 583.721564117 323.601339419 583.721564117 317.174804688 586.576171875 c 0,194,195
 312.758087533 588.225984698 312.758087533 588.225984698 308.224609375 589.646484375 c 0,196,197
 301.982352322 592.034103153 301.982352322 592.034103153 295.591796875 593.935546875 c 0,198,199
 290.694100627 595.077996469 290.694100627 595.077996469 285.759765625 595.93359375 c 0,200,201
 279.544796889 597.408557766 279.544796889 597.408557766 273.216796875 598.427734375 c 0,202,203
 268.139706003 598.935003633 268.139706003 598.935003633 263.0546875 599.14453125 c 0,204,205
 256.638697381 599.809264138 256.638697381 599.809264138 250.1796875 600 c 2,206,-1
 250 600 l 0,207,208
 226.960076334 600 226.960076334 600 204.70703125 594.037109375 c 0,209,210
 193.626766098 591.06925984 193.626766098 591.06925984 183.029296875 586.6796875 c 0,211,212
 161.743981741 577.86294742 161.743981741 577.86294742 143.466796875 563.837890625 c 0,213,214
 134.373034786 556.859362911 134.373034786 556.859362911 126.2578125 548.744140625 c 1,215,-1
 126.255859375 548.744140625 l 0,216,217
 118.149216065 540.637497315 118.149216065 540.637497315 111.1640625 531.533203125 c 128,-1,218
 104.189625932 522.445034415 104.189625932 522.445034415 98.45703125 512.51953125 c 0,219,220
 96.6540812964 509.061535359 96.6540812964 509.061535359 95.021484375 505.556640625 c 0,221,222
 91.3905583958 498.932853175 91.3905583958 498.932853175 88.33984375 492.004882812 c 0,223,224
 86.7344264224 487.667154486 86.7344264224 487.667154486 85.353515625 483.224609375 c 0,225,226
 82.9165350157 476.870364135 82.9165350157 476.870364135 80.98046875 470.345703125 c 0,227,228
 79.8888519779 465.582822358 79.8888519779 465.582822358 79.06640625 460.759765625 c 0,229,230
 77.5487030173 454.386892734 77.5487030173 454.386892734 76.509765625 447.905273438 c 0,231,232
 76.0437769931 442.997054619 76.0437769931 442.997054619 75.85546875 438.0546875 c 0,233,234
 75.1893017973 431.633130897 75.1893017973 431.633130897 75 425.16796875 c 2,235,-1
 75 425 l 2,236,237
 75 415 75 415 67.5 407.5 c 128,-1,238
 60 400 60 400 50 400 c 0,239,240
 40.5456674641 400.000727984 40.5456674641 400.000727984 33.4886712446 406.247738424 c 128,-1,241
 26.4316750252 412.494748864 26.4316750252 412.494748864 25.21484375 421.736328125 c 0,242,243
 25 423.369140625 25 423.369140625 25 425 c 2,244,-1
 25 425.00390625 l 0,245,246
 25.0924891651 426.601834441 25.0924891651 426.601834441 25.212890625 428.263671875 c 2,247,-1
 25.21484375 428.284179688 l 1,248,249
 25.6131747757 457.327832125 25.6131747757 457.327832125 33.373046875 485.314453125 c 0,250,251
 37.2412155536 499.261301242 37.2412155536 499.261301242 42.859375 512.587890625 c 128,-1,252
 48.4784892759 525.91899742 48.4784892759 525.91899742 55.751953125 538.41015625 c 2,253,-1
 56.138671875 538.98828125 l 0,254,255
 63.26665872 551.184539716 63.26665872 551.184539716 71.85546875 562.3828125 c 2,256,-1
 71.8623046875 562.389648438 l 0,257,258
 80.6793933186 573.851863658 80.6793933186 573.851863658 90.90234375 584.099609375 c 0,259,260
 111.844709259 605.043444318 111.844709259 605.043444318 137.5 619.85546875 c 128,-1,261
 163.157721186 634.668358868 163.157721186 634.668358868 191.765625 642.333984375 c 128,-1,262
 220.380207823 650 220.380207823 650 250 650 c 2,0,-1
EndSplineSet
EndChar

StartChar: equal
Encoding: 61 61 73
Width: 500
VWidth: 1000
Flags: W
LayerCount: 2
Fore
SplineSet
50 350 m 2,0,-1
 150 350 l 0,1,2
 250 350 250 350 350 350 c 0,3,-1
 450 350 l 1,4,5
 459.452630211 350 459.452630211 350 466.50898663 343.755554358 c 128,-1,6
 473.565343049 337.511108717 473.565343049 337.511108717 474.78515625 328.271484375 c 2,7,-1
 474.78515625 328.263671875 l 0,8,9
 475 326.630859375 475 326.630859375 475 325 c 128,-1,10
 475 323.369140625 475 323.369140625 474.78515625 321.736328125 c 2,11,-1
 474.78515625 321.728515625 l 1,12,13
 473.565343049 312.488891283 473.565343049 312.488891283 466.50898663 306.244445642 c 128,-1,14
 459.452630211 300 459.452630211 300 450 300 c 2,15,-1
 350 300 l 0,16,17
 250 300 250 300 150 300 c 0,18,-1
 50 300 l 1,19,20
 40.5473697888 300 40.5473697888 300 33.4910133698 306.244445642 c 128,-1,21
 26.4346569508 312.488891283 26.4346569508 312.488891283 25.21484375 321.728515625 c 2,22,-1
 25.21484375 321.736328125 l 0,23,24
 25 323.369140625 25 323.369140625 25 325 c 128,-1,25
 25 326.630859375 25 326.630859375 25.21484375 328.263671875 c 2,26,-1
 25.21484375 328.271484375 l 1,27,28
 26.4346569508 337.511108717 26.4346569508 337.511108717 33.4910133698 343.755554358 c 128,-1,29
 40.5473697888 350 40.5473697888 350 50 350 c 2,0,-1
50 150 m 2,30,-1
 150 150 l 0,31,32
 250 150 250 150 350 150 c 0,33,-1
 450 150 l 1,34,35
 459.452630211 150 459.452630211 150 466.50898663 143.755554358 c 128,-1,36
 473.565343049 137.511108717 473.565343049 137.511108717 474.78515625 128.271484375 c 2,37,-1
 474.78515625 128.263671875 l 0,38,39
 475 126.630859375 475 126.630859375 475 125 c 128,-1,40
 475 123.369140625 475 123.369140625 474.78515625 121.736328125 c 2,41,-1
 474.78515625 121.728515625 l 1,42,43
 473.565343049 112.488891283 473.565343049 112.488891283 466.50898663 106.244445642 c 128,-1,44
 459.452630211 100 459.452630211 100 450 100 c 2,45,-1
 350 100 l 0,46,47
 250 100 250 100 150 100 c 0,48,-1
 50 100 l 1,49,50
 40.5473697888 100 40.5473697888 100 33.4910133698 106.244445642 c 128,-1,51
 26.4346569508 112.488891283 26.4346569508 112.488891283 25.21484375 121.728515625 c 2,52,-1
 25.21484375 121.736328125 l 0,53,54
 25 123.369140625 25 123.369140625 25 125 c 128,-1,55
 25 126.630859375 25 126.630859375 25.21484375 128.263671875 c 2,56,-1
 25.21484375 128.271484375 l 1,57,58
 26.4346569508 137.511108717 26.4346569508 137.511108717 33.4910133698 143.755554358 c 128,-1,59
 40.5473697888 150 40.5473697888 150 50 150 c 2,30,-1
EndSplineSet
EndChar

StartChar: plus
Encoding: 43 43 74
Width: 500
VWidth: 1000
Flags: W
LayerCount: 2
Fore
SplineSet
250 450 m 128,-1,1
 260 450 260 450 267.5 442.5 c 128,-1,2
 275 435 275 435 275 425 c 2,3,-1
 275 250 l 1,4,-1
 319 250 l 0,5,6
 363 250 363 250 406.5 250 c 0,7,-1
 450 250 l 1,8,9
 459.452630211 250 459.452630211 250 466.50898663 243.755554358 c 128,-1,10
 473.565343049 237.511108717 473.565343049 237.511108717 474.78515625 228.271484375 c 2,11,-1
 474.78515625 228.263671875 l 0,12,13
 475 226.630859375 475 226.630859375 475 225 c 128,-1,14
 475 223.369140625 475 223.369140625 474.78515625 221.736328125 c 2,15,-1
 474.78515625 221.728515625 l 1,16,17
 473.565343049 212.488891283 473.565343049 212.488891283 466.50898663 206.244445642 c 128,-1,18
 459.452630211 200 459.452630211 200 450 200 c 2,19,-1
 275 200 l 1,20,-1
 275 25 l 2,21,22
 275 15 275 15 267.5 7.5 c 128,-1,23
 260 0 260 0 250 0 c 128,-1,24
 240 0 240 0 232.5 7.5 c 128,-1,25
 225 15 225 15 225 25 c 2,26,-1
 225 200 l 1,27,-1
 181 200 l 0,28,29
 137 200 137 200 93.5 200 c 0,30,-1
 50 200 l 1,31,32
 40.5473697888 200 40.5473697888 200 33.4910133698 206.244445642 c 128,-1,33
 26.4346569508 212.488891283 26.4346569508 212.488891283 25.21484375 221.728515625 c 2,34,-1
 25.21484375 221.736328125 l 0,35,36
 25 223.369140625 25 223.369140625 25 225 c 128,-1,37
 25 226.630859375 25 226.630859375 25.21484375 228.263671875 c 2,38,-1
 25.21484375 228.271484375 l 1,39,40
 26.4346569508 237.511108717 26.4346569508 237.511108717 33.4910133698 243.755554358 c 128,-1,41
 40.5473697888 250 40.5473697888 250 50 250 c 2,42,-1
 225 250 l 1,43,-1
 225 425 l 2,44,45
 225 435 225 435 232.5 442.5 c 128,-1,0
 240 450 240 450 250 450 c 128,-1,1
EndSplineSet
EndChar

StartChar: question
Encoding: 63 63 75
Width: 500
VWidth: 1000
Flags: W
LayerCount: 2
Fore
SplineSet
250 650 m 128,-1,1
 343.197638556 650 343.197638556 650 409.099609375 584.099609375 c 128,-1,2
 475.032226562 518.166992188 475.032226562 518.166992188 475.032226562 424.96875 c 128,-1,3
 475.032226562 331.833007812 475.032226562 331.833007812 409.099609375 265.900390625 c 0,4,5
 353.314904049 210.252055488 353.314904049 210.252055488 275 201.564453125 c 1,6,-1
 275 125 l 2,7,8
 275 115 275 115 267.5 107.5 c 128,-1,9
 260 100 260 100 250 100 c 128,-1,10
 240 100 240 100 232.5 107.5 c 128,-1,11
 225 115 225 115 225 125 c 2,12,-1
 225 225 l 0,13,14
 225 228.292737957 225 228.292737957 225.8515625 231.470703125 c 0,15,16
 228.531775277 241.473208918 228.531775277 241.473208918 237.5 246.650390625 c 0,17,18
 240.349314009 248.295663806 240.349314009 248.295663806 243.529296875 249.1484375 c 128,-1,19
 246.707262043 250 246.707262043 250 250 250 c 2,20,-1
 250.177734375 250 l 1,21,22
 322.559995385 250.073294039 322.559995385 250.073294039 373.744140625 301.255859375 c 128,-1,23
 425.025390625 352.537109375 425.025390625 352.537109375 425.025390625 425.024414062 c 128,-1,24
 425.025390625 497.462890625 425.025390625 497.462890625 373.744140625 548.744140625 c 128,-1,25
 322.462890625 600.025390625 322.462890625 600.025390625 249.975585938 600.025390625 c 128,-1,26
 177.537109375 600.025390625 177.537109375 600.025390625 126.255859375 548.744140625 c 128,-1,27
 75.0688974296 497.55717868 75.0688974296 497.55717868 75 425.16796875 c 2,28,-1
 75 425 l 2,29,30
 75 415 75 415 67.5 407.5 c 128,-1,31
 60 400 60 400 50 400 c 128,-1,32
 40 400 40 400 32.5 407.5 c 128,-1,33
 25 415 25 415 25 425 c 0,34,-1
 24.9990234375 424.982421875 l 0,35,36
 24.9990234375 426.629964193 24.9990234375 426.629964193 25.212890625 428.263671875 c 0,37,38
 26.4580187684 519.501206536 26.4580187684 519.501206536 90.900390625 584.099609375 c 0,39,0
 156.802361444 650 156.802361444 650 250 650 c 128,-1,1
250 50 m 128,-1,41
 260 50 260 50 267.5 42.5 c 128,-1,42
 275 35 275 35 275 25 c 128,-1,43
 275 15 275 15 267.5 7.5 c 128,-1,44
 260 0 260 0 250 0 c 128,-1,45
 240 0 240 0 232.5 7.5 c 128,-1,46
 225 15 225 15 225 25 c 128,-1,47
 225 35 225 35 232.5 42.5 c 128,-1,40
 240 50 240 50 250 50 c 128,-1,41
EndSplineSet
EndChar

StartChar: dollar
Encoding: 36 36 76
Width: 500
VWidth: 1000
Flags: W
LayerCount: 2
Fore
SplineSet
250 750 m 128,-1,1
 260 750 260 750 267.5 742.5 c 128,-1,2
 275 735 275 735 275 725 c 2,3,-1
 275 650 l 1,4,-1
 450 650 l 2,5,6
 460 650 460 650 467.5 642.5 c 128,-1,7
 475 635 475 635 475 625 c 128,-1,8
 475 615 475 615 467.5 607.5 c 128,-1,9
 460 600 460 600 450 600 c 2,10,-1
 275 600 l 1,11,-1
 275 350 l 1,12,-1
 300 350 l 2,13,14
 372 350 372 350 423.5 298.5 c 128,-1,15
 475 247 475 247 475 175 c 128,-1,16
 475 103 475 103 423.5 51.5 c 128,-1,17
 372 0 372 0 300 0 c 2,18,-1
 275 0 l 1,19,-1
 275 -75 l 2,20,21
 275 -85 275 -85 267.5 -92.5 c 128,-1,22
 260 -100 260 -100 250 -100 c 128,-1,23
 240 -100 240 -100 232.5 -92.5 c 128,-1,24
 225 -85 225 -85 225 -75 c 2,25,-1
 225 0 l 1,26,-1
 50 0 l 2,27,28
 40 0 40 0 32.5 7.5 c 128,-1,29
 25 15 25 15 25 25 c 128,-1,30
 25 35 25 35 32.5 42.5 c 128,-1,31
 40 50 40 50 50 50 c 2,32,-1
 225 50 l 1,33,-1
 225 300 l 1,34,-1
 200 300 l 2,35,36
 128 300 128 300 76.5 351.5 c 128,-1,37
 25 403 25 403 25 475 c 128,-1,38
 25 547 25 547 76.5 598.5 c 128,-1,39
 128 650 128 650 200 650 c 2,40,-1
 225 650 l 1,41,-1
 225 725 l 2,42,43
 225 735 225 735 232.5 742.5 c 128,-1,0
 240 750 240 750 250 750 c 128,-1,1
200 600 m 2,44,45
 148 600 148 600 111.5 563.5 c 128,-1,46
 75 527 75 527 75 475 c 128,-1,47
 75 423 75 423 111.5 386.5 c 128,-1,48
 148 350 148 350 200 350 c 2,49,-1
 225 350 l 1,50,-1
 225 600 l 1,51,-1
 200 600 l 2,44,45
275 300 m 1,52,-1
 275 50 l 1,53,-1
 300 50 l 2,54,55
 352 50 352 50 388.5 86.5 c 128,-1,56
 425 123 425 123 425 175 c 128,-1,57
 425 227 425 227 388.5 263.5 c 128,-1,58
 352 300 352 300 300 300 c 2,59,-1
 275 300 l 1,52,-1
EndSplineSet
EndChar

StartChar: zero
Encoding: 48 48 77
Width: 500
VWidth: 1000
Flags: W
LayerCount: 2
Fore
SplineSet
250 650 m 128,-1,1
 265.28988445 649.943993097 265.28988445 649.943993097 280.439453125 647.818359375 c 0,2,3
 284.434252438 647.120622549 284.434252438 647.120622549 288.439453125 646.271484375 c 0,4,5
 299.521067186 644.446536028 299.521067186 644.446536028 310.353515625 641.53125 c 0,6,7
 315.012313194 640.106536739 315.012313194 640.106536739 319.569335938 638.49609375 c 0,8,9
 329.562787354 635.320165195 329.562787354 635.320165195 339.228515625 631.22265625 c 0,10,11
 343.826099262 629.153449274 343.826099262 629.153449274 348.30859375 626.888671875 c 0,12,13
 357.685158086 622.363619516 357.685158086 622.363619516 366.607421875 616.990234375 c 0,14,15
 370.814539691 614.404396108 370.814539691 614.404396108 374.876953125 611.65625 c 0,16,17
 383.723011322 605.735556575 383.723011322 605.735556575 391.96484375 599.009765625 c 0,18,19
 395.441260603 596.201834459 395.441260603 596.201834459 398.796875 593.263671875 c 1,20,-1
 429.10546875 638.7265625 l 1,21,-1
 429.19921875 638.8671875 l 1,22,-1
 429.208984375 638.861328125 l 0,23,24
 436.624897594 649.992473212 436.624897594 649.992473212 450 650 c 0,25,26
 460 650 460 650 467.5 642.5 c 128,-1,27
 475 635 475 635 475 625 c 0,28,29
 474.994221301 617.432793588 474.994221301 617.432793588 470.79296875 611.138671875 c 1,30,-1
 470.80078125 611.131835938 l 1,31,-1
 470.70703125 610.9921875 l 1,32,-1
 461.386990017 596.910915799 l 0,33,34
 452.066948785 582.829644097 452.066948785 582.829644097 442.719780816 568.809136285 c 128,-1,35
 433.372612847 554.788628472 433.372612847 554.788628472 433.318359375 554.91015625 c 1,36,37
 473.6843278 498.014190298 473.6843278 498.014190298 474.78515625 428.263671875 c 0,38,39
 475 426.630859375 475 426.630859375 475 425 c 2,40,-1
 475 225 l 0,41,42
 475 223.369140625 475 223.369140625 474.78515625 221.736328125 c 0,43,44
 473.501371422 140.352238889 473.501371422 140.352238889 420.447265625 78.625 c 0,45,46
 417.755230429 75.5890228407 417.755230429 75.5890228407 414.943359375 72.638671875 c 0,47,48
 407.385094659 64.404808078 407.385094659 64.404808078 399.05859375 56.966796875 c 0,49,50
 395.563596731 53.896807851 395.563596731 53.896807851 391.96484375 50.990234375 c 0,51,52
 383.723011322 44.264443425 383.723011322 44.264443425 374.876953125 38.34375 c 0,53,54
 370.804834634 35.5890386045 370.804834634 35.5890386045 366.608398438 33.009765625 c 0,55,56
 357.680695661 27.6339921217 357.680695661 27.6339921217 348.307617188 23.111328125 c 0,57,58
 343.825122699 20.8465507261 343.825122699 20.8465507261 339.227539062 18.77734375 c 0,59,60
 329.561810792 14.6798348055 329.561810792 14.6798348055 319.568359375 11.50390625 c 0,61,62
 315.005060844 9.89124541007 315.005060844 9.89124541007 310.353515625 8.46875 c 0,63,64
 299.519527369 5.55304956853 299.519527369 5.55304956853 288.440429688 3.728515625 c 0,65,66
 284.435229001 2.87937745118 284.435229001 2.87937745118 280.440429688 2.181640625 c 0,67,68
 265.290848696 0.0560051746011 265.290848696 0.0560051746011 250 0 c 128,-1,69
 234.71011555 0.0560069027486 234.71011555 0.0560069027486 219.560546875 2.181640625 c 0,70,71
 215.565747562 2.87937745118 215.565747562 2.87937745118 211.560546875 3.728515625 c 0,72,73
 200.478932814 5.55346397236 200.478932814 5.55346397236 189.646484375 8.46875 c 0,74,75
 184.987686806 9.89346326091 184.987686806 9.89346326091 180.430664062 11.50390625 c 0,76,77
 170.437212646 14.6798348055 170.437212646 14.6798348055 160.771484375 18.77734375 c 0,78,79
 156.173900738 20.8465507261 156.173900738 20.8465507261 151.69140625 23.111328125 c 0,80,81
 142.314841914 27.6363804843 142.314841914 27.6363804843 133.392578125 33.009765625 c 0,82,83
 129.185460309 35.5956038923 129.185460309 35.5956038923 125.123046875 38.34375 c 0,84,85
 116.276988678 44.264443425 116.276988678 44.264443425 108.03515625 50.990234375 c 0,86,87
 104.558739397 53.7981655408 104.558739397 53.7981655408 101.203125 56.736328125 c 1,88,-1
 70.80078125 11.1328125 l 1,89,-1
 70.791015625 11.138671875 l 0,90,91
 63.3751024059 0.00752678807308 63.3751024059 0.00752678807308 50 0 c 0,92,93
 40 0 40 0 32.5 7.5 c 128,-1,94
 25 15 25 15 25 25 c 0,95,96
 25.0057786991 32.5672064119 25.0057786991 32.5672064119 29.20703125 38.861328125 c 1,97,-1
 29.19921875 38.8671875 l 1,98,-1
 38.5426974826 52.9836154514 l 0,99,100
 47.8861762153 67.1000434028 47.8861762153 67.1000434028 57.256781684 81.1557074653 c 128,-1,101
 66.6273871528 95.2113715278 66.6273871528 95.2113715278 66.681640625 95.08984375 c 1,102,103
 26.3156721998 151.985809702 26.3156721998 151.985809702 25.21484375 221.736328125 c 0,104,105
 25 223.369140625 25 223.369140625 25 225 c 2,106,-1
 25 425 l 0,107,108
 25 426.630859375 25 426.630859375 25.21484375 428.263671875 c 0,109,110
 26.4986285775 509.647761111 26.4986285775 509.647761111 79.552734375 571.375 c 0,111,112
 82.2447695712 574.410977159 82.2447695712 574.410977159 85.056640625 577.361328125 c 0,113,114
 92.6149053412 585.595191922 92.6149053412 585.595191922 100.94140625 593.033203125 c 0,115,116
 104.436403269 596.103192149 104.436403269 596.103192149 108.03515625 599.009765625 c 0,117,118
 116.276988678 605.735556575 116.276988678 605.735556575 125.123046875 611.65625 c 0,119,120
 129.195165366 614.410961395 129.195165366 614.410961395 133.391601562 616.990234375 c 0,121,122
 142.319304339 622.366007878 142.319304339 622.366007878 151.692382812 626.888671875 c 0,123,124
 156.174877301 629.153449274 156.174877301 629.153449274 160.772460938 631.22265625 c 0,125,126
 170.438189208 635.320165195 170.438189208 635.320165195 180.431640625 638.49609375 c 0,127,128
 184.994939156 640.10875459 184.994939156 640.10875459 189.646484375 641.53125 c 0,129,130
 200.480472631 644.446950431 200.480472631 644.446950431 211.559570312 646.271484375 c 0,131,132
 215.564770999 647.120622549 215.564770999 647.120622549 219.559570312 647.818359375 c 0,133,0
 234.709151304 649.943994825 234.709151304 649.943994825 250 650 c 128,-1,1
250 600 m 0,134,135
 183.817829922 600 183.817829922 600 134.416502731 556.268814541 c 128,-1,136
 85.0151755388 512.537629082 85.0151755388 512.537629082 76.498046875 447.841796875 c 0,137,138
 75 436.466372032 75 436.466372032 75 425 c 2,139,-1
 75 375 l 0,140,141
 75 325 75 325 75 275 c 0,142,-1
 75 225 l 1,143,144
 75 179.846900741 75 179.846900741 96.8427734375 140.333984375 c 1,145,-1
 370.943359375 551.482421875 l 1,146,147
 320.202735556 600 320.202735556 600 250 600 c 0,134,135
403.15625 509.666015625 m 1,148,-1
 129.056640625 98.517578125 l 1,149,150
 179.797264444 50 179.797264444 50 250 50 c 0,151,152
 322 50 322 50 373.5 101.5 c 128,-1,153
 425 153 425 153 425 225 c 2,154,-1
 425 275 l 0,155,156
 425 325 425 325 425 375 c 0,157,-1
 425 425 l 1,158,159
 425 470.149792333 425 470.149792333 403.15625 509.666015625 c 1,148,-1
EndSplineSet
EndChar

StartChar: one
Encoding: 49 49 78
Width: 500
VWidth: 1000
Flags: W
LayerCount: 2
Fore
SplineSet
150 650 m 2,0,-1
 250 650 l 2,1,2
 260 650 260 650 267.5 642.5 c 128,-1,3
 275 635 275 635 275 625 c 2,4,-1
 275 25 l 2,5,6
 275 15 275 15 267.5 7.5 c 128,-1,7
 260 0 260 0 250 0 c 128,-1,8
 240 0 240 0 232.5 7.5 c 128,-1,9
 225 15 225 15 225 25 c 2,10,-1
 225 600 l 1,11,-1
 150 600 l 2,12,13
 140 600 140 600 132.5 607.5 c 128,-1,14
 125 615 125 615 125 625 c 128,-1,15
 125 635 125 635 132.5 642.5 c 128,-1,16
 140 650 140 650 150 650 c 2,0,-1
EndSplineSet
EndChar

StartChar: percent
Encoding: 37 37 79
Width: 500
VWidth: 1000
Flags: W
LayerCount: 2
Fore
SplineSet
150 650 m 128,-1,1
 202 650 202 650 238.5 613.5 c 128,-1,2
 275 577 275 577 275 525 c 128,-1,3
 275 473 275 473 238.5 436.5 c 128,-1,4
 202 400 202 400 150 400 c 128,-1,5
 98 400 98 400 61.5 436.5 c 128,-1,6
 25 473 25 473 25 525 c 128,-1,7
 25 577 25 577 61.5 613.5 c 128,-1,0
 98 650 98 650 150 650 c 128,-1,1
450 650 m 0,8,9
 460 650 460 650 467.5 642.5 c 128,-1,10
 475 635 475 635 475 625 c 0,11,12
 474.994221301 617.432793588 474.994221301 617.432793588 470.79296875 611.138671875 c 1,13,-1
 470.80078125 611.1328125 l 1,14,-1
 470.70703125 610.9921875 l 1,15,-1
 70.80078125 11.1328125 l 1,16,-1
 70.791015625 11.138671875 l 0,17,18
 63.3751024059 0.00752678807308 63.3751024059 0.00752678807308 50 0 c 0,19,20
 40 0 40 0 32.5 7.5 c 128,-1,21
 25 15 25 15 25 25 c 0,22,23
 25.0057786991 32.5672064119 25.0057786991 32.5672064119 29.20703125 38.861328125 c 1,24,-1
 29.19921875 38.8671875 l 1,25,-1
 429.10546875 638.7265625 l 1,26,-1
 429.19921875 638.8671875 l 1,27,-1
 429.208984375 638.861328125 l 0,28,29
 436.624897594 649.992473212 436.624897594 649.992473212 450 650 c 0,8,9
150 600 m 128,-1,31
 119 600 119 600 97 578 c 128,-1,32
 75 556 75 556 75 525 c 128,-1,33
 75 494 75 494 97 472 c 128,-1,34
 119 450 119 450 150 450 c 128,-1,35
 181 450 181 450 203 472 c 128,-1,36
 225 494 225 494 225 525 c 128,-1,37
 225 556 225 556 203 578 c 128,-1,30
 181 600 181 600 150 600 c 128,-1,31
350 250 m 128,-1,39
 402 250 402 250 438.5 213.5 c 128,-1,40
 475 177 475 177 475 125 c 128,-1,41
 475 73 475 73 438.5 36.5 c 128,-1,42
 402 0 402 0 350 0 c 128,-1,43
 298 0 298 0 261.5 36.5 c 128,-1,44
 225 73 225 73 225 125 c 128,-1,45
 225 177 225 177 261.5 213.5 c 128,-1,38
 298 250 298 250 350 250 c 128,-1,39
350 200 m 128,-1,47
 319 200 319 200 297 178 c 128,-1,48
 275 156 275 156 275 125 c 128,-1,49
 275 94 275 94 297 72 c 128,-1,50
 319 50 319 50 350 50 c 128,-1,51
 381 50 381 50 403 72 c 128,-1,52
 425 94 425 94 425 125 c 128,-1,53
 425 156 425 156 403 178 c 128,-1,46
 381 200 381 200 350 200 c 128,-1,47
EndSplineSet
EndChar

StartChar: comma
Encoding: 44 44 80
Width: 500
VWidth: 1000
Flags: W
LayerCount: 2
Fore
SplineSet
250 50 m 128,-1,1
 260 50 260 50 267.5 42.5 c 128,-1,2
 275 35 275 35 275 25 c 2,3,-1
 275 -75 l 2,4,5
 275 -85 275 -85 267.5 -92.5 c 128,-1,6
 260 -100 260 -100 250 -100 c 128,-1,7
 240 -100 240 -100 232.5 -92.5 c 128,-1,8
 225 -85 225 -85 225 -75 c 2,9,-1
 225 25 l 2,10,11
 225 35 225 35 232.5 42.5 c 128,-1,0
 240 50 240 50 250 50 c 128,-1,1
EndSplineSet
EndChar

StartChar: exclam
Encoding: 33 33 81
Width: 500
VWidth: 1000
Flags: W
LayerCount: 2
Fore
SplineSet
250 650 m 128,-1,1
 260 650 260 650 267.5 642.5 c 128,-1,2
 275 635 275 635 275 625 c 2,3,-1
 275 125 l 2,4,5
 275 115 275 115 267.5 107.5 c 128,-1,6
 260 100 260 100 250 100 c 128,-1,7
 240 100 240 100 232.5 107.5 c 128,-1,8
 225 115 225 115 225 125 c 2,9,-1
 225 625 l 2,10,11
 225 635 225 635 232.5 642.5 c 128,-1,0
 240 650 240 650 250 650 c 128,-1,1
250 50 m 128,-1,13
 260 50 260 50 267.5 42.5 c 128,-1,14
 275 35 275 35 275 25 c 128,-1,15
 275 15 275 15 267.5 7.5 c 128,-1,16
 260 0 260 0 250 0 c 128,-1,17
 240 0 240 0 232.5 7.5 c 128,-1,18
 225 15 225 15 225 25 c 128,-1,19
 225 35 225 35 232.5 42.5 c 128,-1,12
 240 50 240 50 250 50 c 128,-1,13
EndSplineSet
EndChar

StartChar: five
Encoding: 53 53 82
Width: 500
VWidth: 1000
Flags: W
LayerCount: 2
Fore
SplineSet
50 650 m 2,0,-1
 450 650 l 2,1,2
 460 650 460 650 467.5 642.5 c 128,-1,3
 475 635 475 635 475 625 c 128,-1,4
 475 615 475 615 467.5 607.5 c 128,-1,5
 460 600 460 600 450 600 c 2,6,-1
 75 600 l 1,7,-1
 75 350 l 1,8,-1
 300 350 l 2,9,10
 372 350 372 350 423.5 298.5 c 128,-1,11
 475 247 475 247 475 175 c 128,-1,12
 475 103 475 103 423.5 51.5 c 128,-1,13
 372 0 372 0 300 0 c 2,14,-1
 50 0 l 2,15,16
 40 0 40 0 32.5 7.5 c 128,-1,17
 25 15 25 15 25 25 c 128,-1,18
 25 35 25 35 32.5 42.5 c 128,-1,19
 40 50 40 50 50 50 c 2,20,-1
 300 50 l 2,21,22
 352 50 352 50 388.5 86.5 c 128,-1,23
 425 123 425 123 425 175 c 128,-1,24
 425 227 425 227 388.5 263.5 c 128,-1,25
 352 300 352 300 300 300 c 2,26,-1
 50 300 l 2,27,28
 40 300 40 300 32.5 307.5 c 128,-1,29
 25 315 25 315 25 325 c 2,30,-1
 25 625 l 2,31,32
 25 635 25 635 32.5 642.5 c 128,-1,33
 40 650 40 650 50 650 c 2,0,-1
EndSplineSet
EndChar

StartChar: less
Encoding: 60 60 83
Width: 500
VWidth: 1000
Flags: W
LayerCount: 2
Fore
SplineSet
450 450 m 0,0,1
 460 450 460 450 467.5 442.5 c 128,-1,2
 475 435 475 435 475 425 c 0,3,4
 475 409.548828125 475 409.548828125 461.1796875 402.638671875 c 2,5,-1
 105.90234375 225 l 1,6,-1
 461.1796875 47.361328125 l 0,7,8
 475 40.451171875 475 40.451171875 475 25 c 0,9,10
 475 15 475 15 467.5 7.5 c 128,-1,11
 460 0 460 0 450 0 c 0,12,13
 444.099191254 0 444.099191254 0 438.8203125 2.638671875 c 2,14,-1
 38.8203125 202.638671875 l 0,15,16
 25 209.548828125 25 209.548828125 25 225 c 128,-1,17
 25 240.451171875 25 240.451171875 38.8203125 247.361328125 c 2,18,-1
 138.825954861 297.364583333 l 0,19,20
 238.831597222 347.367838542 238.831597222 347.367838542 338.831597222 397.367838542 c 128,-1,21
 438.831597222 447.367838542 438.831597222 447.367838542 438.8203125 447.361328125 c 1,22,23
 444.099191254 450 444.099191254 450 450 450 c 0,0,1
EndSplineSet
EndChar

StartChar: semicolon
Encoding: 59 59 84
Width: 500
VWidth: 1000
Flags: W
LayerCount: 2
Fore
SplineSet
250 450 m 128,-1,1
 260 450 260 450 267.5 442.5 c 128,-1,2
 275 435 275 435 275 425 c 128,-1,3
 275 415 275 415 267.5 407.5 c 128,-1,4
 260 400 260 400 250 400 c 128,-1,5
 240 400 240 400 232.5 407.5 c 128,-1,6
 225 415 225 415 225 425 c 128,-1,7
 225 435 225 435 232.5 442.5 c 128,-1,0
 240 450 240 450 250 450 c 128,-1,1
250 50 m 128,-1,9
 260 50 260 50 267.5 42.5 c 128,-1,10
 275 35 275 35 275 25 c 2,11,-1
 275 -75 l 2,12,13
 275 -85 275 -85 267.5 -92.5 c 128,-1,14
 260 -100 260 -100 250 -100 c 128,-1,15
 240 -100 240 -100 232.5 -92.5 c 128,-1,16
 225 -85 225 -85 225 -75 c 2,17,-1
 225 25 l 2,18,19
 225 35 225 35 232.5 42.5 c 128,-1,8
 240 50 240 50 250 50 c 128,-1,9
EndSplineSet
EndChar

StartChar: slash
Encoding: 47 47 85
Width: 500
VWidth: 1000
Flags: W
LayerCount: 2
Fore
SplineSet
450 650 m 0,0,1
 460 650 460 650 467.5 642.5 c 128,-1,2
 475 635 475 635 475 625 c 0,3,4
 474.994221301 617.432793588 474.994221301 617.432793588 470.79296875 611.138671875 c 1,5,-1
 470.80078125 611.1328125 l 1,6,-1
 470.70703125 610.9921875 l 1,7,-1
 70.80078125 11.1328125 l 1,8,-1
 70.791015625 11.138671875 l 0,9,10
 63.3751024059 0.00752678807308 63.3751024059 0.00752678807308 50 0 c 0,11,12
 40 0 40 0 32.5 7.5 c 128,-1,13
 25 15 25 15 25 25 c 0,14,15
 25.0057786991 32.5672064119 25.0057786991 32.5672064119 29.20703125 38.861328125 c 1,16,-1
 29.19921875 38.8671875 l 1,17,-1
 429.10546875 638.7265625 l 1,18,-1
 429.19921875 638.8671875 l 1,19,-1
 429.208984375 638.861328125 l 0,20,21
 436.624897594 649.992473212 436.624897594 649.992473212 450 650 c 0,0,1
EndSplineSet
EndChar

StartChar: four
Encoding: 52 52 86
Width: 500
VWidth: 1000
Flags: W
LayerCount: 2
Fore
SplineSet
350 650 m 0,0,1
 360 650 360 650 367.5 642.5 c 128,-1,2
 375 635 375 635 375 625 c 2,3,-1
 375 250 l 1,4,-1
 394 250 l 0,5,6
 413 250 413 250 431.5 250 c 0,7,-1
 450 250 l 1,8,9
 459.452630211 250 459.452630211 250 466.50898663 243.755554358 c 128,-1,10
 473.565343049 237.511108717 473.565343049 237.511108717 474.78515625 228.271484375 c 2,11,-1
 474.78515625 228.263671875 l 0,12,13
 475 226.630859375 475 226.630859375 475 225 c 128,-1,14
 475 223.369140625 475 223.369140625 474.78515625 221.736328125 c 2,15,-1
 474.78515625 221.728515625 l 1,16,17
 473.565343049 212.488891283 473.565343049 212.488891283 466.50898663 206.244445642 c 128,-1,18
 459.452630211 200 459.452630211 200 450 200 c 2,19,-1
 375 200 l 1,20,-1
 375 156 l 0,21,22
 375 112 375 112 375 68.5 c 0,23,-1
 375 25 l 1,24,25
 375 15.5458544224 375 15.5458544224 368.752722772 8.4887775226 c 128,-1,26
 362.505445544 1.43170062279 362.505445544 1.43170062279 353.263671875 0.21484375 c 0,27,28
 351.630859375 0 351.630859375 0 350 0 c 0,29,30
 340 0 340 0 332.5 7.5 c 128,-1,31
 325 15 325 15 325 25 c 2,32,-1
 325 200 l 1,33,-1
 256 200 l 0,34,35
 187 200 187 200 118.5 200 c 0,36,-1
 50 200 l 1,37,38
 40.5473697888 200 40.5473697888 200 33.4910133698 206.244445642 c 128,-1,39
 26.4346569508 212.488891283 26.4346569508 212.488891283 25.21484375 221.728515625 c 2,40,-1
 25.21484375 221.736328125 l 0,41,42
 25 223.369140625 25 223.369140625 25 225 c 128,-1,43
 25 226.630859375 25 226.630859375 25.21484375 228.263671875 c 2,44,-1
 25.21484375 228.271484375 l 1,45,46
 26.0746533838 234.763120099 26.0746533838 234.763120099 30.00390625 239.998046875 c 1,47,-1
 30 240 l 1,48,-1
 30.03515625 240.048828125 l 0,49,-1
 30.05078125 240.06640625 l 2,50,-1
 330 640 l 0,51,52
 337 650 337 650 350 650 c 0,0,1
325 550 m 1,53,-1
 100 250 l 1,54,-1
 325 250 l 1,55,-1
 325 550 l 1,53,-1
EndSplineSet
EndChar

StartChar: six
Encoding: 54 54 87
Width: 500
VWidth: 1000
Flags: W
LayerCount: 2
Fore
SplineSet
249.998046875 650 m 2,0,-1
 250.001953125 650 l 1,1,-1
 250.00390625 650 l 0,2,3
 251.616514769 649.906697089 251.616514769 649.906697089 253.365234375 649.779296875 c 0,4,5
 267.216909333 649.621008464 267.216909333 649.621008464 280.935546875 647.765625 c 0,6,7
 293.873032019 645.962129332 293.873032019 645.962129332 306.49609375 642.6796875 c 0,8,9
 307.419168833 642.500070521 307.419168833 642.500070521 308.234375 642.333984375 c 0,10,11
 337.373856068 634.489245809 337.373856068 634.489245809 363.41015625 619.248046875 c 2,12,-1
 363.98828125 618.861328125 l 0,13,14
 376.175680122 611.739125433 376.175680122 611.739125433 387.380859375 603.146484375 c 0,15,16
 398.855995451 594.318448589 398.855995451 594.318448589 409.099609375 584.099609375 c 128,-1,17
 419.3172931 573.860058728 419.3172931 573.860058728 428.140625 562.39453125 c 2,18,-1
 428.146484375 562.38671875 l 1,19,-1
 428.16015625 562.3671875 l 0,20,21
 436.745487389 551.170778022 436.745487389 551.170778022 443.86328125 538.9921875 c 2,22,-1
 443.876953125 538.966796875 l 1,23,-1
 444.103515625 538.626953125 l 1,24,-1
 444.2421875 538.421875 l 1,25,-1
 444.244140625 538.41796875 l 1,26,-1
 444.25 538.40625 l 1,27,-1
 444.263671875 538.384765625 l 1,28,29
 451.454524374 526.012182449 451.454524374 526.012182449 457.017578125 512.83984375 c 0,30,31
 457.081054688 512.713867188 457.081054688 512.713867188 457.142578125 512.587890625 c 2,32,-1
 457.146484375 512.578125 l 1,33,34
 459.171173778 507.202633836 459.171173778 507.202633836 460.919921875 501.7265625 c 0,35,36
 464.060692174 493.703604708 464.060692174 493.703604708 466.583984375 485.44140625 c 2,37,-1
 466.61328125 485.359375 l 1,38,-1
 466.62890625 485.314453125 l 2,39,-1
 466.62890625 485.3125 l 1,40,41
 474.388821567 457.319390803 474.388821567 457.319390803 474.787109375 428.283203125 c 2,42,-1
 474.7890625 428.263671875 l 0,43,44
 474.909653522 426.608150685 474.909653522 426.608150685 475.001953125 425.0234375 c 2,45,-1
 475.001953125 425.021484375 l 1,46,-1
 475 425 l 0,47,48
 474.907652109 423.403091856 474.907652109 423.403091856 474.787109375 421.736328125 c 2,49,-1
 474.787109375 421.734375 l 1,50,51
 473.569518183 412.493359039 473.569518183 412.493359039 466.512454394 406.246679519 c 128,-1,52
 459.455390604 400 459.455390604 400 450.001953125 400 c 0,53,54
 439.653564453 400 439.653564453 400 432.327758789 407.325805664 c 128,-1,55
 425.001953125 414.651611328 425.001953125 414.651611328 425.001953125 425 c 2,56,-1
 425.001953125 425.16796875 l 0,57,58
 424.813228841 431.613407258 424.813228841 431.613407258 424.146484375 438.0546875 c 0,59,60
 423.98398331 441.542656798 423.98398331 441.542656798 423.68359375 445.01171875 c 0,61,62
 423.597031231 446.492236322 423.597031231 446.492236322 423.4921875 447.890625 c 0,63,64
 423.486016302 447.922481726 423.486016302 447.922481726 423.444396227 448.13955898 c 128,-1,65
 423.402776152 448.356636234 423.402776152 448.356636234 423.380859375 448.466796875 c 0,66,67
 422.268877776 455.76802698 422.268877776 455.76802698 420.552734375 462.92578125 c 0,68,69
 419.866753736 466.651568798 419.866753736 466.651568798 419.0234375 470.33203125 c 0,70,71
 418.638643536 471.482404872 418.638643536 471.482404872 418.447265625 472.037109375 c 0,72,73
 416.648674093 478.062832559 416.648674093 478.062832559 414.423828125 483.94140625 c 0,74,75
 413.138888849 488.013085241 413.138888849 488.013085241 411.662109375 492.005859375 c 0,76,77
 408.612144502 498.928795515 408.612144502 498.928795515 404.98046875 505.556640625 c 0,78,79
 403.341460247 509.073832551 403.341460247 509.073832551 401.544921875 512.51953125 c 0,80,81
 395.816790177 522.437307135 395.816790177 522.437307135 388.837890625 531.533203125 c 128,-1,82
 381.857534555 540.63269982 381.857534555 540.63269982 373.74609375 548.744140625 c 1,83,-1
 373.744140625 548.744140625 l 0,84,85
 365.628918339 556.859362911 365.628918339 556.859362911 356.53515625 563.837890625 c 128,-1,86
 347.497139389 570.766988033 347.497139389 570.766988033 337.626953125 576.470703125 c 128,-1,87
 327.631417284 582.258915476 327.631417284 582.258915476 316.97265625 586.6796875 c 0,88,89
 306.517984338 590.998115582 306.517984338 590.998115582 295.591796875 593.935546875 c 0,90,-1
 295.294921875 594.037109375 l 0,91,92
 273.134608353 599.974168492 273.134608353 599.974168492 250.193359375 600 c 2,93,-1
 250.001953125 600 l 1,94,-1
 249.822265625 600 l 0,95,96
 226.86728707 599.974153033 226.86728707 599.974153033 204.70703125 594.037109375 c 0,97,-1
 204.41015625 593.935546875 l 0,98,99
 193.483968787 590.998115582 193.483968787 590.998115582 183.029296875 586.6796875 c 0,100,101
 172.370535841 582.258915476 172.370535841 582.258915476 162.375 576.470703125 c 128,-1,102
 152.504813736 570.766988033 152.504813736 570.766988033 143.466796875 563.837890625 c 128,-1,103
 134.373034786 556.859362911 134.373034786 556.859362911 126.2578125 548.744140625 c 1,104,-1
 126.255859375 548.744140625 l 0,105,106
 118.14441857 540.63269982 118.14441857 540.63269982 111.1640625 531.533203125 c 128,-1,107
 104.185162948 522.437307135 104.185162948 522.437307135 98.45703125 512.51953125 c 0,108,109
 96.6604928779 509.073832551 96.6604928779 509.073832551 95.021484375 505.556640625 c 0,110,111
 91.389808623 498.928795515 91.389808623 498.928795515 88.33984375 492.005859375 c 0,112,113
 86.8630642758 488.013085241 86.8630642758 488.013085241 85.578125 483.94140625 c 0,114,115
 83.3532790317 478.062832559 83.3532790317 478.062832559 81.5546875 472.037109375 c 0,116,117
 81.2773346815 471.233208566 81.2773346815 471.233208566 80.98046875 470.345703125 c 0,118,119
 80.1400237824 466.677771673 80.1400237824 466.677771673 79.44921875 462.92578125 c 0,120,121
 77.7330753492 455.76802698 77.7330753492 455.76802698 76.62109375 448.466796875 c 0,122,123
 76.5313318063 448.015625 76.5313318063 448.015625 76.509765625 447.904296875 c 0,124,125
 76.4510893486 447.082829005 76.4510893486 447.082829005 76.41015625 446.416015625 c 0,126,127
 76.0311395152 442.220388514 76.0311395152 442.220388514 75.85546875 438.0546875 c 0,128,129
 75.1887242835 431.613407258 75.1887242835 431.613407258 75 425.16796875 c 2,130,-1
 75 425 l 1,131,-1
 74.982421875 410.321180556 l 0,132,133
 74.96484375 395.642361111 74.96484375 395.642361111 74.96484375 380.997829861 c 128,-1,134
 74.96484375 366.353298611 74.96484375 366.353298611 75 366.421875 c 0,135,136
 106.53745284 405.446599198 106.53745284 405.446599198 152.212699167 427.723299599 c 128,-1,137
 197.887945495 450 197.887945495 450 250 450 c 0,138,139
 343 450 343 450 409 384 c 128,-1,140
 475 318 475 318 475 225 c 128,-1,141
 475 132 475 132 409 66 c 128,-1,142
 343 0 343 0 250 0 c 128,-1,143
 157 0 157 0 91 66 c 128,-1,144
 25 132 25 132 25 225 c 2,145,-1
 25 425 l 1,146,-1
 25.001953125 425 l 1,147,-1
 25 425.013671875 l 1,148,-1
 25 425.021484375 l 1,149,-1
 25 425.0234375 l 0,150,151
 25.0922996031 426.608150685 25.0922996031 426.608150685 25.212890625 428.263671875 c 2,152,-1
 25.21484375 428.283203125 l 1,153,154
 25.6131204919 457.318584085 25.6131204919 457.318584085 33.37109375 485.3046875 c 2,155,-1
 33.373046875 485.314453125 l 1,156,-1
 33.388671875 485.359375 l 1,157,-1
 33.41796875 485.44140625 l 1,158,159
 37.2663799826 499.304783199 37.2663799826 499.304783199 42.85546875 512.578125 c 2,160,-1
 42.859375 512.587890625 l 1,161,-1
 42.984375 512.83984375 l 1,162,163
 48.5487601582 526.015334989 48.5487601582 526.015334989 55.734375 538.37890625 c 2,164,-1
 55.751953125 538.40625 l 1,165,-1
 55.7578125 538.41796875 l 1,166,-1
 55.759765625 538.421875 l 1,167,-1
 55.76171875 538.42578125 l 1,168,-1
 55.8984375 538.626953125 l 1,169,-1
 56.107421875 538.9375 l 0,170,171
 63.2498600068 551.158257025 63.2498600068 551.158257025 71.841796875 562.36328125 c 2,172,-1
 71.85546875 562.3828125 l 1,173,-1
 71.861328125 562.390625 l 0,174,175
 80.6782003483 573.850667794 80.6782003483 573.850667794 90.90234375 584.099609375 c 128,-1,176
 101.142727353 594.315215505 101.142727353 594.315215505 112.611328125 603.138671875 c 2,177,-1
 112.619140625 603.14453125 l 0,178,179
 123.828768855 611.740583985 123.828768855 611.740583985 136.013671875 618.861328125 c 2,180,-1
 136.013671875 618.861328125 l 0,181,-1
 136.591796875 619.248046875 l 1,182,183
 162.629760113 634.490219334 162.629760113 634.490219334 191.765625 642.333984375 c 0,184,185
 192.569638131 642.497512469 192.569638131 642.497512469 193.505859375 642.6796875 c 0,186,187
 206.128921106 645.962129332 206.128921106 645.962129332 219.06640625 647.765625 c 0,188,189
 232.785043792 649.621008464 232.785043792 649.621008464 246.63671875 649.779296875 c 0,190,-1
 246.73828125 649.787109375 l 0,191,192
 248.407536439 649.90794018 248.407536439 649.90794018 249.998046875 650 c 2,0,-1
250 400 m 128,-1,194
 178 400 178 400 126.5 348.5 c 128,-1,195
 75 297 75 297 75 225 c 128,-1,196
 75 153 75 153 126.5 101.5 c 128,-1,197
 178 50 178 50 250 50 c 128,-1,198
 322 50 322 50 373.5 101.5 c 128,-1,199
 425 153 425 153 425 225 c 128,-1,200
 425 297 425 297 373.5 348.5 c 128,-1,193
 322 400 322 400 250 400 c 128,-1,194
EndSplineSet
EndChar

StartChar: quotedbl
Encoding: 34 34 88
Width: 500
VWidth: 1000
Flags: W
LayerCount: 2
Fore
SplineSet
150 650 m 128,-1,1
 160 650 160 650 167.5 642.5 c 128,-1,2
 175 635 175 635 175 625 c 2,3,-1
 175 525 l 2,4,5
 175 515 175 515 167.5 507.5 c 128,-1,6
 160 500 160 500 150 500 c 128,-1,7
 140 500 140 500 132.5 507.5 c 128,-1,8
 125 515 125 515 125 525 c 2,9,-1
 125 625 l 2,10,11
 125 635 125 635 132.5 642.5 c 128,-1,0
 140 650 140 650 150 650 c 128,-1,1
350 650 m 128,-1,13
 360 650 360 650 367.5 642.5 c 128,-1,14
 375 635 375 635 375 625 c 2,15,-1
 375 525 l 2,16,17
 375 515 375 515 367.5 507.5 c 128,-1,18
 360 500 360 500 350 500 c 128,-1,19
 340 500 340 500 332.5 507.5 c 128,-1,20
 325 515 325 515 325 525 c 2,21,-1
 325 625 l 2,22,23
 325 635 325 635 332.5 642.5 c 128,-1,12
 340 650 340 650 350 650 c 128,-1,13
EndSplineSet
EndChar

StartChar: hyphen
Encoding: 45 45 89
Width: 500
VWidth: 1000
Flags: W
LayerCount: 2
Fore
SplineSet
50 250 m 2,0,-1
 150 250 l 0,1,2
 250 250 250 250 350 250 c 0,3,-1
 450 250 l 1,4,5
 459.452630211 250 459.452630211 250 466.50898663 243.755554358 c 128,-1,6
 473.565343049 237.511108717 473.565343049 237.511108717 474.78515625 228.271484375 c 2,7,-1
 474.78515625 228.263671875 l 0,8,9
 475 226.630859375 475 226.630859375 475 225 c 128,-1,10
 475 223.369140625 475 223.369140625 474.78515625 221.736328125 c 2,11,-1
 474.78515625 221.728515625 l 1,12,13
 473.565343049 212.488891283 473.565343049 212.488891283 466.50898663 206.244445642 c 128,-1,14
 459.452630211 200 459.452630211 200 450 200 c 2,15,-1
 350 200 l 0,16,17
 250 200 250 200 150 200 c 0,18,-1
 50 200 l 1,19,20
 40.5473697888 200 40.5473697888 200 33.4910133698 206.244445642 c 128,-1,21
 26.4346569508 212.488891283 26.4346569508 212.488891283 25.21484375 221.728515625 c 2,22,-1
 25.21484375 221.736328125 l 0,23,24
 25 223.369140625 25 223.369140625 25 225 c 128,-1,25
 25 226.630859375 25 226.630859375 25.21484375 228.263671875 c 2,26,-1
 25.21484375 228.271484375 l 1,27,28
 26.4346569508 237.511108717 26.4346569508 237.511108717 33.4910133698 243.755554358 c 128,-1,29
 40.5473697888 250 40.5473697888 250 50 250 c 2,0,-1
EndSplineSet
EndChar

StartChar: period
Encoding: 46 46 90
Width: 500
VWidth: 1000
Flags: W
LayerCount: 2
Fore
SplineSet
250 50 m 128,-1,1
 260 50 260 50 267.5 42.5 c 128,-1,2
 275 35 275 35 275 25 c 128,-1,3
 275 15 275 15 267.5 7.5 c 128,-1,4
 260 0 260 0 250 0 c 128,-1,5
 240 0 240 0 232.5 7.5 c 128,-1,6
 225 15 225 15 225 25 c 128,-1,7
 225 35 225 35 232.5 42.5 c 128,-1,0
 240 50 240 50 250 50 c 128,-1,1
EndSplineSet
EndChar

StartChar: colon
Encoding: 58 58 91
Width: 500
VWidth: 1000
Flags: W
LayerCount: 2
Fore
SplineSet
250 450 m 128,-1,1
 260 450 260 450 267.5 442.5 c 128,-1,2
 275 435 275 435 275 425 c 128,-1,3
 275 415 275 415 267.5 407.5 c 128,-1,4
 260 400 260 400 250 400 c 128,-1,5
 240 400 240 400 232.5 407.5 c 128,-1,6
 225 415 225 415 225 425 c 128,-1,7
 225 435 225 435 232.5 442.5 c 128,-1,0
 240 450 240 450 250 450 c 128,-1,1
250 50 m 128,-1,9
 260 50 260 50 267.5 42.5 c 128,-1,10
 275 35 275 35 275 25 c 128,-1,11
 275 15 275 15 267.5 7.5 c 128,-1,12
 260 0 260 0 250 0 c 128,-1,13
 240 0 240 0 232.5 7.5 c 128,-1,14
 225 15 225 15 225 25 c 128,-1,15
 225 35 225 35 232.5 42.5 c 128,-1,8
 240 50 240 50 250 50 c 128,-1,9
EndSplineSet
EndChar

StartChar: numbersign
Encoding: 35 35 92
Width: 500
VWidth: 1000
Flags: W
LayerCount: 2
Fore
SplineSet
150 650 m 128,-1,1
 160 650 160 650 167.5 642.5 c 128,-1,2
 175 635 175 635 175 625 c 2,3,-1
 175 450 l 1,4,-1
 325 450 l 1,5,-1
 325 625 l 2,6,7
 325 635 325 635 332.5 642.5 c 128,-1,8
 340 650 340 650 350 650 c 128,-1,9
 360 650 360 650 367.5 642.5 c 128,-1,10
 375 635 375 635 375 625 c 2,11,-1
 375 450 l 1,12,-1
 394 450 l 0,13,14
 413 450 413 450 431.5 450 c 0,15,-1
 450 450 l 1,16,17
 459.452438175 450 459.452438175 450 466.508877428 443.755285695 c 128,-1,18
 473.56531668 437.51057139 473.56531668 437.51057139 474.78515625 428.271484375 c 2,19,-1
 474.78515625 428.263671875 l 0,20,21
 475 426.630859375 475 426.630859375 475 425 c 128,-1,22
 475 423.369140625 475 423.369140625 474.78515625 421.736328125 c 2,23,-1
 474.78515625 421.728515625 l 1,24,25
 473.56531668 412.48942861 473.56531668 412.48942861 466.508877428 406.244714305 c 128,-1,26
 459.452438175 400 459.452438175 400 450 400 c 2,27,-1
 375 400 l 1,28,-1
 375 250 l 1,29,-1
 394 250 l 0,30,31
 413 250 413 250 431.5 250 c 0,32,-1
 450 250 l 1,33,34
 459.452438175 250 459.452438175 250 466.508877428 243.755285695 c 128,-1,35
 473.56531668 237.51057139 473.56531668 237.51057139 474.78515625 228.271484375 c 2,36,-1
 474.78515625 228.263671875 l 0,37,38
 475 226.630859375 475 226.630859375 475 225 c 128,-1,39
 475 223.369140625 475 223.369140625 474.78515625 221.736328125 c 2,40,-1
 474.78515625 221.728515625 l 1,41,42
 473.56531668 212.48942861 473.56531668 212.48942861 466.508877428 206.244714305 c 128,-1,43
 459.452438175 200 459.452438175 200 450 200 c 2,44,-1
 375 200 l 1,45,-1
 375 25 l 2,46,47
 375 15 375 15 367.5 7.5 c 128,-1,48
 360 0 360 0 350 0 c 128,-1,49
 340 0 340 0 332.5 7.5 c 128,-1,50
 325 15 325 15 325 25 c 2,51,-1
 325 200 l 1,52,-1
 175 200 l 1,53,-1
 175 25 l 2,54,55
 175 15 175 15 167.5 7.5 c 128,-1,56
 160 0 160 0 150 0 c 128,-1,57
 140 0 140 0 132.5 7.5 c 128,-1,58
 125 15 125 15 125 25 c 2,59,-1
 125 200 l 1,60,-1
 106 200 l 0,61,62
 87 200 87 200 68.5 200 c 0,63,-1
 50 200 l 1,64,65
 40.5475618245 200 40.5475618245 200 33.4911225722 206.244714305 c 128,-1,66
 26.43468332 212.48942861 26.43468332 212.48942861 25.21484375 221.728515625 c 2,67,-1
 25.21484375 221.736328125 l 0,68,69
 25 223.369140625 25 223.369140625 25 225 c 128,-1,70
 25 226.630859375 25 226.630859375 25.21484375 228.263671875 c 2,71,-1
 25.21484375 228.271484375 l 1,72,73
 26.43468332 237.51057139 26.43468332 237.51057139 33.4911225722 243.755285695 c 128,-1,74
 40.5475618245 250 40.5475618245 250 50 250 c 2,75,-1
 125 250 l 1,76,-1
 125 400 l 1,77,-1
 106 400 l 0,78,79
 87 400 87 400 68.5 400 c 0,80,-1
 50 400 l 1,81,82
 40.5475618245 400 40.5475618245 400 33.4911225722 406.244714305 c 128,-1,83
 26.43468332 412.48942861 26.43468332 412.48942861 25.21484375 421.728515625 c 2,84,-1
 25.21484375 421.736328125 l 0,85,86
 25 423.369140625 25 423.369140625 25 425 c 128,-1,87
 25 426.630859375 25 426.630859375 25.21484375 428.263671875 c 2,88,-1
 25.21484375 428.271484375 l 1,89,90
 26.43468332 437.51057139 26.43468332 437.51057139 33.4911225722 443.755285695 c 128,-1,91
 40.5475618245 450 40.5475618245 450 50 450 c 2,92,-1
 125 450 l 1,93,-1
 125 625 l 2,94,95
 125 635 125 635 132.5 642.5 c 128,-1,0
 140 650 140 650 150 650 c 128,-1,1
175 400 m 1,96,-1
 175 250 l 1,97,-1
 325 250 l 1,98,-1
 325 400 l 1,99,-1
 175 400 l 1,96,-1
EndSplineSet
EndChar

StartChar: seven
Encoding: 55 55 93
Width: 500
VWidth: 1000
Flags: W
LayerCount: 2
Fore
SplineSet
50 650 m 2,0,-1
 450 650 l 2,1,2
 460 650 460 650 467.5 642.5 c 128,-1,3
 475 635 475 635 475 625 c 0,4,5
 474.997129373 620.942368774 474.997129373 620.942368774 473.712890625 617.095703125 c 2,6,-1
 473.716796875 617.09375 l 1,7,-1
 273.716796875 17.09375 l 1,8,-1
 273.712890625 17.095703125 l 0,9,10
 268.015946141 0.00318866303384 268.015946141 0.00318866303384 250 0 c 0,11,12
 240 0 240 0 232.5 7.5 c 128,-1,13
 225 15 225 15 225 25 c 0,14,15
 225.002870627 29.0576312257 225.002870627 29.0576312257 226.287109375 32.904296875 c 2,16,-1
 226.283203125 32.90625 l 1,17,-1
 415.314453125 600 l 1,18,-1
 50 600 l 2,19,20
 40 600 40 600 32.5 607.5 c 128,-1,21
 25 615 25 615 25 625 c 128,-1,22
 25 635 25 635 32.5 642.5 c 128,-1,23
 40 650 40 650 50 650 c 2,0,-1
EndSplineSet
EndChar

